<svg width="110" height="110" viewBox="0 0 110 110" fill="none" xmlns="http://www.w3.org/2000/svg">
<path d="M73 37C73 46.6285 64.9781 54.5 55 54.5C45.0219 54.5 37 46.6285 37 37C37 27.3715 45.0219 19.5 55 19.5C64.9781 19.5 73 27.3715 73 37Z" fill="white" stroke="black" stroke-width="3"/>
<path d="M18.6013 90.1682C19.282 84.0373 23.389 78.3909 29.9184 74.2316C36.4365 70.0795 45.25 67.5 55 67.5C64.75 67.5 73.5635 70.0795 80.0816 74.2316C86.611 78.3909 90.718 84.0374 91.3987 90.1682C91.407 90.2432 91.3868 90.3077 91.3255 90.3712C91.2573 90.4419 91.1434 90.5 91 90.5H19C18.8566 90.5 18.7427 90.4419 18.6745 90.3712C18.6132 90.3077 18.593 90.2432 18.6013 90.1682Z" fill="white" stroke="black" stroke-width="3"/>
</svg>
