<svg width="38" height="37" viewBox="0 0 38 37" fill="none" xmlns="http://www.w3.org/2000/svg">
<path d="M8.83118 16.8451L9.6058 19.3303H8.05818L8.83118 16.8451ZM6.43924 24.5352L7.01579 22.6816H10.6504L11.2283 24.5359C11.3814 25.0271 11.8362 25.3618 12.3508 25.3618H14.2147C15.0179 25.3618 15.5846 24.5742 15.3295 23.8126L11.504 12.3914C11.3435 11.9122 10.8946 11.5891 10.3891 11.5891H7.27851C6.77308 11.5891 6.32421 11.9122 6.16368 12.3914L2.33813 23.8126C2.08302 24.5742 2.64975 25.3618 3.45296 25.3618H5.31658C5.8314 25.3618 6.28634 25.0268 6.43924 24.5352Z" fill="#1689F3" stroke="black" stroke-width="1.00775"/>
<path d="M15.988 24.186C15.988 24.8354 16.5144 25.3618 17.1637 25.3618H24.1547C24.804 25.3618 25.3304 24.8354 25.3304 24.186V23.0241C25.3304 22.3748 24.804 21.8484 24.1547 21.8484H20.2266C20.1338 21.8484 20.0586 21.7732 20.0586 21.6804V12.7649C20.0586 12.1155 19.5322 11.5891 18.8829 11.5891H17.1637C16.5144 11.5891 15.988 12.1155 15.988 12.7649V24.186Z" fill="white" stroke="black" stroke-width="1.00775"/>
<path d="M25.6664 24.186C25.6664 24.8354 26.1927 25.3618 26.8421 25.3618H33.8331C34.4824 25.3618 35.0088 24.8354 35.0088 24.186V23.0241C35.0088 22.3748 34.4824 21.8484 33.8331 21.8484H29.9049C29.8122 21.8484 29.737 21.7732 29.737 21.6804V12.7649C29.737 12.1155 29.2106 11.5891 28.5612 11.5891H26.8421C26.1927 11.5891 25.6664 12.1155 25.6664 12.7649V24.186Z" fill="white" stroke="black" stroke-width="1.00775"/>
</svg>
