<svg width="352" height="175" viewBox="0 0 352 175" fill="none" xmlns="http://www.w3.org/2000/svg">
<rect width="350" height="160" rx="6.71835" transform="matrix(1 0 2.59417e-05 1 1 0)" fill="url(#paint0_radial_1337_3294)"/>
<path d="M7.664 68.06V69.124H3.352V75.088C5.424 75.088 6.824 75.018 8.448 74.696L8.588 75.76C6.824 76.11 5.34 76.18 3.016 76.18H2.064V68.06H7.664ZM6.964 72.372V71.28H10.38V66.912H11.668V79.176H10.38V72.372H6.964ZM23.1796 66.912V70.076H24.9436V71.196H23.1796V74.304H21.8916V66.912H23.1796ZM13.5756 69.208V68.144H16.5716V66.828H17.8596V68.144H20.8556V69.208H13.5756ZM14.2476 71.924C14.2336 70.608 15.4236 69.726 17.2156 69.74C18.9796 69.726 20.1836 70.608 20.1836 71.924C20.1836 73.24 18.9796 74.108 17.2156 74.108C15.4236 74.108 14.2336 73.24 14.2476 71.924ZM15.3396 79.008V74.948H23.1796V79.008H15.3396ZM15.4796 71.924C15.4796 72.68 16.1796 73.128 17.2156 73.128C18.2516 73.128 18.9516 72.68 18.9516 71.924C18.9516 71.182 18.2516 70.72 17.2156 70.72C16.1796 70.72 15.4796 71.182 15.4796 71.924ZM16.6276 77.944H21.8916V75.956H16.6276V77.944ZM36.1752 66.912V79.148H34.9432V66.912H36.1752ZM25.7872 72.204C25.7872 69.544 26.8232 67.892 28.4192 67.892C29.9032 67.892 30.9252 69.306 31.0792 71.616H32.4512V67.136H33.7112V78.56H32.4512V72.652H31.0932C30.9672 75.046 29.9312 76.53 28.4192 76.516C26.8232 76.53 25.7872 74.864 25.7872 72.204ZM26.9912 72.204C26.9912 74.15 27.5372 75.298 28.4192 75.284C29.3292 75.298 29.8892 74.15 29.9032 72.204C29.8892 70.244 29.3292 69.11 28.4192 69.096C27.5372 69.11 26.9912 70.244 26.9912 72.204ZM42.1708 70.02C42.1708 72.274 43.4308 74.5 45.3068 75.34L44.5228 76.376C43.1228 75.69 42.0588 74.304 41.5268 72.624C40.9808 74.388 39.9168 75.886 38.5028 76.6L37.6908 75.564C39.5808 74.654 40.8408 72.302 40.8548 70.02V67.92H42.1708V70.02ZM43.9628 72.036V70.972H46.6788V66.912H47.9668V79.176H46.6788V72.036H43.9628ZM62.8964 66.912V70.076H64.6604V71.196H62.8964V74.304H61.6084V66.912H62.8964ZM53.2924 69.208V68.144H56.2884V66.828H57.5764V68.144H60.5724V69.208H53.2924ZM53.9644 71.924C53.9504 70.608 55.1404 69.726 56.9324 69.74C58.6964 69.726 59.9004 70.608 59.9004 71.924C59.9004 73.24 58.6964 74.108 56.9324 74.108C55.1404 74.108 53.9504 73.24 53.9644 71.924ZM55.0564 79.008V74.948H62.8964V79.008H55.0564ZM55.1964 71.924C55.1964 72.68 55.8964 73.128 56.9324 73.128C57.9684 73.128 58.6684 72.68 58.6684 71.924C58.6684 71.182 57.9684 70.72 56.9324 70.72C55.8964 70.72 55.1964 71.182 55.1964 71.924ZM56.3444 77.944H61.6084V75.956H56.3444V77.944ZM68.388 68.368C68.388 71.098 68.052 73.94 66.344 76.348L65.336 75.76C66.764 73.856 67.184 71.728 67.282 69.432H65.616V68.368H68.388ZM68.08 76.488C69.662 74.374 69.956 71.798 69.998 69.432H68.78V68.368H71.132C71.132 69.404 71.104 70.51 70.978 71.644H72.392V67.22H73.624V78.56H72.392V72.708H70.81C70.544 74.234 70.04 75.746 69.088 77.076L68.08 76.488ZM74.716 79.148V66.912H75.976V79.148H74.716ZM85.1376 70.02C85.1236 72.19 86.3836 74.416 88.2176 75.312L87.4056 76.348C86.0756 75.648 85.0396 74.29 84.4936 72.652C83.9476 74.388 82.8836 75.858 81.4976 76.572L80.6856 75.536C82.5616 74.626 83.8356 72.274 83.8496 70.02V67.92H85.1376V70.02ZM89.1416 79.148V66.912H90.4296V71.784H92.3896V72.904H90.4296V79.148H89.1416ZM104.153 72.876V73.94H92.9812V72.876H95.6692V71.252C94.7172 70.86 94.1852 70.244 94.1852 69.432C94.1852 67.976 95.8652 67.122 98.5532 67.136C101.241 67.122 102.935 67.976 102.921 69.432C102.935 70.244 102.389 70.86 101.437 71.252V72.876H104.153ZM94.2972 76.936C94.3112 75.55 95.8932 74.766 98.5532 74.78C101.199 74.766 102.781 75.55 102.781 76.936C102.781 78.364 101.199 79.134 98.5532 79.148C95.8932 79.134 94.3112 78.364 94.2972 76.936ZM95.5292 69.432C95.5152 70.244 96.6492 70.706 98.5532 70.72C100.457 70.706 101.605 70.244 101.605 69.432C101.605 68.606 100.457 68.13 98.5532 68.144C96.6492 68.13 95.5152 68.606 95.5292 69.432ZM95.6412 76.936C95.6132 77.72 96.6912 78.154 98.5532 78.14C100.415 78.154 101.479 77.72 101.493 76.936C101.479 76.194 100.415 75.774 98.5532 75.76C96.6912 75.774 95.6132 76.194 95.6412 76.936ZM96.9852 72.876H100.149V71.588C99.6732 71.658 99.1272 71.7 98.5532 71.7C97.9792 71.7 97.4612 71.658 96.9852 71.588V72.876ZM114.629 66.912V71.868H116.589V72.96H114.629V79.148H113.341V66.912H114.629ZM105.025 69.88V68.844H108.049V67.08H109.337V68.844H112.277V69.88H105.025ZM105.641 73.632C105.641 71.966 106.929 70.79 108.693 70.804C110.443 70.79 111.731 71.966 111.745 73.632C111.731 75.326 110.443 76.488 108.693 76.488C106.929 76.488 105.641 75.326 105.641 73.632ZM106.901 73.632C106.887 74.696 107.643 75.41 108.693 75.396C109.729 75.41 110.499 74.696 110.513 73.632C110.499 72.596 109.729 71.868 108.693 71.868C107.643 71.868 106.887 72.596 106.901 73.632ZM127.092 68.088V69.292C127.092 70.804 127.092 72.498 126.616 75.004L125.328 74.864C125.79 72.498 125.79 70.762 125.804 69.292V69.152H118.356V68.088H127.092ZM117.18 77.496V76.432H121.436V72.12H122.724V76.432H128.352V77.496H117.18ZM142.862 66.912V73.716H141.574V66.912H142.862ZM132.754 72.456C134.658 71.84 135.82 70.244 135.834 68.564V67.36H137.15V68.564C137.15 70.174 138.326 71.672 140.202 72.26L139.586 73.268C138.144 72.806 137.052 71.84 136.506 70.594C135.96 71.938 134.868 73.002 133.398 73.492L132.754 72.456ZM134.546 79.008V77.944H136.282V75.424H134.658V74.388H142.946V75.424H141.322V77.944H143.058V79.008H134.546ZM137.57 77.944H140.034V75.424H137.57V77.944ZM155.97 73.296V74.36H144.798V73.296H155.97ZM146.002 69.768C146.002 68.228 147.71 67.318 150.37 67.332C153.03 67.318 154.752 68.228 154.738 69.768C154.752 71.322 153.03 72.246 150.37 72.26C147.71 72.246 146.002 71.322 146.002 69.768ZM146.226 78.896V75.34H147.514V77.86H154.71V78.896H146.226ZM147.346 69.768C147.332 70.678 148.508 71.196 150.37 71.196C152.26 71.196 153.422 70.678 153.422 69.768C153.422 68.886 152.26 68.368 150.37 68.368C148.508 68.368 147.332 68.886 147.346 69.768ZM12.62 90.98V92.016H7.664V93.08H11.22V95.964H4.08V97.028H11.556V98.036H2.82V95.012H9.932V94.088H2.792V93.08H6.376V92.016H1.448V90.98H12.62ZM2.876 90.084V86.304H11.192V90.084H2.876ZM4.164 89.048H9.876V87.34H4.164V89.048ZM23.7676 85.912V94.956H22.4796V90.7H19.9316V89.608H22.4796V85.912H23.7676ZM13.7436 92.548C16.4596 91.652 18.3076 90 18.5876 87.928H14.3596V86.836H19.9876C19.9876 90.042 17.7896 92.45 14.2756 93.584L13.7436 92.548ZM15.8716 97.896V94.032H17.1876V96.86H24.0756V97.896H15.8716ZM31.2192 86.108C33.9912 86.108 35.6012 86.864 35.5872 88.208C35.6012 89.594 33.9912 90.336 31.2192 90.336C28.4612 90.336 26.8512 89.594 26.8512 88.208C26.8512 86.864 28.4612 86.108 31.2192 86.108ZM25.6472 92.128V91.092H36.8192V92.128H25.6472ZM26.9912 94.06V93.08H35.4192V95.936H28.2792V97.028H35.7552V98.036H27.0192V95.012H34.1312V94.06H26.9912ZM28.1952 88.208C28.1952 88.978 29.2732 89.37 31.2192 89.384C33.1932 89.37 34.2712 88.978 34.2712 88.208C34.2712 87.494 33.1932 87.074 31.2192 87.088C29.2732 87.074 28.1952 87.494 28.1952 88.208ZM45.4488 88.432C45.4628 89.832 46.5688 91.148 48.4448 91.68L47.8568 92.66C46.4288 92.268 45.3788 91.4 44.8328 90.294C44.2868 91.512 43.2088 92.45 41.7528 92.912L41.1368 91.876C43.0128 91.344 44.1748 89.972 44.1608 88.432V88.292H41.5008V87.256H44.1608V85.856H45.4768V87.256H48.1088V88.292H45.4488V88.432ZM42.3688 97.112C44.3988 96.818 45.9668 95.81 46.2048 94.648H42.8448V93.584H50.9928V94.648H47.6328C47.8708 95.796 49.4388 96.818 51.4968 97.112L51.0208 98.12C49.1588 97.84 47.6188 96.986 46.9048 95.81C46.2188 96.972 44.6928 97.812 42.8448 98.092L42.3688 97.112ZM49.5088 92.996V85.912H50.7968V88.852H52.5608V89.916H50.7968V92.996H49.5088ZM56.5404 86.836C58.3884 86.836 59.6904 88.502 59.7044 91.12C59.6904 93.766 58.3884 95.432 56.5404 95.432C54.7204 95.432 53.4044 93.766 53.4324 91.12C53.4044 88.502 54.7204 86.836 56.5404 86.836ZM54.6644 91.12C54.6504 93.066 55.4344 94.27 56.5404 94.256C57.6884 94.27 58.4444 93.066 58.4444 91.12C58.4444 89.202 57.6884 87.998 56.5404 87.984C55.4344 87.998 54.6504 89.202 54.6644 91.12ZM61.5244 98.148V85.912H62.8124V90.7H64.7724V91.82H62.8124V98.148H61.5244ZM76.592 95.572V96.636H65.364V95.572H70.292V93.052H66.652V86.752H67.94V88.852H73.96V86.752H75.248V93.052H71.58V95.572H76.592ZM67.94 92.016H73.96V89.916H67.94V92.016ZM81.1876 89.244C81.2016 91.218 82.0136 93.304 83.6516 94.312L82.9236 95.32C81.7896 94.62 81.0056 93.402 80.5856 91.974C80.1376 93.528 79.2976 94.844 78.1076 95.572L77.2956 94.62C79.0316 93.57 79.9416 91.4 79.9556 89.328V87.032H81.1876V89.244ZM82.3356 91.288V90.224H84.2396V86.136H85.4716V97.56H84.2396V91.288H82.3356ZM86.7596 98.148V85.912H87.9916V98.148H86.7596ZM100.791 95.544V96.636H89.5632V95.544H92.2512V92.352C91.2432 91.806 90.6272 90.924 90.6272 89.832C90.6272 87.9 92.5172 86.626 95.1352 86.612C97.7812 86.626 99.6712 87.9 99.6712 89.832C99.6712 90.896 99.0832 91.764 98.1032 92.324V95.544H100.791ZM91.8872 89.832C91.8872 91.134 93.2172 91.988 95.1352 91.988C97.0532 91.988 98.4112 91.134 98.4112 89.832C98.4112 88.502 97.0532 87.662 95.1352 87.676C93.2172 87.662 91.8872 88.502 91.8872 89.832ZM93.5392 95.544H96.7872V92.814C96.2832 92.94 95.7232 92.996 95.1352 92.996C94.5612 92.996 94.0292 92.94 93.5392 92.828V95.544ZM103.063 97.084C102.531 97.098 102.083 96.664 102.083 96.132C102.083 95.586 102.531 95.152 103.063 95.152C103.581 95.152 104.029 95.586 104.015 96.132C104.029 96.664 103.581 97.098 103.063 97.084Z" fill="#282828"/>
<path d="M15.88 33.88V38.12H18.12V40.68H15.88V44.8H12.72V33.88H15.88ZM1.4 37.76V35.32H5.16V33.8H8.28V35.32H12.08V37.76H1.4ZM2.16 41.36C2.16 39.46 4.04 38.1 6.72 38.12C9.38 38.1 11.24 39.46 11.24 41.36C11.24 43.3 9.36 44.64 6.72 44.64C4.04 44.64 2.16 43.3 2.16 41.36ZM3.8 51.76V45.4H15.88V51.76H3.8ZM5.24 41.36C5.24 42.08 5.82 42.38 6.72 42.36C7.64 42.38 8.26 42.08 8.28 41.36C8.26 40.7 7.64 40.42 6.72 40.44C5.82 40.42 5.24 40.7 5.24 41.36ZM6.92 49.28H12.76V47.84H6.92V49.28ZM23.0852 35.88C23.1052 40.84 22.7052 44.74 20.6052 48.36L18.2052 47.12C19.8252 44.32 20.3052 41.9 20.4252 38.36H18.9652V35.88H23.0852ZM22.3252 47.8C24.0452 44.8 24.4452 42.12 24.5452 38.36H23.6052V35.88H27.1652C27.1652 37.48 27.1452 39 27.0252 40.44H28.0452V34.24H31.0052V51.2H28.0452V42.92H26.7652C26.4252 45.12 25.8052 47.14 24.6852 49.08L22.3252 47.8ZM31.6852 51.96V33.88H34.6452V51.96H31.6852ZM46.5258 37C46.5058 38.76 46.9858 40.54 48.5658 41.72C50.1458 40.52 50.6458 38.72 50.6458 37V35.08H53.8058V37C53.7858 39.18 54.5058 41.32 57.0458 42.36L55.4458 44.68C53.8458 44.02 52.8058 42.86 52.1858 41.42C51.5258 43 50.3858 44.26 48.5658 44.96C46.7258 44.28 45.5858 43 44.9258 41.46C44.3058 42.88 43.2658 44.02 41.6858 44.68L40.0858 42.36C42.6058 41.32 43.3658 39.18 43.3658 37V35.08H46.5258V37ZM40.3258 49.84V47.32H56.8058V49.84H40.3258ZM72.7309 35.28V36.92C72.7509 39.22 72.7509 41.8 72.0109 45.76L68.8509 45.48C69.5109 42.24 69.5709 39.76 69.6109 37.72H59.2909V35.28H72.7309ZM57.6109 49.96V47.44H63.1709V41.4H66.2909V47.44H74.0909V49.96H57.6109ZM95.9716 40.48V43.04H93.6916V51.88H90.5316V33.88H93.6916V40.48H95.9716ZM79.7316 47.6V35.56H82.8516V45.02C84.9716 44.94 87.2716 44.74 89.6516 44.28L89.9716 46.84C86.9916 47.46 83.9716 47.6 81.3716 47.6H79.7316ZM111.457 39.24V41.72H98.5367V34.64H101.657V39.24H111.457ZM96.5367 45.92V43.36H113.057V45.92H106.297V51.96H103.137V45.92H96.5367ZM120.862 38.4C120.842 41.08 121.902 44.24 125.102 45.68L123.382 48.12C121.422 47.26 120.122 45.64 119.322 43.68C118.542 45.86 117.202 47.66 115.142 48.6L113.342 46.12C116.602 44.64 117.682 41.32 117.702 38.4V38.08H114.102V35.56H124.222V38.08H120.862V38.4ZM125.102 51.96V33.88H128.262V40.52H130.702V43.12H128.262V51.96H125.102ZM135.467 48.48L133.667 54.2H131.187L132.067 48.48H135.467ZM149.581 35.4V37.92H144.541V45.16C146.781 45.12 148.521 45 150.381 44.68L150.661 47.16C148.301 47.64 146.141 47.72 142.901 47.68H141.381V35.4H149.581ZM148.821 42.48V39.92H152.861V33.88H155.981V52H152.861V42.48H148.821ZM172.306 33.88V38.12H174.546V40.68H172.306V44.8H169.146V33.88H172.306ZM157.826 37.76V35.32H161.586V33.8H164.706V35.32H168.506V37.76H157.826ZM158.586 41.36C158.586 39.46 160.466 38.1 163.146 38.12C165.806 38.1 167.666 39.46 167.666 41.36C167.666 43.3 165.786 44.64 163.146 44.64C160.466 44.64 158.586 43.3 158.586 41.36ZM160.226 51.76V45.4H172.306V51.76H160.226ZM161.666 41.36C161.666 42.08 162.246 42.38 163.146 42.36C164.066 42.38 164.686 42.08 164.706 41.36C164.686 40.7 164.066 40.42 163.146 40.44C162.246 40.42 161.666 40.7 161.666 41.36ZM163.346 49.28H169.186V47.84H163.346V49.28ZM179.991 35.84L179.631 45.6H176.591L176.231 35.84H179.991ZM176.231 48.32C176.211 47.28 177.071 46.46 178.111 46.44C179.111 46.46 180.011 47.28 180.031 48.32C180.011 49.38 179.111 50.22 178.111 50.2C177.071 50.22 176.211 49.38 176.231 48.32Z" fill="#1689F3"/>
<path d="M8.712 126.984C8.724 128.7 10.536 130.308 12.552 130.68L12.048 131.616C10.368 131.244 8.82 130.14 8.148 128.652C7.452 130.128 5.916 131.232 4.224 131.616L3.744 130.68C5.724 130.308 7.536 128.7 7.56 126.984V126.192H8.712V126.984ZM3.384 134.616V133.68H13.008V134.616H3.384ZM22.2031 126.504V127.8C22.2031 129.336 22.2031 130.764 21.7471 132.936L20.6431 132.84C20.8591 131.88 20.9791 131.04 21.0391 130.26L14.7391 130.584L14.5951 129.696L21.0991 129.42C21.1111 128.868 21.1231 128.328 21.1231 127.8V127.44H14.8831V126.504H22.2031ZM13.7551 134.592V133.68H23.3311V134.592H13.7551ZM33.7262 130.392V131.208H24.1262V130.392H28.3742V129.624H25.3502V127.296H31.3982V126.528H25.3262V125.76H32.5262V128.016H26.4542V128.832H32.6942V129.624H29.4782V130.392H33.7262ZM25.2542 132.72V131.904H32.5502V134.232H26.3822V135.096H32.8622V135.888H25.2782V133.488H31.4462V132.72H25.2542ZM39.6813 127.224V128.136H34.4733V127.224H36.5373V125.808H37.6413V127.224H39.6813ZM34.8093 131.184C34.8093 129.768 35.7693 128.76 37.0893 128.76C38.4213 128.76 39.3693 129.768 39.3693 131.184C39.3693 132.612 38.4213 133.62 37.0893 133.632C35.7693 133.62 34.8093 132.612 34.8093 131.184ZM35.7933 131.184C35.7933 132.072 36.3333 132.672 37.0893 132.672C37.8453 132.672 38.3853 132.072 38.3853 131.184C38.3853 130.308 37.8453 129.696 37.0893 129.696C36.3333 129.696 35.7933 130.308 35.7933 131.184ZM40.1853 135.504V125.736H41.2173V129.864H42.4413V125.496H43.4973V135.984H42.4413V130.776H41.2173V135.504H40.1853ZM48.6604 128.16C48.6604 130.092 49.7404 132 51.3484 132.72L50.6764 133.608C49.4764 133.02 48.5644 131.832 48.1084 130.392C47.6404 131.904 46.7284 133.188 45.5164 133.8L44.8204 132.912C46.4404 132.132 47.5204 130.116 47.5324 128.16V126.36H48.6604V128.16ZM50.1964 129.888V128.976H52.5244V125.496H53.6284V136.008H52.5244V129.888H50.1964ZM61.8412 127.656C61.8532 128.856 62.8012 129.984 64.4092 130.44L63.9052 131.28C62.6812 130.944 61.7812 130.2 61.3132 129.252C60.8452 130.296 59.9212 131.1 58.6732 131.496L58.1452 130.608C59.7532 130.152 60.7492 128.976 60.7372 127.656V127.536H58.4572V126.648H60.7372V125.448H61.8652V126.648H64.1212V127.536H61.8412V127.656ZM59.2012 135.096C60.9412 134.844 62.2852 133.98 62.4892 132.984H59.6092V132.072H66.5932V132.984H63.7132C63.9172 133.968 65.2612 134.844 67.0252 135.096L66.6172 135.96C65.0212 135.72 63.7012 134.988 63.0892 133.98C62.5012 134.976 61.1932 135.696 59.6092 135.936L59.2012 135.096ZM65.3212 131.568V125.496H66.4252V128.016H67.9372V128.928H66.4252V131.568H65.3212ZM71.3483 126.288C72.9323 126.288 74.0483 127.716 74.0603 129.96C74.0483 132.228 72.9323 133.656 71.3483 133.656C69.7883 133.656 68.6603 132.228 68.6843 129.96C68.6603 127.716 69.7883 126.288 71.3483 126.288ZM69.7402 129.96C69.7283 131.628 70.4003 132.66 71.3483 132.648C72.3323 132.66 72.9803 131.628 72.9803 129.96C72.9803 128.316 72.3323 127.284 71.3483 127.272C70.4003 127.284 69.7283 128.316 69.7402 129.96ZM75.6203 135.984V125.496H76.7243V129.6H78.4043V130.56H76.7243V135.984H75.6203ZM88.5353 133.776V134.688H78.9113V133.776H83.1353V131.616H80.0153V126.216H81.1193V128.016H86.2793V126.216H87.3833V131.616H84.2393V133.776H88.5353ZM81.1193 130.728H86.2793V128.928H81.1193V130.728ZM98.0184 125.496V135.984H96.8904V125.496H98.0184ZM89.3784 133.176C92.1864 131.856 93.5424 129.96 93.7584 127.512H89.9064V126.624H94.8984C94.8864 129.696 93.5784 132.36 89.9784 134.088L89.3784 133.176Z" fill="#737373"/>
<path d="M108.5 126C108.5 125.724 108.276 125.5 108 125.5C107.724 125.5 107.5 125.724 107.5 126L108.5 126ZM107.646 136.354C107.842 136.549 108.158 136.549 108.354 136.354L111.536 133.172C111.731 132.976 111.731 132.66 111.536 132.464C111.34 132.269 111.024 132.269 110.828 132.464L108 135.293L105.172 132.464C104.976 132.269 104.66 132.269 104.464 132.464C104.269 132.66 104.269 132.976 104.464 133.172L107.646 136.354ZM107.5 126L107.5 136L108.5 136L108.5 126L107.5 126Z" fill="#737373"/>
<g filter="url(#filter0_i_1337_3294)">
<path d="M337.086 55.12C334.202 63.3574 324.06 67.3028 314.432 63.9324C304.805 60.5621 299.338 51.1522 302.221 42.9148C305.105 34.6775 315.247 30.732 324.875 34.1024C334.503 37.4728 339.97 46.8827 337.086 55.12Z" fill="url(#paint1_linear_1337_3294)"/>
</g>
<g filter="url(#filter1_i_1337_3294)">
<path d="M333.776 55.1646C331.613 61.3444 323.405 64.0946 315.443 61.3075C307.481 58.5203 302.781 51.2512 304.944 45.0715C307.108 38.8917 315.316 36.1414 323.277 38.9286C331.239 41.7157 335.939 48.9848 333.776 55.1646Z" fill="url(#paint2_linear_1337_3294)"/>
</g>
<g filter="url(#filter2_f_1337_3294)">
<path d="M333.713 55.1633C332.871 57.57 330.069 58.7795 327.456 57.8647C324.843 56.95 323.408 54.2574 324.251 51.8508C325.093 49.4441 327.894 48.2346 330.507 49.1493C333.12 50.064 334.556 52.7566 333.713 55.1633Z" fill="url(#paint3_radial_1337_3294)"/>
</g>
<g filter="url(#filter3_f_1337_3294)">
<path d="M315.203 48.6835C314.361 51.0902 311.559 52.2997 308.946 51.3849C306.333 50.4702 304.898 47.7776 305.741 45.371C306.583 42.9643 309.384 41.7548 311.997 42.6695C314.61 43.5843 316.046 46.2768 315.203 48.6835Z" fill="url(#paint4_radial_1337_3294)"/>
</g>
<path d="M325.145 49.1787C324.938 49.7706 324.241 50.0652 323.589 49.8368C322.936 49.6083 322.575 48.9433 322.782 48.3514C322.989 47.7595 323.686 47.4649 324.339 47.6933C324.992 47.9218 325.353 48.5868 325.145 49.1787Z" fill="black"/>
<path d="M317.362 46.9838C317.153 47.5827 316.454 47.8831 315.801 47.6546C315.148 47.4262 314.789 46.7554 314.999 46.1565C315.209 45.5575 315.908 45.2572 316.56 45.4856C317.213 45.7141 317.572 46.3848 317.362 46.9838Z" fill="black"/>
<path fill-rule="evenodd" clip-rule="evenodd" d="M319.116 52.1583C318.032 51.9022 316.993 51.4687 316.287 51.1066C316.159 51.0412 316.116 50.8819 316.189 50.7585C316.258 50.6407 316.409 50.5995 316.53 50.662C317.2 51.0055 318.193 51.42 319.222 51.6631C320.276 51.9124 321.312 51.9683 322.083 51.6414C322.21 51.5875 322.361 51.621 322.44 51.7347C322.529 51.864 322.488 52.0429 322.344 52.1048C321.404 52.508 320.209 52.4167 319.116 52.1583Z" fill="black"/>
<path fill-rule="evenodd" clip-rule="evenodd" d="M322.164 51.7496C321.92 51.4426 321.837 51.0937 321.836 50.8055C321.835 50.6632 321.974 50.5754 322.122 50.6049C322.275 50.6353 322.377 50.7788 322.391 50.9254C322.408 51.0998 322.468 51.2919 322.599 51.4568C322.768 51.6684 323.086 51.8779 323.695 51.92C323.845 51.9304 323.976 52.0447 323.986 52.1881C323.996 52.329 323.886 52.445 323.738 52.4368C322.97 52.3946 322.464 52.1271 322.164 51.7496Z" fill="black"/>
<path d="M318.404 44.8694C318.2 45.0695 317.623 44.863 317.116 44.4082C316.61 43.9534 316.364 43.4225 316.569 43.2224C316.773 43.0223 317.35 43.2288 317.856 43.6836C318.363 44.1384 318.608 44.6693 318.404 44.8694Z" fill="black"/>
<path d="M325.372 45.7736C325.417 46.0567 324.905 46.3354 324.228 46.396C323.551 46.4566 322.966 46.2762 322.921 45.993C322.876 45.7099 323.388 45.4312 324.065 45.3706C324.742 45.31 325.327 45.4904 325.372 45.7736Z" fill="black"/>
<g filter="url(#filter4_i_1337_3294)">
<path fill-rule="evenodd" clip-rule="evenodd" d="M317.282 33.5739C315.423 34.4688 314.642 36.7012 315.537 38.56C316.432 40.4189 318.664 41.2004 320.523 40.3055L323.095 39.0671L324.33 41.6307C325.224 43.4896 327.457 44.2711 329.316 43.3762C331.175 42.4814 331.956 40.249 331.061 38.3901L329.827 35.8265L332.4 34.5879C334.168 33.7369 334.928 31.4005 334.148 29.6007C333.291 27.6254 331.1 26.9223 329.159 27.8563L326.586 29.0949L325.342 26.5109C324.448 24.652 322.215 23.8705 320.356 24.7654C318.497 25.6602 317.716 27.8926 318.611 29.7515L319.855 32.3355L317.282 33.5739Z" fill="url(#paint5_linear_1337_3294)"/>
</g>
<g filter="url(#filter5_i_1337_3294)">
<path d="M297.948 74.8857C297.948 89.674 283.937 101.662 266.652 101.662C249.368 101.662 235.357 89.674 235.357 74.8857C235.357 60.0975 249.368 48.1093 266.652 48.1093C283.937 48.1093 297.948 60.0975 297.948 74.8857Z" fill="url(#paint6_linear_1337_3294)"/>
</g>
<g filter="url(#filter6_i_1337_3294)">
<path d="M292.679 76.8101C292.679 87.9045 281.093 96.8982 266.799 96.8982C252.506 96.8982 240.919 87.9045 240.919 76.8101C240.919 65.7158 252.506 56.722 266.799 56.722C281.093 56.722 292.679 65.7158 292.679 76.8101Z" fill="url(#paint7_linear_1337_3294)"/>
</g>
<g filter="url(#filter7_f_1337_3294)">
<path d="M292.578 76.8433C292.578 81.164 288.775 84.6666 284.084 84.6666C279.393 84.6666 275.59 81.164 275.59 76.8433C275.59 72.5227 279.393 69.0201 284.084 69.0201C288.775 69.0201 292.578 72.5227 292.578 76.8433Z" fill="url(#paint8_radial_1337_3294)"/>
</g>
<g filter="url(#filter8_f_1337_3294)">
<path d="M259.348 76.8433C259.348 81.164 255.545 84.6666 250.854 84.6666C246.163 84.6666 242.36 81.164 242.36 76.8433C242.36 72.5227 246.163 69.0201 250.854 69.0201C255.545 69.0201 259.348 72.5227 259.348 76.8433Z" fill="url(#paint9_radial_1337_3294)"/>
</g>
<path d="M275.525 72.069C275.525 73.1316 274.576 73.993 273.404 73.993C272.233 73.993 271.283 73.1316 271.283 72.069C271.283 71.0063 272.233 70.1449 273.404 70.1449C274.576 70.1449 275.525 71.0063 275.525 72.069Z" fill="black"/>
<path d="M261.849 72.9162C261.849 73.9915 260.899 74.8632 259.728 74.8632C258.556 74.8632 257.607 73.9915 257.607 72.9162C257.607 71.8409 258.556 70.9692 259.728 70.9692C260.899 70.9692 261.849 71.8409 261.849 72.9162Z" fill="black"/>
<path fill-rule="evenodd" clip-rule="evenodd" d="M267.55 80.2101C265.673 80.4073 263.769 80.2956 262.437 80.1117C262.197 80.0785 262.038 79.8481 262.086 79.61C262.131 79.3827 262.348 79.2327 262.578 79.2644C263.841 79.4389 265.661 79.5459 267.442 79.3588C269.269 79.167 270.957 78.6763 272.006 77.7223C272.179 77.5649 272.44 77.5336 272.629 77.6715C272.845 77.8282 272.879 78.1372 272.683 78.317C271.406 79.488 269.443 80.0113 267.55 80.2101Z" fill="black"/>
<path fill-rule="evenodd" clip-rule="evenodd" d="M272.196 77.8499C271.634 77.4956 271.307 76.9837 271.143 76.5238C271.062 76.2966 271.236 76.0781 271.489 76.0425C271.75 76.0058 271.994 76.1779 272.098 76.4047C272.222 76.6743 272.427 76.9475 272.729 77.1378C273.117 77.382 273.743 77.5388 274.741 77.2652C274.987 77.1976 275.26 77.307 275.357 77.5307C275.452 77.7506 275.339 77.998 275.098 78.0678C273.848 78.4299 272.888 78.2857 272.196 77.8499Z" fill="black"/>
<path d="M262.331 68.9515C262.117 69.3859 261.079 69.3785 260.014 68.9349C258.949 68.4913 258.26 67.7794 258.474 67.345C258.689 66.9105 259.727 66.918 260.792 67.3616C261.857 67.8052 262.546 68.517 262.331 68.9515Z" fill="black"/>
<path d="M273.981 66.4964C274.212 66.9241 273.549 67.6565 272.5 68.1323C271.452 68.6082 270.415 68.6472 270.185 68.2196C269.954 67.7919 270.617 67.0595 271.666 66.5836C272.714 66.1078 273.751 66.0688 273.981 66.4964Z" fill="black"/>
<g filter="url(#filter9_i_1337_3294)">
<path fill-rule="evenodd" clip-rule="evenodd" d="M254.214 51.5149C251.742 53.9868 251.742 57.9945 254.214 60.4663C256.686 62.9382 260.693 62.9382 263.165 60.4663L266.586 57.0455L269.995 60.4545C272.467 62.9263 276.474 62.9263 278.946 60.4545C281.418 57.9826 281.418 53.9749 278.946 51.5031L275.537 48.0941L278.959 44.6726C281.309 42.3221 281.218 38.1597 278.962 35.7184C276.485 33.0389 272.587 33.1414 270.007 35.7212L266.586 39.1427L263.15 35.7065C260.678 33.2347 256.67 33.2347 254.198 35.7065C251.726 38.1784 251.726 42.186 254.198 44.6579L257.635 48.0941L254.214 51.5149Z" fill="url(#paint10_linear_1337_3294)"/>
</g>
<path d="M1 174.5L351 174.5" stroke="#F5F5F5" stroke-linecap="round"/>
<defs>
<filter id="filter0_i_1337_3294" x="301.451" y="32.898" width="36.4047" height="36.3813" filterUnits="userSpaceOnUse" color-interpolation-filters="sRGB">
<feFlood flood-opacity="0" result="BackgroundImageFix"/>
<feBlend mode="normal" in="SourceGraphic" in2="BackgroundImageFix" result="shape"/>
<feColorMatrix in="SourceAlpha" type="matrix" values="0 0 0 0 0 0 0 0 0 0 0 0 0 0 0 0 0 0 127 0" result="hardAlpha"/>
<feOffset dy="5.59236"/>
<feGaussianBlur stdDeviation="2.07124"/>
<feComposite in2="hardAlpha" operator="arithmetic" k2="-1" k3="1"/>
<feColorMatrix type="matrix" values="0 0 0 0 1 0 0 0 0 1 0 0 0 0 1 0 0 0 0.57 0"/>
<feBlend mode="lighten" in2="shape" result="effect1_innerShadow_1337_3294"/>
</filter>
<filter id="filter1_i_1337_3294" x="304.418" y="37.8401" width="29.8844" height="26.8134" filterUnits="userSpaceOnUse" color-interpolation-filters="sRGB">
<feFlood flood-opacity="0" result="BackgroundImageFix"/>
<feBlend mode="normal" in="SourceGraphic" in2="BackgroundImageFix" result="shape"/>
<feColorMatrix in="SourceAlpha" type="matrix" values="0 0 0 0 0 0 0 0 0 0 0 0 0 0 0 0 0 0 127 0" result="hardAlpha"/>
<feOffset dy="3.10687"/>
<feGaussianBlur stdDeviation="1.12883"/>
<feComposite in2="hardAlpha" operator="arithmetic" k2="-1" k3="1"/>
<feColorMatrix type="matrix" values="0 0 0 0 1 0 0 0 0 0.618667 0 0 0 0 0.404167 0 0 0 0.79 0"/>
<feBlend mode="normal" in2="shape" result="effect1_innerShadow_1337_3294"/>
</filter>
<filter id="filter2_f_1337_3294" x="318.645" y="43.4794" width="20.6739" height="20.0552" filterUnits="userSpaceOnUse" color-interpolation-filters="sRGB">
<feFlood flood-opacity="0" result="BackgroundImageFix"/>
<feBlend mode="normal" in="SourceGraphic" in2="BackgroundImageFix" result="shape"/>
<feGaussianBlur stdDeviation="2.68226" result="effect1_foregroundBlur_1337_3294"/>
</filter>
<filter id="filter3_f_1337_3294" x="300.135" y="36.9996" width="20.6739" height="20.0552" filterUnits="userSpaceOnUse" color-interpolation-filters="sRGB">
<feFlood flood-opacity="0" result="BackgroundImageFix"/>
<feBlend mode="normal" in="SourceGraphic" in2="BackgroundImageFix" result="shape"/>
<feGaussianBlur stdDeviation="2.68226" result="effect1_foregroundBlur_1337_3294"/>
</filter>
<filter id="filter4_i_1337_3294" x="315.166" y="24.3948" width="19.2872" height="20.1805" filterUnits="userSpaceOnUse" color-interpolation-filters="sRGB">
<feFlood flood-opacity="0" result="BackgroundImageFix"/>
<feBlend mode="normal" in="SourceGraphic" in2="BackgroundImageFix" result="shape"/>
<feColorMatrix in="SourceAlpha" type="matrix" values="0 0 0 0 0 0 0 0 0 0 0 0 0 0 0 0 0 0 127 0" result="hardAlpha"/>
<feOffset dy="0.828498"/>
<feGaussianBlur stdDeviation="1.88483"/>
<feComposite in2="hardAlpha" operator="arithmetic" k2="-1" k3="1"/>
<feColorMatrix type="matrix" values="0 0 0 0 1 0 0 0 0 1 0 0 0 0 1 0 0 0 1 0"/>
<feBlend mode="lighten" in2="shape" result="effect1_innerShadow_1337_3294"/>
</filter>
<filter id="filter5_i_1337_3294" x="235.357" y="48.1093" width="62.5917" height="57.6955" filterUnits="userSpaceOnUse" color-interpolation-filters="sRGB">
<feFlood flood-opacity="0" result="BackgroundImageFix"/>
<feBlend mode="normal" in="SourceGraphic" in2="BackgroundImageFix" result="shape"/>
<feColorMatrix in="SourceAlpha" type="matrix" values="0 0 0 0 0 0 0 0 0 0 0 0 0 0 0 0 0 0 127 0" result="hardAlpha"/>
<feOffset dy="5.59236"/>
<feGaussianBlur stdDeviation="2.07124"/>
<feComposite in2="hardAlpha" operator="arithmetic" k2="-1" k3="1"/>
<feColorMatrix type="matrix" values="0 0 0 0 1 0 0 0 0 1 0 0 0 0 1 0 0 0 0.57 0"/>
<feBlend mode="lighten" in2="shape" result="effect1_innerShadow_1337_3294"/>
</filter>
<filter id="filter6_i_1337_3294" x="240.919" y="56.722" width="51.7604" height="42.4338" filterUnits="userSpaceOnUse" color-interpolation-filters="sRGB">
<feFlood flood-opacity="0" result="BackgroundImageFix"/>
<feBlend mode="normal" in="SourceGraphic" in2="BackgroundImageFix" result="shape"/>
<feColorMatrix in="SourceAlpha" type="matrix" values="0 0 0 0 0 0 0 0 0 0 0 0 0 0 0 0 0 0 127 0" result="hardAlpha"/>
<feOffset dy="3.10687"/>
<feGaussianBlur stdDeviation="1.12883"/>
<feComposite in2="hardAlpha" operator="arithmetic" k2="-1" k3="1"/>
<feColorMatrix type="matrix" values="0 0 0 0 1 0 0 0 0 0.618667 0 0 0 0 0.404167 0 0 0 0.79 0"/>
<feBlend mode="normal" in2="shape" result="effect1_innerShadow_1337_3294"/>
</filter>
<filter id="filter7_f_1337_3294" x="270.226" y="63.6556" width="27.7167" height="26.3756" filterUnits="userSpaceOnUse" color-interpolation-filters="sRGB">
<feFlood flood-opacity="0" result="BackgroundImageFix"/>
<feBlend mode="normal" in="SourceGraphic" in2="BackgroundImageFix" result="shape"/>
<feGaussianBlur stdDeviation="2.68226" result="effect1_foregroundBlur_1337_3294"/>
</filter>
<filter id="filter8_f_1337_3294" x="236.995" y="63.6556" width="27.7167" height="26.3756" filterUnits="userSpaceOnUse" color-interpolation-filters="sRGB">
<feFlood flood-opacity="0" result="BackgroundImageFix"/>
<feBlend mode="normal" in="SourceGraphic" in2="BackgroundImageFix" result="shape"/>
<feGaussianBlur stdDeviation="2.68226" result="effect1_foregroundBlur_1337_3294"/>
</filter>
<filter id="filter9_i_1337_3294" x="252.344" y="33.7474" width="28.4557" height="29.4013" filterUnits="userSpaceOnUse" color-interpolation-filters="sRGB">
<feFlood flood-opacity="0" result="BackgroundImageFix"/>
<feBlend mode="normal" in="SourceGraphic" in2="BackgroundImageFix" result="shape"/>
<feColorMatrix in="SourceAlpha" type="matrix" values="0 0 0 0 0 0 0 0 0 0 0 0 0 0 0 0 0 0 127 0" result="hardAlpha"/>
<feOffset dy="0.828498"/>
<feGaussianBlur stdDeviation="1.88483"/>
<feComposite in2="hardAlpha" operator="arithmetic" k2="-1" k3="1"/>
<feColorMatrix type="matrix" values="0 0 0 0 1 0 0 0 0 1 0 0 0 0 1 0 0 0 1 0"/>
<feBlend mode="lighten" in2="shape" result="effect1_innerShadow_1337_3294"/>
</filter>
<radialGradient id="paint0_radial_1337_3294" cx="0" cy="0" r="1" gradientUnits="userSpaceOnUse" gradientTransform="translate(175 80) rotate(90) scale(80 175)">
<stop offset="0.42" stop-color="#E8F4FE"/>
<stop offset="1" stop-color="white"/>
</radialGradient>
<linearGradient id="paint1_linear_1337_3294" x1="335.421" y1="43.9261" x2="311.774" y2="71.7338" gradientUnits="userSpaceOnUse">
<stop offset="0.424602" stop-color="#FFE16F"/>
<stop offset="0.85" stop-color="#FFA450"/>
</linearGradient>
<linearGradient id="paint2_linear_1337_3294" x1="323.277" y1="38.9286" x2="307.48" y2="55.7747" gradientUnits="userSpaceOnUse">
<stop offset="0.674468" stop-color="#FFFBEE"/>
<stop offset="1" stop-color="#FBD5A9"/>
</linearGradient>
<radialGradient id="paint3_radial_1337_3294" cx="0" cy="0" r="1" gradientUnits="userSpaceOnUse" gradientTransform="translate(328.982 53.507) rotate(109.294) scale(3.78839 3.77503)">
<stop offset="0.52" stop-color="#FFB6B6"/>
<stop offset="1" stop-color="#FFFCEE"/>
</radialGradient>
<radialGradient id="paint4_radial_1337_3294" cx="0" cy="0" r="1" gradientUnits="userSpaceOnUse" gradientTransform="translate(310.472 47.0272) rotate(109.294) scale(3.78839 3.77503)">
<stop offset="0.52" stop-color="#FFB6B6"/>
<stop offset="1" stop-color="#FFFCEE"/>
</radialGradient>
<linearGradient id="paint5_linear_1337_3294" x1="332.577" y1="32.1671" x2="319.379" y2="40.379" gradientUnits="userSpaceOnUse">
<stop stop-color="#FFC8B0"/>
<stop offset="0.41" stop-color="#FF9E9E"/>
<stop offset="1" stop-color="#FF8D69"/>
</linearGradient>
<linearGradient id="paint6_linear_1337_3294" x1="289.019" y1="57.9157" x2="266.768" y2="115.627" gradientUnits="userSpaceOnUse">
<stop offset="0.424602" stop-color="#FFE16F"/>
<stop offset="0.85" stop-color="#FFA450"/>
</linearGradient>
<linearGradient id="paint7_linear_1337_3294" x1="266.799" y1="56.722" x2="250.967" y2="92.5079" gradientUnits="userSpaceOnUse">
<stop offset="0.674468" stop-color="#FFFBEE"/>
<stop offset="1" stop-color="#FBD5A9"/>
</linearGradient>
<radialGradient id="paint8_radial_1337_3294" cx="0" cy="0" r="1" gradientUnits="userSpaceOnUse" gradientTransform="translate(284.084 76.8433) rotate(90) scale(6.41921 6.39657)">
<stop offset="0.52" stop-color="#FFB6B6"/>
<stop offset="1" stop-color="#FFFCEE"/>
</radialGradient>
<radialGradient id="paint9_radial_1337_3294" cx="0" cy="0" r="1" gradientUnits="userSpaceOnUse" gradientTransform="translate(250.854 76.8433) rotate(90) scale(6.41921 6.39657)">
<stop offset="0.52" stop-color="#FFB6B6"/>
<stop offset="1" stop-color="#FFFCEE"/>
</radialGradient>
<linearGradient id="paint10_linear_1337_3294" x1="277.887" y1="40.7022" x2="261.377" y2="61.2243" gradientUnits="userSpaceOnUse">
<stop stop-color="#FFC8B0"/>
<stop offset="0.41" stop-color="#FF9E9E"/>
<stop offset="1" stop-color="#FF8D69"/>
</linearGradient>
</defs>
</svg>
