<svg width="29" height="24" viewBox="0 0 29 24" fill="none" xmlns="http://www.w3.org/2000/svg">
<path d="M25.4637 4.17057H23.4142C22.9246 4.17057 22.4585 3.9362 22.1655 3.54557L20.2879 1.04297C19.7983 0.390635 19.0197 0.00130177 18.2046 0.00130177L9.86457 0C9.04947 0 8.27083 0.389333 7.77993 1.04167L5.90233 3.54427C5.60936 3.9349 5.14323 4.16927 4.65363 4.16927H2.60417C1.16797 4.16927 0 5.33853 0 6.77343V21.2941C0 22.729 1.16797 23.8983 2.60417 23.8983H25.4635C26.8997 23.8983 28.0677 22.729 28.0677 21.2941V6.77443C28.0677 5.33953 26.8997 4.17027 25.4635 4.17027L25.4637 4.17057ZM27.0262 21.2956C27.0262 22.1575 26.3256 22.8581 25.4637 22.8581H2.60433C1.74237 22.8581 1.04183 22.1575 1.04183 21.2956V6.7749C1.04183 5.91294 1.74237 5.2124 2.60433 5.2124H4.6538C5.4689 5.2124 6.24753 4.82307 6.73713 4.17074L8.61343 1.66814C8.9077 1.2762 9.37517 1.04314 9.86473 1.04314H18.2047C18.6943 1.04314 19.1618 1.27621 19.4547 1.66814L21.3323 4.17074C21.8219 4.82307 22.6006 5.2124 23.4157 5.2124H25.4651C26.3271 5.2124 27.0276 5.91294 27.0276 6.7749V21.2956H27.0262Z" fill="#949494"/>
<path d="M14.0338 7.40887C10.759 7.40887 8.09644 10.0729 8.09644 13.3462C8.09644 16.6195 10.7605 19.2835 14.0338 19.2835C17.307 19.2835 19.9711 16.6195 19.9711 13.3462C19.9711 10.0729 17.307 7.40887 14.0338 7.40887ZM14.0338 18.2422C11.3332 18.2422 9.13777 16.0469 9.13777 13.3462C9.13777 10.6455 11.3331 8.45021 14.0338 8.45021C16.7345 8.45021 18.9298 10.6455 18.9298 13.3462C18.9298 16.0469 16.7345 18.2422 14.0338 18.2422Z" fill="#949494"/>
</svg>
