<svg width="45" height="37" viewBox="0 0 45 37" fill="none" xmlns="http://www.w3.org/2000/svg">
<g filter="url(#filter0_d_1177_506)">
<path fill-rule="evenodd" clip-rule="evenodd" d="M9.09971 19.6957C6.85913 17.711 5.45799 14.8815 5.45799 11.7411C5.45799 5.73674 10.5797 0.869263 16.8977 0.869263C23.2157 0.869263 28.3375 5.73674 28.3375 11.7411C28.3375 17.7454 23.2157 22.6129 16.8977 22.6129C15.7137 22.6129 14.5718 22.4419 13.4976 22.1246L10.1306 23.991C9.15694 24.5308 8.0134 23.6285 8.31006 22.5545L9.09971 19.6957Z" fill="white"/>
<path d="M9.09971 19.6957L9.52741 19.2128L9.82859 19.4796L9.72147 19.8674L9.09971 19.6957ZM13.4976 22.1246L13.1849 21.5605L13.4212 21.4295L13.6804 21.506L13.4976 22.1246ZM10.1306 23.991L9.81792 23.4269L10.1306 23.991ZM8.31006 22.5545L7.6883 22.3827V22.3827L8.31006 22.5545ZM6.10303 11.7411C6.10303 14.6835 7.41467 17.3414 9.52741 19.2128L8.67201 20.1785C6.30359 18.0806 4.81296 15.0796 4.81296 11.7411H6.10303ZM16.8977 1.5143C10.9046 1.5143 6.10303 6.12354 6.10303 11.7411H4.81296C4.81296 5.34994 10.2548 0.224225 16.8977 0.224225V1.5143ZM27.6924 11.7411C27.6924 6.12354 22.8908 1.5143 16.8977 1.5143V0.224225C23.5406 0.224225 28.9825 5.34994 28.9825 11.7411H27.6924ZM16.8977 21.9678C22.8908 21.9678 27.6924 17.3586 27.6924 11.7411H28.9825C28.9825 18.1322 23.5406 23.2579 16.8977 23.2579V21.9678ZM13.6804 21.506C14.6956 21.8059 15.776 21.9678 16.8977 21.9678V23.2579C15.6514 23.2579 14.4479 23.078 13.3149 22.7432L13.6804 21.506ZM13.8103 22.6888L10.4434 24.5552L9.81792 23.4269L13.1849 21.5605L13.8103 22.6888ZM10.4434 24.5552C8.96783 25.3731 7.24002 24.0057 7.6883 22.3827L8.93181 22.7262C8.78679 23.2513 9.34606 23.6884 9.81792 23.4269L10.4434 24.5552ZM7.6883 22.3827L8.47796 19.524L9.72147 19.8674L8.93181 22.7262L7.6883 22.3827Z" fill="black"/>
<path fill-rule="evenodd" clip-rule="evenodd" d="M35.6512 23.0815C37.9935 21.006 39.4581 18.0476 39.4581 14.764C39.4581 8.48468 34.1018 3.39429 27.4945 3.39429C20.8871 3.39429 15.5308 8.48468 15.5308 14.764C15.5308 21.0433 20.8871 26.1337 27.4945 26.1337C28.7331 26.1337 29.9277 25.9548 31.0513 25.6228L34.6934 27.6417C35.6671 28.1814 36.8106 27.2791 36.514 26.2051L35.6512 23.0815Z" fill="white"/>
<path d="M35.6512 23.0815L35.2234 22.5987L34.9223 22.8655L35.0294 23.2533L35.6512 23.0815ZM31.0513 25.6228L31.3641 25.0586L31.1277 24.9276L30.8685 25.0042L31.0513 25.6228ZM34.6934 27.6417L35.0061 27.0775H35.0061L34.6934 27.6417ZM36.514 26.2051L35.8922 26.3769L36.514 26.2051ZM38.8131 14.764C38.8131 17.8495 37.4379 20.6365 35.2234 22.5987L36.079 23.5643C38.549 21.3756 40.1031 18.2456 40.1031 14.764H38.8131ZM27.4945 4.03933C33.7769 4.03933 38.8131 8.87148 38.8131 14.764H40.1031C40.1031 8.09788 34.4267 2.74925 27.4945 2.74925V4.03933ZM16.1759 14.764C16.1759 8.87148 21.212 4.03933 27.4945 4.03933V2.74925C20.5622 2.74925 14.8858 8.09788 14.8858 14.764H16.1759ZM27.4945 25.4887C21.212 25.4887 16.1759 20.6565 16.1759 14.764H14.8858C14.8858 21.4301 20.5622 26.7787 27.4945 26.7787V25.4887ZM30.8685 25.0042C29.8038 25.3188 28.6707 25.4887 27.4945 25.4887V26.7787C28.7954 26.7787 30.0516 26.5908 31.2341 26.2414L30.8685 25.0042ZM30.7386 26.1869L34.3806 28.2058L35.0061 27.0775L31.3641 25.0586L30.7386 26.1869ZM34.3806 28.2058C35.8562 29.0238 37.584 27.6563 37.1357 26.0334L35.8922 26.3769C36.0372 26.9019 35.478 27.3391 35.0061 27.0775L34.3806 28.2058ZM37.1357 26.0334L36.2729 22.9098L35.0294 23.2533L35.8922 26.3769L37.1357 26.0334Z" fill="black"/>
<ellipse cx="23.087" cy="14.7657" rx="1.25933" ry="1.2633" fill="black"/>
<ellipse cx="28.1241" cy="14.7657" rx="1.25933" ry="1.2633" fill="black"/>
<ellipse cx="33.1603" cy="14.7657" rx="1.25933" ry="1.2633" fill="black"/>
</g>
<defs>
<filter id="filter0_d_1177_506" x="0.812927" y="0.224243" width="43.2902" height="36.2257" filterUnits="userSpaceOnUse" color-interpolation-filters="sRGB">
<feFlood flood-opacity="0" result="BackgroundImageFix"/>
<feColorMatrix in="SourceAlpha" type="matrix" values="0 0 0 0 0 0 0 0 0 0 0 0 0 0 0 0 0 0 127 0" result="hardAlpha"/>
<feOffset dy="4"/>
<feGaussianBlur stdDeviation="2"/>
<feComposite in2="hardAlpha" operator="out"/>
<feColorMatrix type="matrix" values="0 0 0 0 0 0 0 0 0 0 0 0 0 0 0 0 0 0 0.25 0"/>
<feBlend mode="normal" in2="BackgroundImageFix" result="effect1_dropShadow_1177_506"/>
<feBlend mode="normal" in="SourceGraphic" in2="effect1_dropShadow_1177_506" result="shape"/>
</filter>
</defs>
</svg>
