<svg width="37" height="29" viewBox="0 0 37 29" fill="none" xmlns="http://www.w3.org/2000/svg">
<path fill-rule="evenodd" clip-rule="evenodd" d="M5.09965 20.1258C2.85907 18.1361 1.45793 15.2995 1.45793 12.1512C1.45793 6.13169 6.57968 1.25195 12.8977 1.25195C19.2157 1.25195 24.3374 6.13169 24.3374 12.1512C24.3374 18.1706 19.2157 23.0504 12.8977 23.0504C11.7137 23.0504 10.5717 22.879 9.49756 22.5609L6.1313 24.4316C5.15823 24.9723 4.0132 24.069 4.30934 22.9942L5.09965 20.1258Z" fill="#1689F3"/>
<path d="M5.09965 20.1258L5.52796 19.6435L5.82817 19.9101L5.72152 20.2972L5.09965 20.1258ZM9.49756 22.5609L9.18423 21.997L9.421 21.8655L9.68073 21.9424L9.49756 22.5609ZM6.1313 24.4316L5.81797 23.8678L6.1313 24.4316ZM4.30934 22.9942L4.93121 23.1655V23.1655L4.30934 22.9942ZM2.10297 12.1512C2.10297 15.1021 3.41511 17.7673 5.52796 19.6435L4.67135 20.6081C2.30302 18.505 0.812895 15.497 0.812895 12.1512H2.10297ZM12.8977 1.89699C6.90615 1.89699 2.10297 6.517 2.10297 12.1512H0.812895C0.812895 5.74638 6.25321 0.606915 12.8977 0.606915V1.89699ZM23.6924 12.1512C23.6924 6.517 18.8892 1.89699 12.8977 1.89699V0.606915C19.5421 0.606915 24.9824 5.74638 24.9824 12.1512H23.6924ZM12.8977 22.4053C18.8892 22.4053 23.6924 17.7853 23.6924 12.1512H24.9824C24.9824 18.5559 19.5421 23.6954 12.8977 23.6954V22.4053ZM9.68073 21.9424C10.6958 22.243 11.7761 22.4053 12.8977 22.4053V23.6954C11.6512 23.6954 10.4476 23.515 9.31438 23.1793L9.68073 21.9424ZM9.81089 23.1247L6.44463 24.9954L5.81797 23.8678L9.18423 21.997L9.81089 23.1247ZM6.44463 24.9954C4.9684 25.8158 3.24049 24.4452 3.68748 22.8229L4.93121 23.1655C4.78592 23.6928 5.34806 24.1289 5.81797 23.8678L6.44463 24.9954ZM3.68748 22.8229L4.47779 19.9545L5.72152 20.2972L4.93121 23.1655L3.68748 22.8229Z" fill="black"/>
<path fill-rule="evenodd" clip-rule="evenodd" d="M31.6511 23.5202C33.9934 21.4395 35.458 18.4735 35.458 15.1817C35.458 8.88656 30.1017 3.78335 23.4944 3.78335C16.8871 3.78335 11.5308 8.88656 11.5308 15.1817C11.5308 21.4768 16.8871 26.58 23.4944 26.58C24.733 26.58 25.9276 26.4007 27.0513 26.0678L30.6926 28.0914C31.6657 28.6322 32.8107 27.7288 32.5146 26.654L31.6511 23.5202Z" fill="white"/>
<path d="M31.6511 23.5202L31.2227 23.0379L30.9226 23.3045L31.0292 23.6915L31.6511 23.5202ZM27.0513 26.0678L27.3646 25.504L27.1278 25.3724L26.868 25.4494L27.0513 26.0678ZM30.6926 28.0914L30.3793 28.6552L30.6926 28.0914ZM32.5146 26.654L33.1364 26.4827L32.5146 26.654ZM34.813 15.1817C34.813 18.2761 33.4373 21.0706 31.2227 23.0379L32.0795 24.0024C34.5495 21.8083 36.1031 18.671 36.1031 15.1817H34.813ZM23.4944 4.42839C29.7753 4.42839 34.813 9.27187 34.813 15.1817H36.1031C36.1031 8.50125 30.4282 3.13831 23.4944 3.13831V4.42839ZM12.1758 15.1817C12.1758 9.27187 17.2135 4.42839 23.4944 4.42839V3.13831C16.5606 3.13831 10.8857 8.50125 10.8857 15.1817H12.1758ZM23.4944 25.935C17.2135 25.935 12.1758 21.0915 12.1758 15.1817H10.8857C10.8857 21.8621 16.5606 27.2251 23.4944 27.2251V25.935ZM26.868 25.4494C25.8035 25.7648 24.6705 25.935 23.4944 25.935V27.2251C24.7955 27.2251 26.0518 27.0367 27.2345 26.6863L26.868 25.4494ZM26.7379 26.6316L30.3793 28.6552L31.0059 27.5276L27.3646 25.504L26.7379 26.6316ZM30.3793 28.6552C31.8555 29.4756 33.5834 28.105 33.1364 26.4827L31.8927 26.8254C32.038 27.3527 31.4758 27.7887 31.0059 27.5276L30.3793 28.6552ZM33.1364 26.4827L32.273 23.3488L31.0292 23.6915L31.8927 26.8254L33.1364 26.4827Z" fill="black"/>
<ellipse cx="19.087" cy="15.1835" rx="1.25933" ry="1.26648" fill="black"/>
<ellipse cx="24.1241" cy="15.1835" rx="1.25933" ry="1.26648" fill="black"/>
<ellipse cx="29.1602" cy="15.1835" rx="1.25933" ry="1.26648" fill="black"/>
</svg>
