<svg width="30" height="29" viewBox="0 0 30 29" fill="none" xmlns="http://www.w3.org/2000/svg">
<path fill-rule="evenodd" clip-rule="evenodd" d="M15.212 1.57861L28.6795 15.1363C28.8854 15.3436 29.001 15.6239 29.001 15.916V22.187V27.1419C29.001 27.7529 28.5057 28.2482 27.8946 28.2482H24.1314H18.5709V22.8264C18.5709 22.8097 18.5701 22.7933 18.5683 22.7771C18.5701 22.7237 18.5709 22.6701 18.5709 22.6163C18.5709 20.3036 16.9358 18.4289 14.9188 18.4289C12.9017 18.4289 11.2666 20.3036 11.2666 22.6163C11.2666 22.6701 11.2675 22.7237 11.2692 22.7771C11.2675 22.7933 11.2666 22.8097 11.2666 22.8264V28.2482H2.10731C1.4963 28.2482 1.00098 27.7529 1.00098 27.1419V15.8881C1.00098 15.6126 1.10379 15.347 1.28929 15.1433L13.6091 1.61342C14.0352 1.14555 14.7661 1.12968 15.212 1.57861Z" fill="#1689F3"/>
<path d="M28.6795 15.1363L28.2219 15.5909L28.6795 15.1363ZM15.212 1.57861L14.7544 2.03319L15.212 1.57861ZM18.5709 28.2482H17.9259V28.8932H18.5709V28.2482ZM18.5683 22.7771L17.9236 22.7558L17.9221 22.8011L17.927 22.8462L18.5683 22.7771ZM11.2692 22.7771L11.9106 22.8462L11.9154 22.8011L11.9139 22.7558L11.2692 22.7771ZM11.2666 28.2482V28.8932H11.9116V28.2482H11.2666ZM1.28929 15.1433L1.76623 15.5776L1.28929 15.1433ZM13.6091 1.61342L13.1322 1.17914V1.17914L13.6091 1.61342ZM29.1372 14.6817L15.6697 1.12402L14.7544 2.03319L28.2219 15.5909L29.1372 14.6817ZM29.646 15.916C29.646 15.4535 29.4631 15.0098 29.1372 14.6817L28.2219 15.5909C28.3078 15.6773 28.3559 15.7942 28.3559 15.916H29.646ZM29.646 22.187V15.916H28.3559V22.187H29.646ZM29.646 27.1419V22.187H28.3559V27.1419H29.646ZM27.8946 28.8932C28.8619 28.8932 29.646 28.1091 29.646 27.1419H28.3559C28.3559 27.3966 28.1494 27.6032 27.8946 27.6032V28.8932ZM24.1314 28.8932H27.8946V27.6032H24.1314V28.8932ZM18.5709 28.8932H24.1314V27.6032H18.5709V28.8932ZM19.216 28.2482V22.8264H17.9259V28.2482H19.216ZM19.216 22.8264C19.216 22.7866 19.2138 22.7471 19.2096 22.708L17.927 22.8462C17.9263 22.8395 17.9259 22.8329 17.9259 22.8264H19.216ZM19.213 22.7983C19.215 22.7379 19.216 22.6772 19.216 22.6163H17.9259C17.9259 22.663 17.9251 22.7095 17.9236 22.7558L19.213 22.7983ZM19.216 22.6163C19.216 20.033 17.3721 17.7838 14.9188 17.7838V19.0739C16.4996 19.0739 17.9259 20.5742 17.9259 22.6163H19.216ZM14.9188 17.7838C12.4655 17.7838 10.6216 20.033 10.6216 22.6163H11.9116C11.9116 20.5742 13.338 19.0739 14.9188 19.0739V17.7838ZM10.6216 22.6163C10.6216 22.6772 10.6226 22.7379 10.6246 22.7983L11.9139 22.7558C11.9124 22.7095 11.9116 22.663 11.9116 22.6163H10.6216ZM10.6279 22.708C10.6237 22.7471 10.6216 22.7866 10.6216 22.8264H11.9116C11.9116 22.8329 11.9113 22.8395 11.9106 22.8462L10.6279 22.708ZM10.6216 22.8264V28.2482H11.9116V22.8264H10.6216ZM2.10731 28.8932H11.2666V27.6032H2.10731V28.8932ZM0.355938 27.1419C0.355938 28.1091 1.14005 28.8932 2.10731 28.8932V27.6032C1.85254 27.6032 1.64601 27.3966 1.64601 27.1419H0.355938ZM0.355938 15.8881V27.1419H1.64601V15.8881H0.355938ZM0.81235 14.709C0.518691 15.0315 0.355938 15.452 0.355938 15.8881H1.64601C1.64601 15.7733 1.68888 15.6625 1.76623 15.5776L0.81235 14.709ZM13.1322 1.17914L0.81235 14.709L1.76623 15.5776L14.0861 2.04771L13.1322 1.17914ZM15.6697 1.12402C14.9637 0.413345 13.8066 0.438481 13.1322 1.17914L14.0861 2.04771C14.2637 1.85263 14.5685 1.84601 14.7544 2.03319L15.6697 1.12402Z" fill="black"/>
</svg>
