<svg width="40" height="40" viewBox="0 0 40 40" fill="none" xmlns="http://www.w3.org/2000/svg">
<path d="M18.543 11.7962C19.483 10.9994 20.8614 10.9994 21.8014 11.7962L25.051 14.5511C26.8404 16.068 25.7676 18.9922 23.4219 18.9922H16.9226C14.5768 18.9922 13.5041 16.068 15.2934 14.5511L18.543 11.7962Z" stroke="black" stroke-width="1.00775"/>
<mask id="path-2-inside-1_1061_3155" fill="white">
<path fill-rule="evenodd" clip-rule="evenodd" d="M29.7021 22.7912C29.4904 23.0029 29.207 23.2282 29.1974 23.5275L28.8452 34.466C28.8336 34.8285 28.5364 35.1163 28.1738 35.1163H11.8267C11.4641 35.1163 11.1669 34.8285 11.1553 34.466L10.8031 23.5278C10.7935 23.2284 10.5099 23.003 10.2981 22.7912L5.75232 18.2465C5.49624 17.9905 5.48913 17.5776 5.73622 17.3129L10.4405 12.2739C10.4405 12.2739 10.4406 12.2739 10.4406 12.2739L10.4407 12.274C10.4408 12.2741 10.4409 12.274 10.4409 12.274C10.4409 12.2739 10.4409 12.2739 10.4409 12.2739H14.4852C14.4852 12.2739 14.4852 12.2739 14.4852 12.2739C14.4852 15.5938 16.9544 18.2851 20.0003 18.2851C23.0461 18.2851 25.5153 15.5938 25.5153 12.2739C25.5153 12.2739 25.5153 12.2739 25.5153 12.2739H29.5596C29.5596 12.2739 29.5596 12.2739 29.5596 12.2739L29.5596 12.2739C29.5596 12.2739 29.5596 12.2739 29.5597 12.2739C29.5597 12.2739 29.5597 12.2739 29.5597 12.2739L34.264 17.3129C34.5111 17.5776 34.5039 17.9905 34.2479 18.2465L29.7021 22.7912Z"/>
</mask>
<path fill-rule="evenodd" clip-rule="evenodd" d="M29.7021 22.7912C29.4904 23.0029 29.207 23.2282 29.1974 23.5275L28.8452 34.466C28.8336 34.8285 28.5364 35.1163 28.1738 35.1163H11.8267C11.4641 35.1163 11.1669 34.8285 11.1553 34.466L10.8031 23.5278C10.7935 23.2284 10.5099 23.003 10.2981 22.7912L5.75232 18.2465C5.49624 17.9905 5.48913 17.5776 5.73622 17.3129L10.4405 12.2739C10.4405 12.2739 10.4406 12.2739 10.4406 12.2739L10.4407 12.274C10.4408 12.2741 10.4409 12.274 10.4409 12.274C10.4409 12.2739 10.4409 12.2739 10.4409 12.2739H14.4852C14.4852 12.2739 14.4852 12.2739 14.4852 12.2739C14.4852 15.5938 16.9544 18.2851 20.0003 18.2851C23.0461 18.2851 25.5153 15.5938 25.5153 12.2739C25.5153 12.2739 25.5153 12.2739 25.5153 12.2739H29.5596C29.5596 12.2739 29.5596 12.2739 29.5596 12.2739L29.5596 12.2739C29.5596 12.2739 29.5596 12.2739 29.5597 12.2739C29.5597 12.2739 29.5597 12.2739 29.5597 12.2739L34.264 17.3129C34.5111 17.5776 34.5039 17.9905 34.2479 18.2465L29.7021 22.7912Z" fill="white"/>
<path d="M28.8452 34.466L27.838 34.4336V34.4336L28.8452 34.466ZM11.1553 34.466L12.1625 34.4336V34.4336L11.1553 34.466ZM5.75232 18.2465L5.03982 18.9592L5.03982 18.9592L5.75232 18.2465ZM5.73622 17.3129L4.99959 16.6252H4.99959L5.73622 17.3129ZM34.264 17.3129L35.0006 16.6252V16.6252L34.264 17.3129ZM34.2479 18.2465L33.5354 17.5338V17.5338L34.2479 18.2465ZM29.5597 12.2739L30.2963 11.5862L29.5597 12.2739ZM29.5596 12.2739L30.2984 12.9592L29.5596 12.2739ZM29.5596 12.2739L28.8208 11.5885L29.5596 12.2739ZM10.4405 12.2739L9.70383 11.5862L10.4405 12.2739ZM10.4406 12.2739L9.70376 12.9614L10.4406 12.2739ZM10.4407 12.274L9.70384 12.9615L10.4407 12.274ZM10.8031 23.5278L9.79591 23.5602L10.8031 23.5278ZM29.1974 23.5275L28.1902 23.4951L29.1974 23.5275ZM29.8525 34.4985L30.2046 23.5599L28.1902 23.4951L27.838 34.4336L29.8525 34.4985ZM28.1738 36.124C29.0803 36.124 29.8233 35.4046 29.8525 34.4985L27.838 34.4336C27.8439 34.2524 27.9924 34.1085 28.1738 34.1085V36.124ZM11.8267 36.124H28.1738V34.1085H11.8267V36.124ZM10.148 34.4985C10.1772 35.4046 10.9202 36.124 11.8267 36.124V34.1085C12.0081 34.1085 12.1567 34.2524 12.1625 34.4336L10.148 34.4985ZM9.79591 23.5602L10.148 34.4985L12.1625 34.4336L11.8104 23.4954L9.79591 23.5602ZM5.03982 18.9592L9.58558 23.5038L11.0106 22.0785L6.46482 17.5338L5.03982 18.9592ZM4.99959 16.6252C4.38184 17.2869 4.39963 18.3192 5.03982 18.9592L6.46482 17.5338C6.59285 17.6619 6.59641 17.8683 6.47286 18.0006L4.99959 16.6252ZM9.70383 11.5862L4.99959 16.6252L6.47286 18.0006L11.1771 12.9616L9.70383 11.5862ZM11.1776 11.5866L11.1775 11.5865L9.70376 12.9614L9.70384 12.9615L11.1776 11.5866ZM14.4852 11.2661H10.4409V13.2816H14.4852V11.2661ZM20.0003 17.2773C17.5909 17.2773 15.493 15.1207 15.493 12.2739H13.4775C13.4775 16.0669 16.3179 19.2928 20.0003 19.2928V17.2773ZM24.5075 12.2739C24.5075 15.1207 22.4096 17.2773 20.0003 17.2773V19.2928C23.6826 19.2928 26.523 16.0669 26.523 12.2739H24.5075ZM29.5596 11.2661H25.5153V13.2816H29.5596V11.2661ZM30.2984 12.9592L30.2984 12.9592L28.8208 11.5885L28.8208 11.5885L30.2984 12.9592ZM28.823 12.9616L33.5273 18.0006L35.0006 16.6252L30.2963 11.5862L28.823 12.9616ZM33.5273 18.0006C33.4038 17.8683 33.4073 17.6619 33.5354 17.5338L34.9604 18.9592C35.6006 18.3192 35.6183 17.2869 35.0006 16.6252L33.5273 18.0006ZM33.5354 17.5338L28.9896 22.0785L30.4146 23.5038L34.9604 18.9592L33.5354 17.5338ZM28.6399 12.6858C28.6853 12.7872 28.7472 12.8804 28.823 12.9616L30.2963 11.5862C30.3721 11.6674 30.434 11.7606 30.4794 11.862L28.6399 12.6858ZM30.2984 12.9592C29.8073 13.4887 28.9351 13.3448 28.6399 12.6858L30.4794 11.862C30.1842 11.2029 29.3119 11.059 28.8208 11.5885L30.2984 12.9592ZM29.5596 13.2816C29.84 13.2816 30.1077 13.1648 30.2984 12.9592L28.8208 11.5885C29.0115 11.383 29.2792 11.2661 29.5596 11.2661V13.2816ZM11.1771 12.9616C10.7787 13.3884 10.102 13.3883 9.70376 12.9614L11.1775 11.5865C10.7792 11.1595 10.1024 11.1593 9.70383 11.5862L11.1771 12.9616ZM9.70384 12.9615C10.3385 13.6417 11.4773 13.1723 11.4481 12.2424L9.4336 12.3056C9.40444 11.3758 10.5431 10.9064 11.1776 11.5866L9.70384 12.9615ZM26.523 12.2739C26.523 12.8306 26.0718 13.2816 25.5153 13.2816V11.2661C24.9588 11.2661 24.5075 11.7172 24.5075 12.2739H26.523ZM11.8104 23.4954C11.7952 23.0244 11.5651 22.6821 11.4058 22.4878C11.2657 22.3168 11.0533 22.1212 11.0106 22.0785L9.58559 23.5038C9.61935 23.5376 9.65298 23.5701 9.68106 23.5971C9.71108 23.626 9.7348 23.6488 9.75836 23.672C9.8058 23.7186 9.83165 23.7467 9.84706 23.7655C9.86232 23.7841 9.85261 23.7761 9.83776 23.7445C9.82098 23.7088 9.79863 23.6447 9.79591 23.5602L11.8104 23.4954ZM11.4481 12.2424C11.4658 12.8046 11.0162 13.2816 10.4409 13.2816V11.2661C9.86559 11.2661 9.41596 11.7432 9.4336 12.3056L11.4481 12.2424ZM14.4852 13.2816C13.9286 13.2816 13.4775 12.8305 13.4775 12.2739H15.493C15.493 11.7173 15.0418 11.2661 14.4852 11.2661V13.2816ZM30.2046 23.5599C30.2019 23.6443 30.1796 23.7084 30.1628 23.7442C30.1479 23.7758 30.1382 23.7838 30.1534 23.7652C30.1688 23.7465 30.1946 23.7185 30.242 23.6718C30.2655 23.6487 30.2892 23.6259 30.3192 23.597C30.3473 23.57 30.3809 23.5376 30.4146 23.5038L28.9896 22.0785C28.9467 22.1213 28.7346 22.3167 28.5945 22.4878C28.4353 22.6821 28.2053 23.0243 28.1902 23.4951L30.2046 23.5599Z" fill="black" mask="url(#path-2-inside-1_1061_3155)"/>
<circle cx="20.0042" cy="23.6951" r="1.17571" fill="#1689F3" stroke="black" stroke-width="1.00775"/>
<circle cx="20.0042" cy="29.4057" r="1.17571" fill="#1689F3" stroke="black" stroke-width="1.00775"/>
<path d="M20.0916 10.9302V9.4049C20.0916 9.11286 20.2801 8.85454 20.5481 8.73852C21.1647 8.47158 22.1877 7.91383 22.1877 7.15117C22.1877 6.05944 21.5427 4.88373 20.0916 4.88373C18.6404 4.88373 18.2556 6.18264 18.1567 7.15117" stroke="black" stroke-width="1.00775" stroke-linecap="round"/>
</svg>
