<svg width="142" height="194" viewBox="0 0 142 194" fill="none" xmlns="http://www.w3.org/2000/svg">
<path d="M41.0439 169.305C41.0439 165.005 44.8473 161.519 49.5391 161.519C54.2308 161.519 58.0342 165.005 58.0342 169.305V185.85C58.0342 190.15 54.2308 193.636 49.5391 193.636C44.8473 193.636 41.0439 190.15 41.0439 185.85V169.305Z" fill="#FFE16F"/>
<path d="M41.0439 156.654C41.0439 148.047 48.6435 141.07 58.0181 141.07H83.4794C92.854 141.07 100.454 148.047 100.454 156.654V168.342C100.454 176.949 92.854 183.927 83.4794 183.927H58.0181C48.6435 183.927 41.0439 176.949 41.0439 168.342V156.654Z" fill="#FFE16F"/>
<path d="M39.6992 146.294C44.3429 143.929 50.1959 145.468 52.7722 149.73C55.3485 153.992 53.6725 159.364 49.0287 161.728L33.7022 169.532C29.0585 171.897 23.2055 170.358 20.6293 166.096C18.053 161.834 19.729 156.462 24.3727 154.098L39.6992 146.294Z" fill="#FFE16F"/>
<path d="M116.159 151.445C121.42 153.484 123.885 159.051 121.663 163.88C119.442 168.709 113.376 170.971 108.114 168.932L93.3039 163.192C88.0426 161.153 85.5783 155.586 87.7998 150.757C90.0213 145.928 96.0874 143.667 101.349 145.705L116.159 151.445Z" fill="#FFE16F"/>
<path d="M87.7891 169.305C87.7891 165.005 91.5925 161.519 96.2842 161.519C100.976 161.519 104.779 165.005 104.779 169.305V185.85C104.779 190.15 100.976 193.636 96.2842 193.636C91.5925 193.636 87.7891 190.15 87.7891 185.85V169.305Z" fill="#FFE16F"/>
<path d="M141.388 95.8585C141.388 129.195 109.802 156.22 70.839 156.22C31.8759 156.22 0.290039 129.195 0.290039 95.8585C0.290039 62.522 31.8759 35.4974 70.839 35.4974C109.802 35.4974 141.388 62.522 141.388 95.8585Z" fill="url(#paint0_linear_793_1611)"/>
<path d="M129.511 100.196C129.511 125.206 103.391 145.48 71.1708 145.48C38.9501 145.48 12.8301 125.206 12.8301 100.196C12.8301 75.1868 38.9501 54.9126 71.1708 54.9126C103.391 54.9126 129.511 75.1868 129.511 100.196Z" fill="url(#paint1_linear_793_1611)"/>
<path d="M90.8424 89.5088C90.8424 91.9043 88.7014 93.8462 86.0603 93.8462C83.4193 93.8462 81.2783 91.9043 81.2783 89.5088C81.2783 87.1134 83.4193 85.1715 86.0603 85.1715C88.7014 85.1715 90.8424 87.1134 90.8424 89.5088Z" fill="black"/>
<path d="M94.0123 92.0413C94.0123 93.5255 92.6588 94.7286 90.9891 94.7286C89.3194 94.7286 87.9658 93.5255 87.9658 92.0413C87.9658 90.5571 89.3194 89.3539 90.9891 89.3539C92.6588 89.3539 94.0123 90.5571 94.0123 92.0413Z" fill="#68B7FF"/>
<path d="M60.0123 91.4187C60.0123 93.8426 57.8713 95.8076 55.2303 95.8076C52.5892 95.8076 50.4482 93.8426 50.4482 91.4187C50.4482 88.9947 52.5892 87.0297 55.2303 87.0297C57.8713 87.0297 60.0123 88.9947 60.0123 91.4187Z" fill="black"/>
<path fill-rule="evenodd" clip-rule="evenodd" d="M72.703 101.824C76.934 101.38 81.2262 101.632 84.2283 102.046C84.7705 102.121 85.1281 102.64 85.021 103.177C84.9187 103.689 84.4294 104.028 83.9117 103.956C81.0641 103.563 76.9609 103.321 72.9457 103.743C68.8289 104.176 65.0235 105.282 62.6589 107.432C62.2686 107.787 61.6792 107.858 61.2528 107.547C60.7681 107.194 60.6896 106.497 61.1317 106.092C64.0109 103.452 68.4361 102.272 72.703 101.824Z" fill="black"/>
<path fill-rule="evenodd" clip-rule="evenodd" d="M83.574 102.095C83.8216 100.618 84.6015 99.4919 85.415 98.7501C85.8167 98.3838 86.4225 98.5555 86.717 99.051C87.02 99.5609 86.8746 100.218 86.4939 100.633C86.0412 101.126 85.6515 101.79 85.5185 102.583C85.3479 103.601 85.5669 105.04 87.0043 106.877C87.3591 107.33 87.3695 107.994 86.9881 108.389C86.6133 108.777 86.0012 108.759 85.6465 108.319C83.8048 106.033 83.2694 103.912 83.574 102.095Z" fill="black"/>
<path fill-rule="evenodd" clip-rule="evenodd" d="M62.1754 108.831C62.2688 110.325 61.7641 111.599 61.1398 112.505C60.8314 112.953 60.2025 112.923 59.8034 112.507C59.3929 112.079 59.3855 111.406 59.6624 110.916C59.9917 110.333 60.221 109.598 60.1708 108.795C60.1065 107.765 59.5672 106.413 57.7512 104.95C57.3029 104.588 57.1425 103.944 57.4244 103.473C57.7015 103.01 58.3018 102.889 58.7469 103.237C61.0586 105.047 62.0606 106.992 62.1754 108.831Z" fill="black"/>
<path d="M57.8125 79.4516C58.0266 80.5229 56.1636 81.9372 53.6514 82.6103C51.1391 83.2835 48.929 82.9607 48.7148 81.8893C48.5007 80.8179 50.3637 79.4037 52.876 78.7305C55.3882 78.0574 57.5984 78.3802 57.8125 79.4516Z" fill="black"/>
<path d="M91.3797 80.1052C91.1689 81.1798 88.9658 81.5064 86.4588 80.8347C83.9517 80.1629 82.0903 78.7472 82.301 77.6726C82.5118 76.598 84.715 76.2714 87.222 76.9431C89.729 77.6149 91.5905 79.0306 91.3797 80.1052Z" fill="black"/>
<g filter="url(#filter0_f_793_1611)">
<path d="M49.3896 107.805C49.3896 116.703 41.5562 123.916 31.8931 123.916C22.23 123.916 14.3965 116.703 14.3965 107.805C14.3965 98.9081 22.23 91.6954 31.8931 91.6954C41.5562 91.6954 49.3896 98.9081 49.3896 107.805Z" fill="#FFB6B6"/>
</g>
<g filter="url(#filter1_f_793_1611)">
<path d="M127.927 107.754C127.927 116.623 120.093 123.812 110.43 123.812C100.767 123.812 92.9336 116.623 92.9336 107.754C92.9336 98.8849 100.767 91.6953 110.43 91.6953C120.093 91.6953 127.927 98.8849 127.927 107.754Z" fill="#FFB6B6"/>
</g>
<path d="M42.1265 37.5225C34.6035 31.6851 33.6608 21.3557 40.0209 14.451C46.3811 7.54631 57.6356 6.68108 65.1587 12.5185L99.3909 39.0804C106.914 44.9177 107.857 55.2472 101.497 62.1519C95.1364 69.0565 83.8818 69.9218 76.3588 64.0844L42.1265 37.5225Z" fill="#FF9E9E"/>
<path d="M68.4654 63.8202C61.4995 70.2136 50.2056 70.2135 43.2397 63.8202C36.2738 57.4269 36.2738 47.0612 43.2397 40.6679L74.9368 11.5762C81.9027 5.18284 93.1966 5.18285 100.163 11.5762C107.128 17.9695 107.128 28.3352 100.163 34.7285L68.4654 63.8202Z" fill="#FF9E9E"/>
<defs>
<filter id="filter0_f_793_1611" x="5.69623" y="82.9951" width="52.3937" height="49.6207" filterUnits="userSpaceOnUse" color-interpolation-filters="sRGB">
<feFlood flood-opacity="0" result="BackgroundImageFix"/>
<feBlend mode="normal" in="SourceGraphic" in2="BackgroundImageFix" result="shape"/>
<feGaussianBlur stdDeviation="4.35013" result="effect1_foregroundBlur_793_1611"/>
</filter>
<filter id="filter1_f_793_1611" x="84.2333" y="82.9951" width="52.3937" height="49.5174" filterUnits="userSpaceOnUse" color-interpolation-filters="sRGB">
<feFlood flood-opacity="0" result="BackgroundImageFix"/>
<feBlend mode="normal" in="SourceGraphic" in2="BackgroundImageFix" result="shape"/>
<feGaussianBlur stdDeviation="4.35013" result="effect1_foregroundBlur_793_1611"/>
</filter>
<linearGradient id="paint0_linear_793_1611" x1="121.258" y1="57.6037" x2="71.1006" y2="187.7" gradientUnits="userSpaceOnUse">
<stop offset="0.424602" stop-color="#FFE16F"/>
<stop offset="1" stop-color="#FF9D42"/>
</linearGradient>
<linearGradient id="paint1_linear_793_1611" x1="71.1708" y1="54.9126" x2="35.4805" y2="135.583" gradientUnits="userSpaceOnUse">
<stop offset="0.674468" stop-color="#FFFBEE"/>
<stop offset="1" stop-color="#FBEFC3"/>
</linearGradient>
</defs>
</svg>
