<svg width="142" height="194" viewBox="0 0 142 194" fill="none" xmlns="http://www.w3.org/2000/svg">
<path d="M41.0439 169.557C41.0439 165.257 44.8473 161.771 49.5391 161.771C54.2308 161.771 58.0342 165.257 58.0342 169.557V186.102C58.0342 190.402 54.2308 193.888 49.5391 193.888C44.8473 193.888 41.0439 190.402 41.0439 186.102V169.557Z" fill="#FFE16F"/>
<path d="M41.0439 156.906C41.0439 148.299 48.6435 141.322 58.0181 141.322H83.4794C92.854 141.322 100.454 148.299 100.454 156.906V168.594C100.454 177.201 92.854 184.178 83.4794 184.178H58.0181C48.6435 184.178 41.0439 177.201 41.0439 168.594V156.906Z" fill="#FFE16F"/>
<path d="M39.6992 146.546C44.3429 144.181 50.1959 145.72 52.7722 149.982C55.3485 154.244 53.6725 159.616 49.0287 161.98L33.7022 169.784C29.0585 172.149 23.2055 170.61 20.6293 166.348C18.053 162.086 19.729 156.714 24.3727 154.35L39.6992 146.546Z" fill="#FFE16F"/>
<path d="M116.159 151.697C121.42 153.736 123.885 159.303 121.663 164.132C119.442 168.961 113.376 171.223 108.114 169.184L93.3039 163.444C88.0426 161.405 85.5783 155.838 87.7998 151.009C90.0213 146.18 96.0874 143.918 101.349 145.957L116.159 151.697Z" fill="#FFE16F"/>
<path d="M87.7891 169.557C87.7891 165.257 91.5925 161.771 96.2842 161.771C100.976 161.771 104.779 165.257 104.779 169.557V186.102C104.779 190.402 100.976 193.888 96.2842 193.888C91.5925 193.888 87.7891 190.402 87.7891 186.102V169.557Z" fill="#FFE16F"/>
<path d="M141.388 96.1104C141.388 129.447 109.802 156.472 70.839 156.472C31.8759 156.472 0.290039 129.447 0.290039 96.1104C0.290039 62.7739 31.8759 35.7493 70.839 35.7493C109.802 35.7493 141.388 62.7739 141.388 96.1104Z" fill="url(#paint0_linear_1061_2503)"/>
<path d="M129.511 100.448C129.511 125.458 103.391 145.732 71.1708 145.732C38.9501 145.732 12.8301 125.458 12.8301 100.448C12.8301 75.4388 38.9501 55.1646 71.1708 55.1646C103.391 55.1646 129.511 75.4388 129.511 100.448Z" fill="url(#paint1_linear_1061_2503)"/>
<path d="M90.8424 89.7608C90.8424 92.1562 88.7014 94.0981 86.0603 94.0981C83.4193 94.0981 81.2783 92.1562 81.2783 89.7608C81.2783 87.3653 83.4193 85.4235 86.0603 85.4235C88.7014 85.4235 90.8424 87.3653 90.8424 89.7608Z" fill="black"/>
<path d="M94.0123 92.2932C94.0123 93.7774 92.6588 94.9806 90.9891 94.9806C89.3194 94.9806 87.9658 93.7774 87.9658 92.2932C87.9658 90.8091 89.3194 89.6059 90.9891 89.6059C92.6588 89.6059 94.0123 90.8091 94.0123 92.2932Z" fill="#68B7FF"/>
<path d="M60.0123 91.6706C60.0123 94.0946 57.8713 96.0596 55.2303 96.0596C52.5892 96.0596 50.4482 94.0946 50.4482 91.6706C50.4482 89.2467 52.5892 87.2817 55.2303 87.2817C57.8713 87.2817 60.0123 89.2467 60.0123 91.6706Z" fill="black"/>
<path fill-rule="evenodd" clip-rule="evenodd" d="M72.703 102.076C76.934 101.632 81.2262 101.883 84.2283 102.298C84.7705 102.373 85.1281 102.892 85.021 103.429C84.9187 103.941 84.4294 104.279 83.9117 104.208C81.0641 103.815 76.9609 103.573 72.9457 103.995C68.8289 104.428 65.0235 105.534 62.6589 107.684C62.2686 108.039 61.6792 108.11 61.2528 107.799C60.7681 107.446 60.6896 106.749 61.1317 106.344C64.0109 103.704 68.4361 102.524 72.703 102.076Z" fill="black"/>
<path fill-rule="evenodd" clip-rule="evenodd" d="M83.574 102.347C83.8216 100.869 84.6015 99.7438 85.415 99.0021C85.8167 98.6358 86.4225 98.8074 86.717 99.303C87.02 99.8128 86.8746 100.47 86.4939 100.885C86.0412 101.378 85.6515 102.041 85.5185 102.835C85.3479 103.853 85.5669 105.292 87.0043 107.129C87.3591 107.582 87.3695 108.246 86.9881 108.641C86.6133 109.029 86.0012 109.011 85.6465 108.571C83.8048 106.285 83.2694 104.163 83.574 102.347Z" fill="black"/>
<path fill-rule="evenodd" clip-rule="evenodd" d="M62.1754 109.083C62.2688 110.577 61.7641 111.851 61.1398 112.757C60.8314 113.205 60.2025 113.175 59.8034 112.759C59.3929 112.331 59.3855 111.658 59.6624 111.168C59.9917 110.585 60.221 109.85 60.1708 109.047C60.1065 108.017 59.5672 106.665 57.7512 105.201C57.3029 104.84 57.1425 104.196 57.4244 103.725C57.7015 103.262 58.3018 103.141 58.7469 103.489C61.0586 105.299 62.0606 107.244 62.1754 109.083Z" fill="black"/>
<path d="M57.8125 79.7035C58.0266 80.7749 56.1636 82.1891 53.6514 82.8623C51.1391 83.5354 48.929 83.2126 48.7148 82.1412C48.5007 81.0699 50.3637 79.6557 52.876 78.9825C55.3882 78.3093 57.5984 78.6322 57.8125 79.7035Z" fill="black"/>
<path d="M91.3797 80.3572C91.1689 81.4318 88.9658 81.7584 86.4588 81.0866C83.9517 80.4149 82.0903 78.9992 82.301 77.9245C82.5118 76.8499 84.715 76.5233 87.222 77.1951C89.729 77.8668 91.5905 79.2825 91.3797 80.3572Z" fill="black"/>
<g filter="url(#filter0_f_1061_2503)">
<path d="M49.3896 108.057C49.3896 116.955 41.5562 124.167 31.8931 124.167C22.23 124.167 14.3965 116.955 14.3965 108.057C14.3965 99.16 22.23 91.9473 31.8931 91.9473C41.5562 91.9473 49.3896 99.16 49.3896 108.057Z" fill="#FFB6B6"/>
</g>
<g filter="url(#filter1_f_1061_2503)">
<path d="M127.927 108.006C127.927 116.875 120.093 124.064 110.43 124.064C100.767 124.064 92.9336 116.875 92.9336 108.006C92.9336 99.1369 100.767 91.9473 110.43 91.9473C120.093 91.9473 127.927 99.1369 127.927 108.006Z" fill="#FFB6B6"/>
</g>
<path d="M42.1265 37.7744C34.6035 31.9371 33.6608 21.6076 40.0209 14.7029C46.3811 7.79826 57.6356 6.93304 65.1587 12.7704L99.3909 39.3323C106.914 45.1697 107.857 55.4991 101.497 62.4038C95.1364 69.3085 83.8818 70.1737 76.3588 64.3363L42.1265 37.7744Z" fill="#FF9E9E"/>
<path d="M68.4654 64.0722C61.4995 70.4655 50.2056 70.4655 43.2397 64.0722C36.2738 57.6788 36.2738 47.3132 43.2397 40.9199L74.9368 11.8281C81.9027 5.43479 93.1966 5.4348 100.163 11.8281C107.128 18.2215 107.128 28.5871 100.163 34.9804L68.4654 64.0722Z" fill="#FF9E9E"/>
<defs>
<filter id="filter0_f_1061_2503" x="5.69623" y="83.2471" width="52.3937" height="49.6207" filterUnits="userSpaceOnUse" color-interpolation-filters="sRGB">
<feFlood flood-opacity="0" result="BackgroundImageFix"/>
<feBlend mode="normal" in="SourceGraphic" in2="BackgroundImageFix" result="shape"/>
<feGaussianBlur stdDeviation="4.35013" result="effect1_foregroundBlur_1061_2503"/>
</filter>
<filter id="filter1_f_1061_2503" x="84.2333" y="83.247" width="52.3937" height="49.5174" filterUnits="userSpaceOnUse" color-interpolation-filters="sRGB">
<feFlood flood-opacity="0" result="BackgroundImageFix"/>
<feBlend mode="normal" in="SourceGraphic" in2="BackgroundImageFix" result="shape"/>
<feGaussianBlur stdDeviation="4.35013" result="effect1_foregroundBlur_1061_2503"/>
</filter>
<linearGradient id="paint0_linear_1061_2503" x1="121.258" y1="57.8556" x2="71.1006" y2="187.952" gradientUnits="userSpaceOnUse">
<stop offset="0.424602" stop-color="#FFE16F"/>
<stop offset="1" stop-color="#FF9D42"/>
</linearGradient>
<linearGradient id="paint1_linear_1061_2503" x1="71.1708" y1="55.1646" x2="35.4805" y2="135.835" gradientUnits="userSpaceOnUse">
<stop offset="0.674468" stop-color="#FFFBEE"/>
<stop offset="1" stop-color="#FBEFC3"/>
</linearGradient>
</defs>
</svg>
