<svg width="80" height="80" viewBox="0 0 80 80" fill="none" xmlns="http://www.w3.org/2000/svg">
<path d="M38.2637 54.496L38.2164 62.1998H37.1124L37.1367 58.2399H35.1207L35.1262 57.3519H37.1422L37.1597 54.496H38.2637ZM29.4699 59.9919C31.1053 59.4519 32.1097 58.0719 32.1306 56.6319L32.1331 56.2239H29.8531L29.8587 55.312H35.5227L35.5171 56.2239H33.2611L33.2586 56.6319C33.2385 57.9399 34.1785 59.2479 35.7593 59.7759L35.1778 60.6639C34.0043 60.2559 33.1455 59.4159 32.6959 58.3719C32.2327 59.5359 31.3031 60.4599 30.0403 60.9039L29.4699 59.9919ZM31.3846 64.7678L31.4046 61.5038H32.5086L32.494 63.8798H38.47L38.4646 64.7678H31.3846ZM42.999 57.7119C42.9889 59.3679 43.7465 61.0598 45.1817 61.8398L44.5527 62.6558C43.548 62.1158 42.8462 61.1078 42.4695 59.9199C42.0897 61.1918 41.3749 62.2958 40.3512 62.8958L39.7083 62.0558C41.1776 61.2038 41.9326 59.4159 41.943 57.7119L41.9457 57.2799H40.0497L40.0552 56.3919H41.9512L41.9604 54.88H43.0164L43.0072 56.3919H44.8792L44.8737 57.2799H43.0017L42.999 57.7119ZM44.164 59.5119L44.1697 58.5759H45.6817L45.7055 54.712H46.7615L46.7016 64.4558H45.6456L45.676 59.5119H44.164ZM47.7544 64.9838L47.8188 54.496H48.8748L48.8104 64.9838H47.7544Z" fill="black"/>
<path d="M30.319 29.3696L31.0937 31.8549H29.546L30.319 29.3696ZM27.9271 37.0598L28.5036 35.2062H32.1382L32.7162 37.0604C32.8693 37.5517 33.3241 37.8863 33.8386 37.8863H35.7025C36.5058 37.8863 37.0725 37.0988 36.8174 36.3372L32.9918 24.916C32.8313 24.4367 32.3824 24.1137 31.877 24.1137H28.7664C28.2609 24.1137 27.8121 24.4367 27.6515 24.916L23.826 36.3372C23.5709 37.0988 24.1376 37.8863 24.9408 37.8863H26.8044C27.3193 37.8863 27.7742 37.5514 27.9271 37.0598Z" fill="#1689F3" stroke="black" stroke-width="1.00775"/>
<path d="M37.4759 36.7106C37.4759 37.3599 38.0022 37.8863 38.6516 37.8863H45.6426C46.2919 37.8863 46.8183 37.3599 46.8183 36.7106V35.5486C46.8183 34.8993 46.2919 34.3729 45.6426 34.3729H41.7144C41.6217 34.3729 41.5465 34.2977 41.5465 34.205V25.2894C41.5465 24.6401 41.0201 24.1137 40.3708 24.1137H38.6516C38.0022 24.1137 37.4759 24.6401 37.4759 25.2894V36.7106Z" fill="white" stroke="black" stroke-width="1.00775"/>
<path d="M47.1542 36.7106C47.1542 37.3599 47.6806 37.8863 48.3299 37.8863H55.3209C55.9702 37.8863 56.4966 37.3599 56.4966 36.7106V35.5486C56.4966 34.8993 55.9702 34.3729 55.3209 34.3729H51.3928C51.3 34.3729 51.2248 34.2977 51.2248 34.205V25.2894C51.2248 24.6401 50.6984 24.1137 50.0491 24.1137H48.3299C47.6806 24.1137 47.1542 24.6401 47.1542 25.2894V36.7106Z" fill="white" stroke="black" stroke-width="1.00775"/>
</svg>
