<svg width="30" height="29" viewBox="0 0 30 29" fill="none" xmlns="http://www.w3.org/2000/svg">
<path d="M28.6776 14.8494L28.2205 15.3045L28.2205 15.3045L28.6776 14.8494ZM15.21 1.32567L15.6671 0.870505L15.6671 0.870505L15.21 1.32567ZM18.57 27.9293H17.9249V28.5743H18.57V27.9293ZM18.5673 22.4726L17.9226 22.4513L17.9211 22.4968L17.926 22.5421L18.5673 22.4726ZM11.2683 22.4726L11.9096 22.5421L11.9145 22.4968L11.913 22.4513L11.2683 22.4726ZM11.2656 27.9293V28.5743H11.9107V27.9293H11.2656ZM1.28925 14.8562L0.812852 14.4214L0.812852 14.4214L1.28925 14.8562ZM13.609 1.36045L14.0854 1.79533L14.0854 1.79533L13.609 1.36045ZM29.1346 14.3942L15.6671 0.870505L14.753 1.78083L28.2205 15.3045L29.1346 14.3942ZM29.645 15.63C29.645 15.1668 29.4615 14.7224 29.1346 14.3942L28.2205 15.3045C28.3066 15.391 28.355 15.508 28.355 15.63H29.645ZM29.645 21.8833V15.63H28.355V21.8833H29.645ZM29.645 26.8229V21.8833H28.355V26.8229H29.645ZM27.8937 28.5743C28.8609 28.5743 29.645 27.7902 29.645 26.8229H28.355C28.355 27.0777 28.1484 27.2842 27.8937 27.2842V28.5743ZM24.1304 28.5743H27.8937V27.2842H24.1304V28.5743ZM18.57 28.5743H24.1304V27.2842H18.57V28.5743ZM19.215 27.9293V22.5222H17.9249V27.9293H19.215ZM19.215 22.5222C19.215 22.4823 19.2129 22.4425 19.2086 22.4032L17.926 22.5421C17.9253 22.5353 17.9249 22.5287 17.9249 22.5222H19.215ZM19.212 22.494C19.214 22.4334 19.215 22.3726 19.215 22.3115H17.9249C17.9249 22.3583 17.9242 22.4049 17.9226 22.4513L19.212 22.494ZM19.215 22.3115C19.215 19.7325 17.3697 17.4896 14.9178 17.4896V18.7796C16.5 18.7796 17.9249 20.2768 17.9249 22.3115H19.215ZM14.9178 17.4896C12.4659 17.4896 10.6206 19.7325 10.6206 22.3115H11.9107C11.9107 20.2768 13.3356 18.7796 14.9178 18.7796V17.4896ZM10.6206 22.3115C10.6206 22.3726 10.6216 22.4334 10.6236 22.494L11.913 22.4513C11.9114 22.4049 11.9107 22.3583 11.9107 22.3115H10.6206ZM10.627 22.4032C10.6227 22.4425 10.6206 22.4823 10.6206 22.5222H11.9107C11.9107 22.5287 11.9103 22.5354 11.9096 22.5421L10.627 22.4032ZM10.6206 22.5222V27.9293H11.9107V22.5222H10.6206ZM2.10633 28.5743H11.2656V27.2842H2.10633V28.5743ZM0.354962 26.8229C0.354962 27.7902 1.13908 28.5743 2.10633 28.5743V27.2842C1.85156 27.2842 1.64504 27.0777 1.64504 26.8229H0.354962ZM0.354962 15.6021V26.8229H1.64504V15.6021H0.354962ZM0.812852 14.4214C0.518279 14.7441 0.354962 15.1652 0.354962 15.6021H1.64504C1.64504 15.487 1.68805 15.3761 1.76564 15.2911L0.812852 14.4214ZM13.1327 0.925565L0.812852 14.4214L1.76564 15.2911L14.0854 1.79533L13.1327 0.925565ZM15.6671 0.870505C14.9615 0.161949 13.8068 0.187033 13.1327 0.925565L14.0854 1.79533C14.263 1.60081 14.5671 1.5942 14.753 1.78083L15.6671 0.870505Z" fill="black"/>
</svg>
