<svg width="40" height="40" viewBox="0 0 40 40" fill="none" xmlns="http://www.w3.org/2000/svg">
<path d="M2.37264 7.522C5.40533 7.00779 4.22259 10.601 7.61577 10.601" stroke="black" stroke-width="1.00775" stroke-linecap="round"/>
<path d="M2.00235 13.3881C4.35518 11.375 5.13579 15.0801 8.05627 13.3228" stroke="black" stroke-width="1.00775" stroke-linecap="round"/>
<path d="M2.65811 19.4619C3.56482 16.4738 6.19327 19.1591 7.71345 16.0736" stroke="black" stroke-width="1.00775" stroke-linecap="round"/>
<mask id="path-4-inside-1_1061_3126" fill="white">
<path fill-rule="evenodd" clip-rule="evenodd" d="M26.248 16.7597C26.248 16.3887 25.9473 16.0879 25.5762 16.0879L18.6757 16.0879C18.3047 16.0879 18.0039 15.7871 18.0039 15.4161V9.75972C18.0039 9.38868 18.3047 9.08789 18.6757 9.08789H31.9334C31.9803 9.08789 32.027 9.09279 32.0728 9.10251L37.4715 10.2477C37.7819 10.3135 38.0039 10.5876 38.0039 10.9049V12.5879V14.2709C38.0039 14.5882 37.7819 14.8623 37.4715 14.9281L33.4684 15.7772C33.158 15.8431 32.936 16.1171 32.936 16.4344V29.656C32.936 31.5029 31.4388 33 29.592 33C27.7452 33 26.248 31.5029 26.248 29.656V16.7597Z"/>
</mask>
<path fill-rule="evenodd" clip-rule="evenodd" d="M26.248 16.7597C26.248 16.3887 25.9473 16.0879 25.5762 16.0879L18.6757 16.0879C18.3047 16.0879 18.0039 15.7871 18.0039 15.4161V9.75972C18.0039 9.38868 18.3047 9.08789 18.6757 9.08789H31.9334C31.9803 9.08789 32.027 9.09279 32.0728 9.10251L37.4715 10.2477C37.7819 10.3135 38.0039 10.5876 38.0039 10.9049V12.5879V14.2709C38.0039 14.5882 37.7819 14.8623 37.4715 14.9281L33.4684 15.7772C33.158 15.8431 32.936 16.1171 32.936 16.4344V29.656C32.936 31.5029 31.4388 33 29.592 33C27.7452 33 26.248 31.5029 26.248 29.656V16.7597Z" fill="white"/>
<path d="M18.6757 16.0879L18.6757 15.0801H18.6757V16.0879ZM37.4715 10.2477L37.2624 11.2335V11.2335L37.4715 10.2477ZM37.4715 14.9281L37.6806 15.9139H37.6806L37.4715 14.9281ZM32.0728 9.10251L32.282 8.1167L32.0728 9.10251ZM33.4684 15.7772L33.6775 16.7631L33.4684 15.7772ZM18.6757 17.0956H25.5762V15.0801L18.6757 15.0801L18.6757 17.0956ZM16.9962 15.4161C16.9962 16.3437 17.7481 17.0956 18.6757 17.0956V15.0801C18.8613 15.0801 19.0117 15.2305 19.0117 15.4161H16.9962ZM16.9962 9.75972V15.4161H19.0117V9.75972H16.9962ZM18.6757 8.08014C17.7481 8.08014 16.9962 8.83211 16.9962 9.75972H19.0117C19.0117 9.94525 18.8613 10.0956 18.6757 10.0956V8.08014ZM31.9334 8.08014H18.6757V10.0956H31.9334V8.08014ZM37.6806 9.26186L32.282 8.1167L31.8637 10.0883L37.2624 11.2335L37.6806 9.26186ZM39.0117 10.9049C39.0117 10.1116 38.4566 9.42647 37.6806 9.26186L37.2624 11.2335C37.1072 11.2006 36.9962 11.0635 36.9962 10.9049H39.0117ZM39.0117 12.5879V10.9049H36.9962V12.5879H39.0117ZM39.0117 14.2709V12.5879H36.9962V14.2709H39.0117ZM37.6806 15.9139C38.4566 15.7493 39.0117 15.0642 39.0117 14.2709H36.9962C36.9962 14.1122 37.1072 13.9752 37.2624 13.9423L37.6806 15.9139ZM33.6775 16.7631L37.6806 15.9139L37.2624 13.9423L33.2593 14.7914L33.6775 16.7631ZM31.9282 16.4344V29.656H33.9437V16.4344H31.9282ZM31.9282 29.656C31.9282 30.9463 30.8823 31.9922 29.592 31.9922V34.0078C31.9954 34.0078 33.9437 32.0594 33.9437 29.656H31.9282ZM29.592 31.9922C28.3018 31.9922 27.2558 30.9463 27.2558 29.656H25.2403C25.2403 32.0594 27.1886 34.0078 29.592 34.0078V31.9922ZM27.2558 29.656V16.7597H25.2403V29.656H27.2558ZM31.9334 10.0956C31.91 10.0956 31.8866 10.0932 31.8637 10.0883L32.282 8.1167C32.1674 8.09239 32.0506 8.08014 31.9334 8.08014V10.0956ZM33.2593 14.7914C32.4833 14.956 31.9282 15.6412 31.9282 16.4344H33.9437C33.9437 16.5931 33.8327 16.7301 33.6775 16.7631L33.2593 14.7914ZM25.5762 17.0956C25.3907 17.0956 25.2403 16.9452 25.2403 16.7597H27.2558C27.2558 15.8321 26.5038 15.0801 25.5762 15.0801V17.0956Z" fill="black" mask="url(#path-4-inside-1_1061_3126)"/>
<path d="M18.1919 9.48031C18.2672 9.49854 18.3203 9.56601 18.3203 9.64356L18.3203 12.8158L18.3203 15.988C18.3203 16.0656 18.2672 16.133 18.1919 16.1513L10.7905 17.9412C10.6848 17.9667 10.5831 17.8866 10.5831 17.7779L10.5831 7.85367C10.5831 7.74494 10.6848 7.66486 10.7905 7.69042L18.1919 9.48031Z" fill="#1689F3" stroke="black" stroke-width="1.00775"/>
</svg>
