<svg width="40" height="40" viewBox="0 0 40 40" fill="none" xmlns="http://www.w3.org/2000/svg">
<mask id="path-1-inside-1_1061_3141" fill="white">
<path fill-rule="evenodd" clip-rule="evenodd" d="M24.6811 13.056C24.6487 13.3896 24.7602 13.7459 25.0514 13.9119L30.9159 17.2562C31.7217 17.7157 32.0025 18.7414 31.543 19.5472L31.432 19.7418C30.9725 20.5476 29.9468 20.8283 29.141 20.3688L11.6326 10.3847C10.8268 9.92514 10.5461 8.89941 11.0056 8.09361L11.1165 7.89908C11.576 7.09328 12.6018 6.81255 13.4076 7.27205L19.4016 10.6902C19.6928 10.8562 20.0562 10.7708 20.3267 10.5729C20.9688 10.1035 21.8523 10.0253 22.5879 10.4448L23.64 11.0448C24.3756 11.4642 24.7582 12.2645 24.6811 13.056Z"/>
</mask>
<path fill-rule="evenodd" clip-rule="evenodd" d="M24.6811 13.056C24.6487 13.3896 24.7602 13.7459 25.0514 13.9119L30.9159 17.2562C31.7217 17.7157 32.0025 18.7414 31.543 19.5472L31.432 19.7418C30.9725 20.5476 29.9468 20.8283 29.141 20.3688L11.6326 10.3847C10.8268 9.92514 10.5461 8.89941 11.0056 8.09361L11.1165 7.89908C11.576 7.09328 12.6018 6.81255 13.4076 7.27205L19.4016 10.6902C19.6928 10.8562 20.0562 10.7708 20.3267 10.5729C20.9688 10.1035 21.8523 10.0253 22.5879 10.4448L23.64 11.0448C24.3756 11.4642 24.7582 12.2645 24.6811 13.056Z" fill="#418DFF"/>
<path d="M31.543 19.5472L30.6675 19.048L31.543 19.5472ZM31.432 19.7418L32.3074 20.241L31.432 19.7418ZM11.0056 8.09361L10.1302 7.59441L11.0056 8.09361ZM11.1165 7.89908L11.992 8.39828L11.1165 7.89908ZM24.6811 13.056L23.6781 12.9584L24.6811 13.056ZM24.5522 14.7873L30.4167 18.1316L31.4152 16.3808L25.5506 13.0365L24.5522 14.7873ZM30.4167 18.1316C30.7391 18.3154 30.8513 18.7257 30.6675 19.048L32.4184 20.0464C33.1536 18.7571 32.7044 17.116 31.4152 16.3808L30.4167 18.1316ZM30.6675 19.048L30.5566 19.2425L32.3074 20.241L32.4184 20.0464L30.6675 19.048ZM30.5566 19.2425C30.3728 19.5649 29.9625 19.6772 29.6402 19.4934L28.6418 21.2442C29.9311 21.9794 31.5722 21.5302 32.3074 20.241L30.5566 19.2425ZM29.6402 19.4934L12.1318 9.50923L11.1334 11.2601L28.6418 21.2442L29.6402 19.4934ZM12.1318 9.50923C11.8095 9.32543 11.6972 8.91514 11.881 8.59282L10.1302 7.59441C9.39497 8.88369 9.84413 10.5249 11.1334 11.2601L12.1318 9.50923ZM11.881 8.59282L11.992 8.39828L10.2411 7.39987L10.1302 7.59441L11.881 8.59282ZM11.992 8.39828C12.1758 8.07596 12.5861 7.96367 12.9084 8.14747L13.9068 6.39664C12.6175 5.66142 10.9763 6.11059 10.2411 7.39987L11.992 8.39828ZM12.9084 8.14747L18.9024 11.5656L19.9008 9.81474L13.9068 6.39664L12.9084 8.14747ZM20.9215 11.3865C21.2547 11.1429 21.7105 11.1046 22.0887 11.3202L23.0871 9.56937C21.994 8.94605 20.6829 9.06421 19.732 9.75943L20.9215 11.3865ZM22.0887 11.3202L23.1408 11.9202L24.1392 10.1694L23.0871 9.56937L22.0887 11.3202ZM23.1408 11.9202C23.519 12.1358 23.7181 12.5476 23.6781 12.9584L25.6842 13.1537C25.7983 11.9813 25.2323 10.7927 24.1392 10.1694L23.1408 11.9202ZM18.9024 11.5656C19.6661 12.001 20.4685 11.7177 20.9215 11.3865L19.732 9.75943C19.7085 9.77661 19.6976 9.77527 19.7153 9.77248C19.7396 9.76867 19.8148 9.76568 19.9008 9.81474L18.9024 11.5656ZM25.5506 13.0365C25.6366 13.0855 25.6723 13.1518 25.6814 13.1746C25.688 13.1913 25.6813 13.1826 25.6842 13.1537L23.6781 12.9584C23.6238 13.5169 23.7885 14.3519 24.5522 14.7873L25.5506 13.0365Z" fill="black" mask="url(#path-1-inside-1_1061_3141)"/>
<circle cx="11.6019" cy="14.9613" r="1.51163" stroke="black" stroke-width="1.00775"/>
<circle cx="17.6484" cy="17.6486" r="1.51163" stroke="black" stroke-width="1.00775"/>
<mask id="path-5-inside-2_1061_3141" fill="white">
<path fill-rule="evenodd" clip-rule="evenodd" d="M8.31636 18.3871C8.27693 17.9917 8.58748 17.6486 8.98488 17.6486H31.0148C31.4122 17.6486 31.7227 17.9917 31.6833 18.3871L31.355 21.6796H33.7724C34.5145 21.6796 35.1161 22.2812 35.1161 23.0233C35.1161 23.7654 34.5145 24.367 33.7724 24.367H31.087L30.0755 34.5111C30.0412 34.8547 29.7522 35.1163 29.407 35.1163H10.5927C10.2475 35.1163 9.95842 34.8547 9.92417 34.5111L8.91264 24.367H6.22721C5.48512 24.367 4.88354 23.7654 4.88354 23.0233C4.88354 22.2812 5.48513 21.6796 6.22721 21.6796H8.64467L8.31636 18.3871Z"/>
</mask>
<path fill-rule="evenodd" clip-rule="evenodd" d="M8.31636 18.3871C8.27693 17.9917 8.58748 17.6486 8.98488 17.6486H31.0148C31.4122 17.6486 31.7227 17.9917 31.6833 18.3871L31.355 21.6796H33.7724C34.5145 21.6796 35.1161 22.2812 35.1161 23.0233C35.1161 23.7654 34.5145 24.367 33.7724 24.367H31.087L30.0755 34.5111C30.0412 34.8547 29.7522 35.1163 29.407 35.1163H10.5927C10.2475 35.1163 9.95842 34.8547 9.92417 34.5111L8.91264 24.367H6.22721C5.48512 24.367 4.88354 23.7654 4.88354 23.0233C4.88354 22.2812 5.48513 21.6796 6.22721 21.6796H8.64467L8.31636 18.3871Z" fill="white"/>
<path d="M8.31636 18.3871L7.31358 18.4871V18.4871L8.31636 18.3871ZM31.6833 18.3871L32.6861 18.4871V18.4871L31.6833 18.3871ZM31.355 21.6796L30.3522 21.5796L30.2417 22.6874H31.355V21.6796ZM31.087 24.367V23.3592H30.1748L30.0842 24.267L31.087 24.367ZM30.0755 34.5111L29.0727 34.4112V34.4112L30.0755 34.5111ZM9.92417 34.5111L10.9269 34.4112L9.92417 34.5111ZM8.91264 24.367L9.91542 24.267L9.8249 23.3592H8.91264V24.367ZM8.64467 21.6796V22.6874H9.75791L9.64745 21.5796L8.64467 21.6796ZM8.98488 16.6409C7.99138 16.6409 7.215 17.4985 7.31358 18.4871L9.31914 18.2871C9.33885 18.4848 9.18358 18.6564 8.98488 18.6564V16.6409ZM31.0148 16.6409H8.98488V18.6564H31.0148V16.6409ZM32.6861 18.4871C32.7846 17.4985 32.0083 16.6409 31.0148 16.6409V18.6564C30.8161 18.6564 30.6608 18.4848 30.6805 18.2871L32.6861 18.4871ZM32.3578 21.7796L32.6861 18.4871L30.6805 18.2871L30.3522 21.5796L32.3578 21.7796ZM33.7724 20.6719H31.355V22.6874H33.7724V20.6719ZM36.1239 23.0233C36.1239 21.7246 35.0711 20.6719 33.7724 20.6719V22.6874C33.958 22.6874 34.1084 22.8378 34.1084 23.0233H36.1239ZM33.7724 25.3747C35.0711 25.3747 36.1239 24.322 36.1239 23.0233H34.1084C34.1084 23.2088 33.958 23.3592 33.7724 23.3592V25.3747ZM31.087 25.3747H33.7724V23.3592H31.087V25.3747ZM31.0783 34.6111L32.0898 24.467L30.0842 24.267L29.0727 34.4112L31.0783 34.6111ZM29.407 36.1241C30.27 36.1241 30.9926 35.4699 31.0783 34.6111L29.0727 34.4112C29.0898 34.2394 29.2343 34.1086 29.407 34.1086V36.1241ZM10.5927 36.1241H29.407V34.1086H10.5927V36.1241ZM8.92139 34.6111C9.00702 35.4699 9.72961 36.1241 10.5927 36.1241V34.1086C10.7653 34.1086 10.9098 34.2394 10.9269 34.4112L8.92139 34.6111ZM7.90986 24.467L8.92139 34.6111L10.9269 34.4112L9.91542 24.267L7.90986 24.467ZM8.91264 23.3592H6.22721V25.3747H8.91264V23.3592ZM6.22721 23.3592C6.04169 23.3592 5.8913 23.2088 5.8913 23.0233H3.87579C3.87579 24.322 4.92856 25.3747 6.22721 25.3747V23.3592ZM5.8913 23.0233C5.8913 22.8378 6.04169 22.6874 6.22721 22.6874V20.6719C4.92856 20.6719 3.87579 21.7246 3.87579 23.0233H5.8913ZM6.22721 22.6874H8.64467V20.6719H6.22721V22.6874ZM7.31358 18.4871L7.64189 21.7796L9.64745 21.5796L9.31914 18.2871L7.31358 18.4871Z" fill="black" mask="url(#path-5-inside-2_1061_3141)"/>
</svg>
