<svg width="50" height="28" viewBox="0 0 50 28" fill="none" xmlns="http://www.w3.org/2000/svg">
<path d="M47.5494 24.852C47.5494 25.9601 47.3143 26.7516 46.8441 27.2529C46.3739 27.7278 45.6686 27.9917 44.7282 27.9917H29.76C28.8196 27.9917 28.1143 27.7278 27.6441 27.2529C27.1739 26.7516 26.9388 25.9601 26.9388 24.852V19.4169C26.9388 19.1531 26.991 18.9947 27.0955 18.8892C27.2 18.8101 27.3567 18.7573 27.618 18.7573H46.8702C47.1053 18.7573 47.2882 18.8101 47.3927 18.8892C47.4971 18.9947 47.5494 19.1531 47.5494 19.4169V24.852ZM41.9853 23.9813C42.2727 23.9813 42.4816 23.9285 42.5861 23.823C42.6906 23.6911 42.7429 23.4536 42.7429 23.137V22.6357H31.6931V23.137C31.6931 23.4536 31.7453 23.6911 31.8498 23.823C31.9543 23.9285 32.1371 23.9813 32.4506 23.9813H41.9853Z" fill="#1689F3"/>
<path d="M5.14612 7.71079C5.04163 9.76873 4.98939 11.8267 4.98939 13.8846C4.96327 15.9689 4.96327 18.1588 5.01551 20.4806C5.01551 21.1138 5.17225 21.5887 5.43347 21.8789C5.66857 22.1955 6.13878 22.3275 6.84408 22.3011C8.12408 22.2747 9.35184 22.2219 10.5535 22.1428C11.729 22.09 12.9829 22.0109 14.289 21.8789C14.5241 21.8526 14.6808 21.8789 14.7853 21.9581C14.8637 22.0636 14.9159 22.2483 14.9682 22.5122L15.2294 25.5727C15.2555 25.8365 15.2033 25.9948 15.0988 26.074C14.9682 26.1267 14.7853 26.1795 14.5502 26.2323C12.8261 26.3642 11.1543 26.4697 9.58694 26.5753C7.96735 26.628 6.34776 26.6808 4.67592 26.6808C3.00408 26.6808 1.80245 26.2323 1.09714 25.3352C0.365714 24.4118 0 22.9871 0 20.9819C0 19.4516 0 17.9477 0.0261224 16.4966C0.0261224 15.0719 0.0522449 13.6472 0.10449 12.2752C0.10449 10.9032 0.156735 9.55766 0.20898 8.1857C0.235102 6.8665 0.287347 5.49454 0.365714 4.12258C0.365714 3.85874 0.444082 3.70044 0.548571 3.5949C0.626939 3.51575 0.783673 3.46298 1.0449 3.46298H13.4792C13.7143 3.46298 13.8971 3.51575 14.0016 3.5949C14.1061 3.70044 14.1584 3.85874 14.1584 4.12258V7.05119C14.1584 7.31503 14.1061 7.49972 14.0016 7.57887C13.8971 7.68441 13.7143 7.71079 13.4792 7.71079H5.14612ZM11.102 13.0931C11.102 12.8293 11.1543 12.671 11.2588 12.5654C11.3633 12.4863 11.52 12.4335 11.7812 12.4335H17.1363V4.12258C17.1363 3.85874 17.1886 3.70044 17.2931 3.5949C17.3976 3.51575 17.5543 3.46298 17.8155 3.46298H21.4727C21.7078 3.46298 21.8906 3.51575 21.9951 3.5949C22.0996 3.70044 22.1518 3.85874 22.1518 4.12258V27.3404C22.1518 27.6042 22.0996 27.7625 21.9951 27.8681C21.8906 27.9472 21.7078 28 21.4727 28H17.8155C17.5543 28 17.3976 27.9472 17.2931 27.8681C17.1886 27.7625 17.1363 27.6042 17.1363 27.3404V16.8132H11.7812C11.52 16.8132 11.3633 16.7868 11.2588 16.6813C11.1543 16.6022 11.102 16.4175 11.102 16.1536V13.0931Z" fill="#1689F3"/>
<path d="M42.449 2.6939V8.06975V10.9027V17.7121C42.449 17.8828 42.5021 17.9852 42.6084 18.0535C42.7147 18.1047 42.8741 18.1388 43.1399 18.1388H46.8601C47.0993 18.1388 47.2853 18.1047 47.3916 18.0535C47.4979 17.9852 47.551 17.8828 47.551 17.7121V2.6939C47.551 2.52324 47.4979 2.42084 47.3916 2.35257C47.2853 2.30137 47.0993 2.26724 46.8601 2.26724H43.1399C42.8741 2.26724 42.7147 2.30137 42.6084 2.35257C42.5021 2.42084 42.449 2.52324 42.449 2.6939Z" fill="#1689F3"/>
<path d="M49.8025 7.62653L47.314 7.62653L46.0026 7.62653L42.8506 7.62653C42.7716 7.62653 42.7242 7.6802 42.6926 7.78756C42.6689 7.89492 42.6531 8.05595 42.6531 8.32434L42.6531 12.0818C42.6531 12.3234 42.6689 12.5112 42.6926 12.6186C42.7242 12.726 42.7716 12.7796 42.8506 12.7796L49.8025 12.7796C49.8815 12.7796 49.9289 12.726 49.9605 12.6186C49.9842 12.5112 50 12.3234 50 12.0818L50 8.32434C50 8.05595 49.9842 7.89492 49.9605 7.78756C49.9289 7.6802 49.8815 7.62653 49.8025 7.62653Z" fill="#1689F3"/>
<ellipse cx="2.2449" cy="2.26737" rx="2.2449" ry="2.26737" transform="matrix(1 0 0 -1 30.4081 4.53473)" fill="#1689F3"/>
<ellipse cx="5.81633" cy="5.87454" rx="5.81633" ry="5.87454" transform="matrix(1 0 0 -1 26.9388 18.1389)" fill="#1689F3"/>
<rect x="25.5101" y="5.35925" width="14.2857" height="4.12248" rx="1.00775" fill="#1689F3"/>
<rect x="29.1837" y="11.3072" width="7.14286" height="1.91401" rx="0.957005" fill="white"/>
<rect x="33.7025" y="8.6571" width="7.21434" height="1.89504" rx="0.947521" transform="rotate(90 33.7025 8.6571)" fill="white"/>
</svg>
