<svg width="350" height="55" viewBox="0 0 350 55" fill="none" xmlns="http://www.w3.org/2000/svg">
<rect x="0.454102" y="0.816895" width="348.733" height="53.6512" rx="26.8256" fill="#1689F3"/>
<path d="M137.841 21.9895C139.862 21.9895 141.327 23.1155 141.327 24.7968C141.327 26.4472 139.862 27.5887 137.841 27.5732C135.805 27.5887 134.34 26.4472 134.355 24.7968C134.34 23.1155 135.805 21.9895 137.841 21.9895ZM133.399 28.6221C135.882 28.6375 139.322 28.5758 142.283 28.1285L142.376 29.2082C141.157 29.4396 139.877 29.5784 138.643 29.671V34.4527H137.193V29.7481C135.882 29.8098 134.648 29.8252 133.584 29.8252L133.399 28.6221ZM135.743 24.7968C135.728 25.7685 136.607 26.4164 137.841 26.401C139.091 26.4164 139.97 25.7685 139.97 24.7968C139.97 23.8096 139.091 23.1463 137.841 23.1618C136.607 23.1463 135.728 23.8096 135.743 24.7968ZM143.209 34.8845V21.3725H144.628V34.8845H143.209ZM157.897 21.3725V34.8537H156.478V21.3725H157.897ZM146.946 31.1826C149.013 30.2417 150.401 27.9743 150.401 25.7223V24.8276H147.316V23.6862H150.401V21.6501H151.82V23.6862H154.843V24.8276H151.82V25.7223C151.82 27.8663 153.239 30.0566 155.337 30.9358L154.566 32.0464C153.008 31.3831 151.758 29.9795 151.141 28.2828C150.524 30.072 149.29 31.5837 147.717 32.2932L146.946 31.1826ZM175.025 21.3725V31.1826H173.606V21.3725H175.025ZM164.104 25.6297C164.104 23.6862 165.662 22.298 167.714 22.298C169.734 22.298 171.292 23.6862 171.292 25.6297C171.292 27.6195 169.734 28.9923 167.714 28.9923C165.662 28.9923 164.104 27.6195 164.104 25.6297ZM165.492 25.6297C165.492 26.91 166.449 27.7429 167.714 27.7583C168.932 27.7429 169.888 26.91 169.873 25.6297C169.888 24.3957 168.932 23.5474 167.714 23.532C166.449 23.5474 165.492 24.3957 165.492 25.6297ZM166.202 34.576V30.1954H167.621V33.4346H175.426V34.576H166.202ZM189.466 27.7275V28.8998H177.157V27.7275H189.466ZM177.805 25.8765C180.258 25.6297 182.17 24.5346 182.356 23.2235H178.299V22.0203H188.356V23.2235H184.268C184.438 24.5191 186.351 25.6297 188.849 25.8765L188.325 27.0179C185.98 26.7557 184.052 25.7685 183.312 24.3495C182.572 25.7685 180.643 26.7557 178.299 27.0179L177.805 25.8765ZM178.607 32.3857C178.623 30.8278 180.381 29.9332 183.296 29.9178C186.212 29.9332 187.955 30.8278 187.955 32.3857C187.955 33.9745 186.212 34.8537 183.296 34.8537C180.381 34.8537 178.623 33.9745 178.607 32.3857ZM180.088 32.3857C180.057 33.2495 181.245 33.7123 183.296 33.7123C185.348 33.7123 186.52 33.2495 186.536 32.3857C186.52 31.522 185.348 31.0592 183.296 31.0592C181.245 31.0592 180.057 31.522 180.088 32.3857ZM201.008 21.3725V26.8328H203.167V28.036H201.008V34.8537H199.589V21.3725H201.008ZM190.427 24.6425V23.5011H193.758V21.5576H195.177V23.5011H198.417V24.6425H190.427ZM191.105 28.7764C191.105 26.9408 192.524 25.6451 194.468 25.6606C196.396 25.6451 197.815 26.9408 197.831 28.7764C197.815 30.6427 196.396 31.923 194.468 31.923C192.524 31.923 191.105 30.6427 191.105 28.7764ZM192.494 28.7764C192.478 29.9486 193.311 30.7353 194.468 30.7199C195.609 30.7353 196.458 29.9486 196.473 28.7764C196.458 27.6349 195.609 26.8328 194.468 26.8328C193.311 26.8328 192.478 27.6349 192.494 28.7764ZM215.048 21.3725V34.8537H213.599V21.3725H215.048ZM203.943 31.2443C207.552 29.5476 209.295 27.1105 209.573 23.9638H204.621V22.8224H211.038C211.023 26.7711 209.341 30.1954 204.714 32.4166L203.943 31.2443Z" fill="white"/>
</svg>
