
<svg width="18" height="18" viewBox="0 0 18 18" fill="none" xmlns="http://www.w3.org/2000/svg">
<path d="M10.7559 0.731618L10.7559 0.731562C10.7574 0.594451 10.8272 0.451997 10.948 0.3417C11.0683 0.231839 11.2275 0.164983 11.3882 0.168061L11.3882 0.168092H11.3914H17.2075C17.2075 0.168092 17.2075 0.168092 17.2075 0.168092C17.3684 0.168111 17.5268 0.236139 17.6453 0.345272C17.7642 0.454762 17.8317 0.594721 17.8317 0.729861C17.8317 0.729869 17.8317 0.729877 17.8317 0.729884V17.2702C17.8317 17.4053 17.7642 17.5453 17.6453 17.6548C17.5268 17.7639 17.3684 17.832 17.2074 17.832L11.3914 17.832L11.3893 17.832C11.2269 17.8341 11.0662 17.7668 10.9456 17.6573C10.8247 17.5475 10.7559 17.4064 10.7559 17.2702C10.7559 17.134 10.8247 16.9929 10.9456 16.8831C11.0662 16.7736 11.2269 16.7063 11.3892 16.7084L11.3892 16.7084H11.3914H16.4153H16.5832V16.5405V1.45957V1.29162H16.4153H11.3914V1.29158L11.3882 1.29165C11.0453 1.29821 10.7527 1.0125 10.7559 0.731618Z" fill="#737373" stroke="#737373" stroke-width="0.335917"/>
<path d="M5.02965 13.6936C4.84414 13.6777 4.67068 13.6063 4.56493 13.5129L0.332419 9.38028C0.21964 9.27015 0.168396 9.14817 0.167961 9.00256C0.174692 8.86596 0.238168 8.70927 0.332414 8.61718C0.332423 8.61718 0.332432 8.61717 0.332441 8.61716L4.56238 4.48704C4.67716 4.39437 4.85115 4.3237 5.03227 4.30688C5.21587 4.28984 5.38358 4.32967 5.49935 4.42857C5.73363 4.62871 5.73079 5.03111 5.49066 5.23784L5.49045 5.23759L5.48298 5.24488L2.50505 8.14872L2.20948 8.43693H2.6223H13.5C13.8594 8.43693 14.1261 8.70154 14.1261 8.99873C14.1261 9.29591 13.8594 9.56053 13.5 9.56053H2.6223H2.20948L2.50505 9.84874L5.48298 12.7526L5.48293 12.7526L5.48649 12.7559C5.58327 12.845 5.64947 12.9974 5.65543 13.1617C5.66134 13.3244 5.60773 13.4743 5.49802 13.57L5.49801 13.57C5.38657 13.6673 5.21654 13.7096 5.02965 13.6936Z" fill="#737373" stroke="#737373" stroke-width="0.335917"/>
</svg>
