<svg width="150" height="160" viewBox="0 0 150 160" fill="none" xmlns="http://www.w3.org/2000/svg">
<path d="M63.6658 133.212C59.5041 135.446 54.6232 133.98 52.764 129.937C50.9048 125.895 52.7713 120.808 56.933 118.574L68.648 112.287C72.8097 110.053 77.6906 111.52 79.5498 115.562C81.409 119.604 79.5424 124.692 75.3808 126.925L63.6658 133.212Z" fill="url(#paint0_linear_1422_1726)"/>
<path fill-rule="evenodd" clip-rule="evenodd" d="M81.8147 109.161C73.3845 109.161 66.5505 115.021 66.5505 122.249V130.96C66.367 131.539 66.2686 132.15 66.2686 132.783V146.632C66.2686 150.232 69.4522 153.15 73.3795 153.15C77.3067 153.15 80.4904 150.232 80.4904 146.632V145.104C80.9268 145.136 81.3685 145.153 81.8147 145.153H104.711C104.971 145.153 105.23 145.147 105.487 145.136V146.632C105.487 150.232 108.671 153.15 112.598 153.15C116.526 153.15 119.709 150.232 119.709 146.632V134.51C119.884 133.718 119.975 132.9 119.975 132.065V122.249C119.975 115.021 113.141 109.161 104.711 109.161H81.8147Z" fill="url(#paint1_linear_1422_1726)"/>
<mask id="mask0_1422_1726" style="mask-type:alpha" maskUnits="userSpaceOnUse" x="66" y="109" width="54" height="45">
<path fill-rule="evenodd" clip-rule="evenodd" d="M81.8147 109.161C73.3845 109.161 66.5505 115.021 66.5505 122.249V130.96C66.367 131.539 66.2686 132.15 66.2686 132.783V146.632C66.2686 150.232 69.4522 153.15 73.3795 153.15C77.3067 153.15 80.4904 150.232 80.4904 146.632V145.104C80.9268 145.136 81.3685 145.153 81.8147 145.153H104.711C104.971 145.153 105.23 145.147 105.487 145.136V146.632C105.487 150.232 108.671 153.15 112.598 153.15C116.526 153.15 119.709 150.232 119.709 146.632V134.51C119.884 133.718 119.975 132.9 119.975 132.065V122.249C119.975 115.021 113.141 109.161 104.711 109.161H81.8147Z" fill="url(#paint2_linear_1422_1726)"/>
</mask>
<g mask="url(#mask0_1422_1726)">
<g filter="url(#filter0_f_1422_1726)">
<path d="M150.352 77.0196C150.352 104.924 123.913 127.545 91.2987 127.545C58.6843 127.545 32.2451 104.924 32.2451 77.0196C32.2451 49.1149 58.6843 26.4938 91.2987 26.4938C123.913 26.4938 150.352 49.1149 150.352 77.0196Z" fill="white" fill-opacity="0.29" style="mix-blend-mode:multiply"/>
</g>
</g>
<path d="M109.116 138.249C105.988 141.788 100.902 142.106 97.7556 138.96C94.6095 135.814 94.5951 130.395 97.7234 126.856L106.529 116.895C109.658 113.357 114.744 113.038 117.89 116.185C121.036 119.331 121.051 124.75 117.923 128.288L109.116 138.249Z" fill="url(#paint3_linear_1422_1726)"/>
<g filter="url(#filter1_i_1422_1726)">
<path d="M150 75.9861C150 103.203 124.212 125.267 92.4014 125.267C60.5905 125.267 34.8027 103.203 34.8027 75.9861C34.8027 48.769 60.5905 26.7052 92.4014 26.7052C124.212 26.7052 150 48.769 150 75.9861Z" fill="url(#paint4_linear_1422_1726)"/>
</g>
<g filter="url(#filter2_i_1422_1726)">
<path d="M140.303 79.5278C140.303 99.9465 118.978 116.499 92.6719 116.499C66.3658 116.499 45.0405 99.9465 45.0405 79.5278C45.0405 59.1092 66.3658 42.5566 92.6719 42.5566C118.978 42.5566 140.303 59.1092 140.303 79.5278Z" fill="url(#paint5_linear_1422_1726)"/>
</g>
<g filter="url(#filter3_f_1422_1726)">
<path d="M140.117 79.5889C140.117 87.5409 133.118 93.9872 124.484 93.9872C115.85 93.9872 108.852 87.5409 108.852 79.5889C108.852 71.6369 115.85 65.1905 124.484 65.1905C133.118 65.1905 140.117 71.6369 140.117 79.5889Z" fill="url(#paint6_radial_1422_1726)"/>
</g>
<g filter="url(#filter4_f_1422_1726)">
<path d="M78.9579 79.5889C78.9579 87.5409 71.959 93.9872 63.3254 93.9872C54.6918 93.9872 47.6929 87.5409 47.6929 79.5889C47.6929 71.6369 54.6918 65.1905 63.3254 65.1905C71.959 65.1905 78.9579 71.6369 78.9579 79.5889Z" fill="url(#paint7_radial_1422_1726)"/>
</g>
<path d="M108.732 71.4743C108.732 73.43 106.984 75.0154 104.828 75.0154C102.672 75.0154 100.924 73.43 100.924 71.4743C100.924 69.5185 102.672 67.9331 104.828 67.9331C106.984 67.9331 108.732 69.5185 108.732 71.4743Z" fill="black"/>
<path d="M83.5618 71.5164C83.5618 73.4954 81.8139 75.0997 79.6576 75.0997C77.5014 75.0997 75.7534 73.4954 75.7534 71.5164C75.7534 69.5374 77.5014 67.9331 79.6576 67.9331C81.8139 67.9331 83.5618 69.5374 83.5618 71.5164Z" fill="black"/>
<path d="M81.6705 60.3254C82.0657 61.125 80.8954 62.634 79.0564 63.6957C77.2175 64.7574 75.4063 64.9698 75.0111 64.1702C74.6158 63.3705 75.7862 61.8616 77.6251 60.7999C79.4641 59.7382 81.2753 59.5257 81.6705 60.3254Z" fill="black"/>
<path d="M110.45 64.1733C110.057 64.9763 108.25 64.7683 106.415 63.7088C104.58 62.6493 103.411 61.1395 103.805 60.3365C104.198 59.5336 106.004 59.7416 107.839 60.8011C109.675 61.8606 110.843 63.3704 110.45 64.1733Z" fill="black"/>
<mask id="mask1_1422_1726" style="mask-type:alpha" maskUnits="userSpaceOnUse" x="63" y="4" width="53" height="53">
<path fill-rule="evenodd" clip-rule="evenodd" d="M83.2123 7.44381C78.663 2.89446 71.287 2.89446 66.7377 7.44381C62.1883 11.9932 62.1883 19.3691 66.7377 23.9184L73.0618 30.2426L66.7658 36.5386C62.2165 41.088 62.2165 48.4639 66.7658 53.0132C71.3151 57.5626 78.6911 57.5626 83.2404 53.0133L89.5365 46.7172L95.8106 52.9913C100.36 57.5407 107.736 57.5407 112.285 52.9913C116.835 48.442 116.835 41.066 112.285 36.5167L106.011 30.2426L112.313 23.9404C116.863 19.391 116.863 12.0151 112.313 7.46574C107.764 2.91639 100.388 2.91639 95.8387 7.46573L89.5365 13.768L83.2123 7.44381Z" fill="#CB8F8F" fill-opacity="0.35"/>
</mask>
<g mask="url(#mask1_1422_1726)">
<path d="M150 75.9861C150 103.203 124.213 125.267 92.4018 125.267C60.591 125.267 34.8032 103.203 34.8032 75.9861C34.8032 48.769 60.591 26.7052 92.4018 26.7052C124.213 26.7052 150 48.769 150 75.9861Z" fill="#E4A885"/>
</g>
<g filter="url(#filter5_i_1422_1726)">
<path fill-rule="evenodd" clip-rule="evenodd" d="M85.9545 3.87844C81.4052 -0.670905 74.0292 -0.670905 69.4799 3.87844C64.9305 8.42778 64.9305 15.8037 69.4799 20.3531L75.8042 26.6774L69.5084 32.9732C64.9591 37.5225 64.9591 44.8985 69.5084 49.4478C74.0577 53.9972 81.4337 53.9972 85.983 49.4478L92.2788 43.152L98.5528 49.4259C103.102 53.9753 110.478 53.9753 115.027 49.4259C119.577 44.8766 119.577 37.5007 115.027 32.9513L108.753 26.6774L115.056 20.375C119.605 15.8256 119.605 8.44967 115.056 3.90033C110.507 -0.649017 103.131 -0.649021 98.5813 3.90032L92.2788 10.2028L85.9545 3.87844Z" fill="url(#paint8_linear_1422_1726)"/>
</g>
<path d="M103.093 83.4285C103.093 85.6247 98.488 84.2512 92.808 84.2512C87.128 84.2512 82.5234 85.6247 82.5234 83.4285C82.5234 81.2322 87.128 79.4518 92.808 79.4518C98.488 79.4518 103.093 81.2322 103.093 83.4285Z" fill="black"/>
<rect x="89.105" y="80.2745" width="2.19404" height="1.91978" rx="0.467481" fill="white"/>
<path d="M120.919 57.6447C120.919 55.254 122.707 50.789 124.939 45.6789C125.363 44.7082 126.774 44.7574 127.16 45.7437C129.15 50.8268 131.341 55.2641 131.341 57.6447C131.341 60.449 129.008 62.7223 126.13 62.7223C123.252 62.7223 120.919 60.449 120.919 57.6447Z" fill="url(#paint9_linear_1422_1726)"/>
<circle cx="31.6933" cy="31.6933" r="26.2047" transform="matrix(-0.744493 0.66763 0.66763 0.744493 47.1909 38.6372)" stroke="#1689F3" stroke-width="10.9773"/>
<circle cx="23.2256" cy="23.2256" r="21.4386" transform="matrix(-0.744493 0.66763 0.66763 0.744493 46.54 50.5949)" stroke="white" stroke-width="3.57402"/>
<g filter="url(#filter6_b_1422_1726)">
<ellipse cx="21.8296" cy="21.8296" rx="21.8296" ry="21.8296" transform="matrix(-0.744493 0.66763 0.66763 0.744493 46.4326 52.5664)" fill="url(#paint10_linear_1422_1726)" fill-opacity="0.4"/>
</g>
<path d="M68.1375 101.501C66.2068 99.5475 63.0826 99.4534 61.0377 101.287C58.9965 103.118 58.7477 106.227 60.4719 108.359L84.1311 137.61C86.6579 140.734 91.2861 141.104 94.2774 138.422C97.2637 135.744 97.4033 131.112 94.5836 128.259L68.1375 101.501Z" fill="#1689F3"/>
<path d="M59.8271 113.358C62.3246 110.533 66.8995 110.793 70.0456 113.939C73.1917 117.085 73.7176 121.926 71.2202 124.751L64.19 132.703C61.6925 135.528 57.1175 135.268 53.9715 132.122C50.8254 128.976 50.2995 124.135 52.7969 121.31L59.8271 113.358Z" fill="url(#paint11_linear_1422_1726)"/>
<path d="M91.1259 136.858C87.8754 135.329 86.6204 129.182 88.7582 125.28C90.8959 121.378 95.6169 121.198 98.8674 122.728L108.018 127.032C111.268 128.562 112.17 132.964 110.032 136.866C107.895 140.768 103.527 142.692 100.276 141.163L91.1259 136.858Z" fill="url(#paint12_linear_1422_1726)"/>
<mask id="mask2_1422_1726" style="mask-type:alpha" maskUnits="userSpaceOnUse" x="66" y="109" width="54" height="45">
<path fill-rule="evenodd" clip-rule="evenodd" d="M81.8147 109.161C73.3845 109.161 66.5505 115.021 66.5505 122.249V130.96C66.367 131.539 66.2686 132.15 66.2686 132.783V146.632C66.2686 150.232 69.4522 153.15 73.3795 153.15C77.3067 153.15 80.4904 150.232 80.4904 146.632V145.104C80.9268 145.136 81.3685 145.153 81.8147 145.153H104.711C104.971 145.153 105.23 145.147 105.487 145.136V146.632C105.487 150.232 108.671 153.15 112.598 153.15C116.526 153.15 119.709 150.232 119.709 146.632V134.51C119.884 133.718 119.975 132.9 119.975 132.065V122.249C119.975 115.021 113.141 109.161 104.711 109.161H81.8147Z" fill="url(#paint13_linear_1422_1726)"/>
<mask id="mask3_1422_1726" style="mask-type:alpha" maskUnits="userSpaceOnUse" x="66" y="109" width="54" height="45">
<path fill-rule="evenodd" clip-rule="evenodd" d="M81.8147 109.161C73.3845 109.161 66.5505 115.021 66.5505 122.249V130.96C66.367 131.539 66.2686 132.15 66.2686 132.783V146.632C66.2686 150.232 69.4522 153.15 73.3795 153.15C77.3067 153.15 80.4904 150.232 80.4904 146.632V145.104C80.9268 145.136 81.3685 145.153 81.8147 145.153H104.711C104.971 145.153 105.23 145.147 105.487 145.136V146.632C105.487 150.232 108.671 153.15 112.598 153.15C116.526 153.15 119.709 150.232 119.709 146.632V134.51C119.884 133.718 119.975 132.9 119.975 132.065V122.249C119.975 115.021 113.141 109.161 104.711 109.161H81.8147Z" fill="url(#paint14_linear_1422_1726)"/>
</mask>
<g mask="url(#mask3_1422_1726)">
<path d="M150.352 77.0196C150.352 104.924 123.913 127.545 91.2987 127.545C58.6843 127.545 32.2451 104.924 32.2451 77.0196C32.2451 49.1149 58.6843 26.4938 91.2987 26.4938C123.913 26.4938 150.352 49.1149 150.352 77.0196Z" fill="white" fill-opacity="0.29"/>
</g>
</mask>
<g mask="url(#mask2_1422_1726)">
<g filter="url(#filter7_d_1422_1726)">
<path d="M91.1259 136.858C87.8754 135.329 86.6204 129.182 88.7582 125.28C90.8959 121.378 95.6169 121.199 98.8674 122.728L108.018 127.032C111.268 128.562 112.17 132.964 110.032 136.866C107.895 140.769 103.527 142.692 100.276 141.163L91.1259 136.858Z" fill="url(#paint15_linear_1422_1726)"/>
</g>
</g>
<defs>
<filter id="filter0_f_1422_1726" x="9.89452" y="4.14318" width="162.809" height="145.753" filterUnits="userSpaceOnUse" color-interpolation-filters="sRGB">
<feFlood flood-opacity="0" result="BackgroundImageFix"/>
<feBlend mode="normal" in="SourceGraphic" in2="BackgroundImageFix" result="shape"/>
<feGaussianBlur stdDeviation="11.1753" result="effect1_foregroundBlur_1422_1726"/>
</filter>
<filter id="filter1_i_1422_1726" x="34.8027" y="26.7052" width="115.197" height="103.237" filterUnits="userSpaceOnUse" color-interpolation-filters="sRGB">
<feFlood flood-opacity="0" result="BackgroundImageFix"/>
<feBlend mode="normal" in="SourceGraphic" in2="BackgroundImageFix" result="shape"/>
<feColorMatrix in="SourceAlpha" type="matrix" values="0 0 0 0 0 0 0 0 0 0 0 0 0 0 0 0 0 0 127 0" result="hardAlpha"/>
<feOffset dy="6.311"/>
<feGaussianBlur stdDeviation="2.33741"/>
<feComposite in2="hardAlpha" operator="arithmetic" k2="-1" k3="1"/>
<feColorMatrix type="matrix" values="0 0 0 0 1 0 0 0 0 1 0 0 0 0 1 0 0 0 0.57 0"/>
<feBlend mode="lighten" in2="shape" result="effect1_innerShadow_1422_1726"/>
</filter>
<filter id="filter2_i_1422_1726" x="45.0405" y="42.5566" width="95.2627" height="76.4902" filterUnits="userSpaceOnUse" color-interpolation-filters="sRGB">
<feFlood flood-opacity="0" result="BackgroundImageFix"/>
<feBlend mode="normal" in="SourceGraphic" in2="BackgroundImageFix" result="shape"/>
<feColorMatrix in="SourceAlpha" type="matrix" values="0 0 0 0 0 0 0 0 0 0 0 0 0 0 0 0 0 0 127 0" result="hardAlpha"/>
<feOffset dy="3.50611"/>
<feGaussianBlur stdDeviation="1.27389"/>
<feComposite in2="hardAlpha" operator="arithmetic" k2="-1" k3="1"/>
<feColorMatrix type="matrix" values="0 0 0 0 1 0 0 0 0 0.618667 0 0 0 0 0.404167 0 0 0 0.79 0"/>
<feBlend mode="normal" in2="shape" result="effect1_innerShadow_1422_1726"/>
</filter>
<filter id="filter3_f_1422_1726" x="102.798" y="59.1366" width="43.3729" height="40.9045" filterUnits="userSpaceOnUse" color-interpolation-filters="sRGB">
<feFlood flood-opacity="0" result="BackgroundImageFix"/>
<feBlend mode="normal" in="SourceGraphic" in2="BackgroundImageFix" result="shape"/>
<feGaussianBlur stdDeviation="3.02694" result="effect1_foregroundBlur_1422_1726"/>
</filter>
<filter id="filter4_f_1422_1726" x="41.639" y="59.1366" width="43.3729" height="40.9045" filterUnits="userSpaceOnUse" color-interpolation-filters="sRGB">
<feFlood flood-opacity="0" result="BackgroundImageFix"/>
<feBlend mode="normal" in="SourceGraphic" in2="BackgroundImageFix" result="shape"/>
<feGaussianBlur stdDeviation="3.02694" result="effect1_foregroundBlur_1422_1726"/>
</filter>
<filter id="filter5_i_1422_1726" x="66.0679" y="0.466431" width="52.3999" height="53.3284" filterUnits="userSpaceOnUse" color-interpolation-filters="sRGB">
<feFlood flood-opacity="0" result="BackgroundImageFix"/>
<feBlend mode="normal" in="SourceGraphic" in2="BackgroundImageFix" result="shape"/>
<feColorMatrix in="SourceAlpha" type="matrix" values="0 0 0 0 0 0 0 0 0 0 0 0 0 0 0 0 0 0 127 0" result="hardAlpha"/>
<feOffset dy="0.934963"/>
<feGaussianBlur stdDeviation="2.12704"/>
<feComposite in2="hardAlpha" operator="arithmetic" k2="-1" k3="1"/>
<feColorMatrix type="matrix" values="0 0 0 0 1 0 0 0 0 1 0 0 0 0 1 0 0 0 1 0"/>
<feBlend mode="lighten" in2="shape" result="effect1_innerShadow_1422_1726"/>
</filter>
<filter id="filter6_b_1422_1726" x="18.3807" y="57.0186" width="52.7479" height="52.7477" filterUnits="userSpaceOnUse" color-interpolation-filters="sRGB">
<feFlood flood-opacity="0" result="BackgroundImageFix"/>
<feGaussianBlur in="BackgroundImageFix" stdDeviation="2.27206"/>
<feComposite in2="SourceAlpha" operator="in" result="effect1_backgroundBlur_1422_1726"/>
<feBlend mode="normal" in="SourceGraphic" in2="effect1_backgroundBlur_1422_1726" result="shape"/>
</filter>
<filter id="filter7_d_1422_1726" x="78.3811" y="120.375" width="33.1476" height="29.509" filterUnits="userSpaceOnUse" color-interpolation-filters="sRGB">
<feFlood flood-opacity="0" result="BackgroundImageFix"/>
<feColorMatrix in="SourceAlpha" type="matrix" values="0 0 0 0 0 0 0 0 0 0 0 0 0 0 0 0 0 0 127 0" result="hardAlpha"/>
<feOffset dx="-4.49068" dy="3.36801"/>
<feGaussianBlur stdDeviation="2.41374"/>
<feComposite in2="hardAlpha" operator="out"/>
<feColorMatrix type="matrix" values="0 0 0 0 0.841667 0 0 0 0 0.3535 0 0 0 0 0 0 0 0 0.41 0"/>
<feBlend mode="normal" in2="BackgroundImageFix" result="effect1_dropShadow_1422_1726"/>
<feBlend mode="normal" in="SourceGraphic" in2="effect1_dropShadow_1422_1726" result="shape"/>
</filter>
<linearGradient id="paint0_linear_1422_1726" x1="60.0826" y1="118.159" x2="74.6016" y2="130.2" gradientUnits="userSpaceOnUse">
<stop stop-color="#FFE16F"/>
<stop offset="1" stop-color="#FF9A51"/>
</linearGradient>
<linearGradient id="paint1_linear_1422_1726" x1="93.2625" y1="118.159" x2="93.2625" y2="145.153" gradientUnits="userSpaceOnUse">
<stop offset="0.385" stop-color="#FFE16F"/>
<stop offset="1" stop-color="#FFC34E"/>
</linearGradient>
<linearGradient id="paint2_linear_1422_1726" x1="93.2625" y1="118.159" x2="93.2625" y2="145.153" gradientUnits="userSpaceOnUse">
<stop offset="0.385" stop-color="#FFE16F"/>
<stop offset="1" stop-color="#FFC34E"/>
</linearGradient>
<linearGradient id="paint3_linear_1422_1726" x1="111.144" y1="129.012" x2="118.948" y2="118.989" gradientUnits="userSpaceOnUse">
<stop stop-color="#FFE16F"/>
<stop offset="1" stop-color="#FF9A51"/>
</linearGradient>
<linearGradient id="paint4_linear_1422_1726" x1="133.565" y1="44.7535" x2="92.615" y2="150.969" gradientUnits="userSpaceOnUse">
<stop offset="0.424602" stop-color="#FFE16F"/>
<stop offset="0.85" stop-color="#FFA450"/>
</linearGradient>
<linearGradient id="paint5_linear_1422_1726" x1="92.6719" y1="42.5566" x2="63.5331" y2="108.419" gradientUnits="userSpaceOnUse">
<stop offset="0.674468" stop-color="#FFFBEE"/>
<stop offset="1" stop-color="#FBD5A9"/>
</linearGradient>
<radialGradient id="paint6_radial_1422_1726" cx="0" cy="0" r="1" gradientUnits="userSpaceOnUse" gradientTransform="translate(124.484 79.5889) rotate(90) scale(11.8143 11.7726)">
<stop offset="0.52" stop-color="#FFB6B6"/>
<stop offset="1" stop-color="#FFFCEE"/>
</radialGradient>
<radialGradient id="paint7_radial_1422_1726" cx="0" cy="0" r="1" gradientUnits="userSpaceOnUse" gradientTransform="translate(63.3254 79.5889) rotate(90) scale(11.8143 11.7726)">
<stop offset="0.52" stop-color="#FFB6B6"/>
<stop offset="1" stop-color="#FFFCEE"/>
</radialGradient>
<linearGradient id="paint8_linear_1422_1726" x1="113.103" y1="13.2193" x2="82.8565" y2="50.9754" gradientUnits="userSpaceOnUse">
<stop stop-color="#FFC8B0"/>
<stop offset="0.41" stop-color="#FF9E9E"/>
<stop offset="1" stop-color="#FF8D69"/>
</linearGradient>
<linearGradient id="paint9_linear_1422_1726" x1="129.284" y1="47.0898" x2="124.759" y2="56.1402" gradientUnits="userSpaceOnUse">
<stop stop-color="#84C4FF"/>
<stop offset="1" stop-color="#178FFD"/>
</linearGradient>
<linearGradient id="paint10_linear_1422_1726" x1="21.8296" y1="0" x2="21.8296" y2="43.6591" gradientUnits="userSpaceOnUse">
<stop stop-color="white"/>
<stop offset="0.525" stop-color="white"/>
<stop offset="1" stop-color="white" stop-opacity="0.29"/>
</linearGradient>
<linearGradient id="paint11_linear_1422_1726" x1="67.9217" y1="115.438" x2="57.0138" y2="139.74" gradientUnits="userSpaceOnUse">
<stop stop-color="#FFE16F"/>
<stop offset="1" stop-color="#FF9A51"/>
</linearGradient>
<linearGradient id="paint12_linear_1422_1726" x1="94.8656" y1="132.942" x2="92.633" y2="143.705" gradientUnits="userSpaceOnUse">
<stop stop-color="#FFE16F"/>
<stop offset="1" stop-color="#FF9A51"/>
</linearGradient>
<linearGradient id="paint13_linear_1422_1726" x1="93.2625" y1="118.159" x2="93.2625" y2="145.153" gradientUnits="userSpaceOnUse">
<stop offset="0.385" stop-color="#FFE16F"/>
<stop offset="1" stop-color="#FFC34E"/>
</linearGradient>
<linearGradient id="paint14_linear_1422_1726" x1="93.2625" y1="118.159" x2="93.2625" y2="145.153" gradientUnits="userSpaceOnUse">
<stop offset="0.385" stop-color="#FFE16F"/>
<stop offset="1" stop-color="#FFC34E"/>
</linearGradient>
<linearGradient id="paint15_linear_1422_1726" x1="94.8656" y1="132.942" x2="92.633" y2="143.705" gradientUnits="userSpaceOnUse">
<stop stop-color="#FFE16F"/>
<stop offset="1" stop-color="#FF9A51"/>
</linearGradient>
</defs>
</svg>
