<svg width="36" height="29" viewBox="0 0 36 29" fill="none" xmlns="http://www.w3.org/2000/svg">
<path fill-rule="evenodd" clip-rule="evenodd" d="M4.77061 19.6958C2.53003 17.7111 1.12889 14.8816 1.12889 11.7411C1.12889 5.7368 6.25064 0.869324 12.5686 0.869324C18.8866 0.869324 24.0084 5.7368 24.0084 11.7411C24.0084 17.7455 18.8866 22.6129 12.5686 22.6129C11.3846 22.6129 10.2427 22.442 9.16852 22.1247L5.80155 23.9911C4.82784 24.5308 3.6843 23.6285 3.98096 22.5545L4.77061 19.6958Z" fill="white"/>
<path d="M4.77061 19.6958L5.19831 19.2129L5.49949 19.4797L5.39237 19.8675L4.77061 19.6958ZM9.16852 22.1247L8.85579 21.5605L9.09212 21.4295L9.35127 21.5061L9.16852 22.1247ZM5.80155 23.9911L5.48882 23.4269L5.48882 23.4269L5.80155 23.9911ZM3.98096 22.5545L3.3592 22.3828L3.3592 22.3828L3.98096 22.5545ZM1.77393 11.7411C1.77393 14.6836 3.08557 17.3415 5.19831 19.2129L4.34291 20.1786C1.97449 18.0807 0.483855 15.0797 0.483855 11.7411H1.77393ZM12.5686 1.51436C6.57554 1.51436 1.77393 6.1236 1.77393 11.7411H0.483855C0.483855 5.35 5.92574 0.224286 12.5686 0.224286V1.51436ZM23.3633 11.7411C23.3633 6.1236 18.5617 1.51436 12.5686 1.51436V0.224286C19.2115 0.224286 24.6534 5.35 24.6534 11.7411H23.3633ZM12.5686 21.9679C18.5617 21.9679 23.3633 17.3587 23.3633 11.7411H24.6534C24.6534 18.1323 19.2115 23.258 12.5686 23.258V21.9679ZM9.35127 21.5061C10.3665 21.806 11.4469 21.9679 12.5686 21.9679V23.258C11.3223 23.258 10.1188 23.078 8.98576 22.7433L9.35127 21.5061ZM9.48125 22.6888L6.11428 24.5552L5.48882 23.4269L8.85579 21.5605L9.48125 22.6888ZM6.11428 24.5552C4.63873 25.3732 2.91092 24.0057 3.3592 22.3828L4.60271 22.7263C4.45769 23.2513 5.01695 23.6885 5.48882 23.4269L6.11428 24.5552ZM3.3592 22.3828L4.14886 19.524L5.39237 19.8675L4.60271 22.7263L3.3592 22.3828Z" fill="black"/>
<path fill-rule="evenodd" clip-rule="evenodd" d="M31.3221 23.0816C33.6644 21.0061 35.129 18.0476 35.129 14.7641C35.129 8.48474 29.7727 3.39435 23.1654 3.39435C16.558 3.39435 11.2017 8.48474 11.2017 14.7641C11.2017 21.0434 16.558 26.1338 23.1654 26.1338C24.404 26.1338 25.5986 25.9549 26.7222 25.6228L30.3643 27.6417C31.338 28.1815 32.4815 27.2792 32.1849 26.2052L31.3221 23.0816Z" fill="white"/>
<path d="M31.3221 23.0816L30.8943 22.5988L30.5932 22.8656L30.7003 23.2533L31.3221 23.0816ZM26.7222 25.6228L27.035 25.0587L26.7986 24.9276L26.5394 25.0042L26.7222 25.6228ZM30.3643 27.6417L30.677 27.0776L30.677 27.0776L30.3643 27.6417ZM32.1849 26.2052L31.5631 26.3769L31.5631 26.3769L32.1849 26.2052ZM34.484 14.7641C34.484 17.8496 33.1088 20.6365 30.8943 22.5988L31.7499 23.5644C34.2199 21.3756 35.774 18.2456 35.774 14.7641H34.484ZM23.1654 4.03939C29.4478 4.03939 34.484 8.87154 34.484 14.7641H35.774C35.774 8.09794 30.0976 2.74931 23.1654 2.74931V4.03939ZM11.8468 14.7641C11.8468 8.87154 16.8829 4.03939 23.1654 4.03939V2.74931C16.2331 2.74931 10.5567 8.09794 10.5567 14.7641H11.8468ZM23.1654 25.4887C16.8829 25.4887 11.8468 20.6566 11.8468 14.7641H10.5567C10.5567 21.4302 16.2331 26.7788 23.1654 26.7788V25.4887ZM26.5394 25.0042C25.4747 25.3189 24.3416 25.4887 23.1654 25.4887V26.7788C24.4663 26.7788 25.7225 26.5909 26.905 26.2414L26.5394 25.0042ZM26.4095 26.187L30.0515 28.2059L30.677 27.0776L27.035 25.0587L26.4095 26.187ZM30.0515 28.2059C31.5271 29.0238 33.2549 27.6564 32.8066 26.0334L31.5631 26.3769C31.7081 26.902 31.1489 27.3391 30.677 27.0776L30.0515 28.2059ZM32.8066 26.0334L31.9438 22.9098L30.7003 23.2533L31.5631 26.3769L32.8066 26.0334Z" fill="black"/>
<ellipse cx="18.7579" cy="14.7658" rx="1.25933" ry="1.2633" fill="black"/>
<ellipse cx="23.795" cy="14.7658" rx="1.25933" ry="1.2633" fill="black"/>
<ellipse cx="28.8312" cy="14.7658" rx="1.25933" ry="1.2633" fill="black"/>
</svg>
