<svg width="36" height="29" viewBox="0 0 36 29" fill="none" xmlns="http://www.w3.org/2000/svg">
<path d="M4.64164 19.8264L5.06935 19.3436L5.37052 19.6104L5.2634 19.9982L4.64164 19.8264ZM9.03955 22.2554L8.72682 21.6912L8.96316 21.5602L9.2223 21.6368L9.03955 22.2554ZM5.67258 24.1218L5.35985 23.5576L5.35985 23.5576L5.67258 24.1218ZM3.85199 22.6852L3.23023 22.5135L3.23023 22.5135L3.85199 22.6852ZM1.64496 11.8718C1.64496 14.8142 2.9566 17.4721 5.06935 19.3436L4.21394 20.3093C1.84552 18.2114 0.354887 15.2104 0.354887 11.8718H1.64496ZM12.4397 1.64505C6.44657 1.64505 1.64496 6.25428 1.64496 11.8718H0.354887C0.354887 5.48068 5.79677 0.354969 12.4397 0.354969V1.64505ZM23.2344 11.8718C23.2344 6.25428 18.4327 1.64505 12.4397 1.64505V0.354969C19.0826 0.354969 24.5244 5.48068 24.5244 11.8718H23.2344ZM12.4397 22.0986C18.4327 22.0986 23.2344 17.4894 23.2344 11.8718H24.5244C24.5244 18.263 19.0826 23.3887 12.4397 23.3887V22.0986ZM9.2223 21.6368C10.2375 21.9367 11.318 22.0986 12.4397 22.0986V23.3887C11.1934 23.3887 9.98985 23.2087 8.8568 22.874L9.2223 21.6368ZM9.35228 22.8195L5.98531 24.6859L5.35985 23.5576L8.72682 21.6912L9.35228 22.8195ZM5.98531 24.6859C4.50976 25.5039 2.78195 24.1364 3.23023 22.5135L4.47375 22.857C4.32872 23.382 4.88799 23.8192 5.35985 23.5576L5.98531 24.6859ZM3.23023 22.5135L4.01989 19.6547L5.2634 19.9982L4.47374 22.857L3.23023 22.5135Z" fill="black"/>
<path fill-rule="evenodd" clip-rule="evenodd" d="M31.1931 23.2123C33.5354 21.1368 35 18.1783 35 14.8947C35 8.61543 29.6437 3.52504 23.0364 3.52504C16.4291 3.52504 11.0728 8.61543 11.0728 14.8947C11.0728 21.1741 16.4291 26.2644 23.0364 26.2644C24.275 26.2644 25.4696 26.0856 26.5933 25.7535L30.2353 27.7724C31.209 28.3122 32.3525 27.4099 32.0559 26.3359L31.1931 23.2123Z" fill="white"/>
<path d="M31.1931 23.2123L30.7653 22.7295L30.4642 22.9963L30.5713 23.384L31.1931 23.2123ZM26.5933 25.7535L26.906 25.1894L26.6696 25.0583L26.4104 25.1349L26.5933 25.7535ZM30.2353 27.7724L30.548 27.2083L30.548 27.2083L30.2353 27.7724ZM32.0559 26.3359L31.4341 26.5076L31.4341 26.5076L32.0559 26.3359ZM34.355 14.8947C34.355 17.9803 32.9798 20.7672 30.7653 22.7295L31.6209 23.695C34.091 21.5063 35.6451 18.3763 35.6451 14.8947H34.355ZM23.0364 4.17008C29.3188 4.17008 34.355 9.00223 34.355 14.8947H35.6451C35.6451 8.22863 29.9686 2.88 23.0364 2.88V4.17008ZM11.7178 14.8947C11.7178 9.00223 16.754 4.17008 23.0364 4.17008V2.88C16.1042 2.88 10.4277 8.22863 10.4277 14.8947H11.7178ZM23.0364 25.6194C16.754 25.6194 11.7178 20.7873 11.7178 14.8947H10.4277C10.4277 21.5609 16.1042 26.9095 23.0364 26.9095V25.6194ZM26.4104 25.1349C25.3457 25.4496 24.2127 25.6194 23.0364 25.6194V26.9095C24.3373 26.9095 25.5935 26.7216 26.7761 26.3721L26.4104 25.1349ZM26.2805 26.3177L29.9226 28.3366L30.548 27.2083L26.906 25.1894L26.2805 26.3177ZM29.9226 28.3366C31.3981 29.1545 33.1259 27.7871 32.6776 26.1641L31.4341 26.5076C31.5792 27.0326 31.0199 27.4698 30.548 27.2083L29.9226 28.3366ZM32.6776 26.1641L31.8149 23.0405L30.5713 23.384L31.4341 26.5076L32.6776 26.1641Z" fill="black"/>
<ellipse cx="18.629" cy="14.8965" rx="1.25933" ry="1.2633" fill="black"/>
<ellipse cx="23.6661" cy="14.8965" rx="1.25933" ry="1.2633" fill="black"/>
<ellipse cx="28.7022" cy="14.8965" rx="1.25933" ry="1.2633" fill="black"/>
</svg>
