<svg width="42" height="16" viewBox="0 0 42 16" fill="none" xmlns="http://www.w3.org/2000/svg">
<path fill-rule="evenodd" clip-rule="evenodd" d="M7.3042 10.5297L14.4903 3.58272L13.061 2.20097L5.87488 9.14793L7.3042 10.5297ZM6.94471 11.583C7.14325 11.775 7.46515 11.775 7.66368 11.583L15.5799 3.93024C15.7785 3.73831 15.7785 3.42713 15.5799 3.23519L13.4205 1.14763C13.222 0.955697 12.9001 0.955697 12.7015 1.14763L4.78528 8.80041C4.58674 8.99234 4.58674 9.30352 4.78528 9.49545L6.94471 11.583Z" fill="#656565"/>
<path d="M2.88337 13.2127L3.79265 9.93218L6.27686 12.3337L2.88337 13.2127Z" stroke="#656565" stroke-width="1.00775"/>
<path d="M26.4778 3.31982C26.4898 4.63983 27.9778 5.99583 30.2458 6.29583L29.7178 7.35183C27.9298 7.07583 26.5018 6.18783 25.8058 4.98783C25.1098 6.18783 23.6938 7.07583 21.9178 7.35183L21.3898 6.29583C23.6338 5.99583 25.1218 4.65183 25.1338 3.31982V2.76783H26.4778V3.31982ZM20.9818 9.31983V8.26383H30.6298V9.31983H26.4298V13.0158H25.1338V9.31983H20.9818ZM40.2089 2.43182V8.71983H38.9129V6.15183H37.1129V5.07183H38.9129V2.43182H40.2089ZM31.3049 7.66383C33.0089 7.08783 33.9089 5.65983 33.9209 4.25583V4.18383H31.7129V3.12783H37.4249V4.18383H35.2409V4.25583C35.2409 5.53983 36.0929 6.83583 37.7369 7.37583L37.0649 8.40783C35.8889 8.02383 35.0609 7.20783 34.6049 6.22383C34.1369 7.33983 33.2609 8.25183 32.0009 8.69583L31.3049 7.66383ZM33.0329 10.9998C33.0209 9.73983 34.4009 8.99583 36.6329 8.98383C38.8769 8.99583 40.2449 9.73983 40.2569 10.9998C40.2449 12.2838 38.8769 13.0278 36.6329 13.0398C34.4009 13.0278 33.0209 12.2838 33.0329 10.9998ZM34.3289 10.9998C34.3169 11.6718 35.1569 12.0198 36.6329 12.0078C38.1089 12.0198 38.9489 11.6718 38.9609 10.9998C38.9489 10.3518 38.1089 9.99183 36.6329 9.99183C35.1569 9.99183 34.3169 10.3518 34.3289 10.9998Z" fill="#656565"/>
</svg>
