<svg width="40" height="40" viewBox="0 0 40 40" fill="none" xmlns="http://www.w3.org/2000/svg">
<path d="M27.5739 8.08086C27.6343 7.95162 27.818 7.95162 27.8783 8.08086L29.0902 10.6776C29.207 10.9278 29.4082 11.1289 29.6584 11.2457L32.2551 12.4576C32.3843 12.5179 32.3843 12.7017 32.2551 12.762L29.6584 13.9739C29.4082 14.0907 29.207 14.2918 29.0902 14.5421L27.8783 17.1388C27.818 17.268 27.6343 17.268 27.5739 17.1388L26.3621 14.5421C26.2453 14.2918 26.0441 14.0907 25.7939 13.9739L23.1972 12.762C23.068 12.7017 23.068 12.5179 23.1972 12.4576L25.7939 11.2457C26.0441 11.1289 26.2453 10.9278 26.3621 10.6776L27.5739 8.08086Z" fill="#1689F3" stroke="black" stroke-width="1.00775"/>
<path d="M21.6085 25.1999L22.0256 25.3946L21.6085 25.1999L18.4726 31.9191C18.4123 32.0483 18.2286 32.0483 18.1682 31.9191L15.0324 25.1999C14.9156 24.9496 14.7144 24.7485 14.4642 24.6317L7.74498 21.4958C7.61574 21.4355 7.61574 21.2517 7.74498 21.1914L14.4642 18.0556C14.7144 17.9388 14.9156 17.7376 15.0324 17.4874L18.1682 10.7682C18.2286 10.6389 18.4123 10.6389 18.4726 10.7682L21.6085 17.4874C21.7253 17.7376 21.9264 17.9388 22.1767 18.0556L22.3898 17.599L22.1767 18.0556L28.8959 21.1914C29.0251 21.2517 29.0251 21.4355 28.8959 21.4958L22.1767 24.6317C21.9264 24.7485 21.7253 24.9496 21.6085 25.1999Z" fill="white" stroke="black" stroke-width="1.00775"/>
</svg>
