<svg width="24" height="24" viewBox="0 0 24 24" fill="none" xmlns="http://www.w3.org/2000/svg">
<path d="M17.1849 6.16216C17.1849 9.28961 14.6515 11.8243 11.527 11.8243C8.40259 11.8243 5.86914 9.28961 5.86914 6.16216C5.86914 3.03471 8.40259 0.5 11.527 0.5C14.6515 0.5 17.1849 3.03471 17.1849 6.16216Z" fill="white" stroke="#737373"/>
<path d="M0.534319 23.3847C0.756481 21.4015 2.05478 19.5791 4.10964 18.2383C6.16164 16.8993 8.9336 16.0676 12 16.0676C15.0664 16.0676 17.8384 16.8993 19.8904 18.2383C21.9452 19.5791 23.2435 21.4015 23.4657 23.3847L23.9626 23.3291L23.4657 23.3847C23.4686 23.411 23.4615 23.4336 23.4402 23.4556C23.4167 23.48 23.3774 23.5 23.3282 23.5H0.671835C0.622589 23.5 0.583348 23.48 0.559785 23.4556C0.538526 23.4336 0.531382 23.411 0.534319 23.3847Z" fill="white" stroke="#737373"/>
</svg>
