<svg width="7" height="12" viewBox="0 0 7 12" fill="none" xmlns="http://www.w3.org/2000/svg">
<path d="M6.92214 3.88728C6.92214 5.27431 6.11863 6.68781 4.82335 9.43864C4.43197 10.2698 3.20785 10.2569 2.82386 9.42227C1.574 6.7057 0.688538 5.26861 0.688538 3.88728C0.688538 2.16592 2.08398 0.770477 3.80534 0.770477C5.5267 0.770477 6.92214 2.16592 6.92214 3.88728Z" fill="#1689F3"/>
<circle cx="3.80534" cy="3.97896" r="1.74174" fill="white"/>
<path d="M6.92214 3.88728C6.92214 5.27431 6.11863 6.68781 4.82335 9.43864C4.43197 10.2698 3.20785 10.2569 2.82386 9.42227C1.574 6.7057 0.688538 5.26861 0.688538 3.88728C0.688538 2.16592 2.08398 0.770477 3.80534 0.770477C5.5267 0.770477 6.92214 2.16592 6.92214 3.88728Z" fill="#1689F3"/>
<circle cx="3.80534" cy="397896" r="1.74174" fill="white"/>
<path d="M6.92214 3.88728C6.92214 5.27431 6.11863 6.68781 4.82335 9.43864C4.43197 10.2698 3.20785 10.2569 2.82386 9.42227C1.574 6.7057 0.688538 5.26861 0.688538 3.88728C0.688538 2.16592 2.08398 0.770477 3.80534 0.770477C5.5267 0.770477 6.92214 2.16592 6.92214 3.88728Z" fill="#1689F3"/>
<circle cx="3.80534" cy="3.97896" r="1.74174" fill="white"/>
<path d="M6.92214 3.88728C6.92214 5.27431 6.11863 6.68781 4.82335 9.43864C4.43197 10.2698 3.20785 10.2569 2.82386 9.42227C1.574 6.7057 0.688538 5.26861 0.688538 3.88728C0.688538 2.16592 2.08398 0.770477 3.80534 0.770477C5.5267 0.770477 6.92214 2.16592 6.92214 3.88728Z" fill="#1689F3"/>
<circle cx="3.80534" cy="3.97896" r="1.74174" fill="white"/>
<path d="M6.92214 3.88728C6.92214 5.27431 6.11863 6.68781 4.82335 9.43864C4.43197 10.2698 3.20785 10.2569 2.82386 9.42227C1.574 6.7057 0.688538 5.26861 0.688538 3.88728C0.688538 2.16592 2.08398 0.770477 3.80534 0.770477C5.5267 0.770477 6.92214 2.16592 6.92214 3.88728Z" fill="#1689F3"/>
<circle cx="3.80534" cy="3.97896" r="1.74174" fill="white"/>
<path d="M6.92214 3.93675C6.92214 5.34478 6.1198 6.77965 4.82616 9.57015C4.43741 10.4087 3.20271 10.3959 2.8213 9.55395C1.57279 6.79792 0.688538 5.33905 0.688538 3.93675C0.688538 2.18807 2.08398 0.770477 3.80534 0.770477C5.5267 0.770477 6.92214 2.18807 6.92214 3.93675Z" fill="#1689F3"/>
<circle cx="3.80534" cy="3.97896" r="1.74174" fill="white"/>
</svg>
