<svg width="350" height="44" viewBox="0 0 350 44" fill="none" xmlns="http://www.w3.org/2000/svg">
<rect x="0.500009" y="0.5" width="349" height="43" rx="11.5" transform="matrix(1 0 1.75235e-05 1 -8.73194e-06 0)" fill="white" stroke="#D1D1D1"/>
<g clip-path="url(#clip0_1069_1891)">
<path d="M132.36 23C132.36 24.0259 131.999 25.0191 131.339 25.8047C130.679 26.5902 129.763 27.1177 128.753 27.2943C127.742 27.4708 126.702 27.285 125.815 26.7697C124.928 26.2543 124.251 25.4424 123.904 24.4771L121.41 26.4718C122.186 27.9456 123.433 29.1172 124.952 29.7994C126.471 30.4816 128.175 30.6351 129.791 30.2355C131.408 29.8358 132.844 28.9059 133.871 27.5944C134.897 26.2829 135.454 24.6653 135.453 23" fill="#00AC47"/>
<path d="M132.359 23C132.359 23.6936 132.192 24.377 131.874 24.9932C131.556 25.6095 131.095 26.1409 130.53 26.543L132.995 28.5151C133.768 27.8191 134.387 26.9686 134.81 26.0186C135.233 25.0685 135.452 24.0401 135.453 23" fill="#4285F4"/>
<path d="M123.641 23C123.642 22.4961 123.731 21.9962 123.904 21.523L121.41 19.5282C120.843 20.5976 120.547 21.7896 120.547 23C120.547 24.2104 120.843 25.4024 121.41 26.4718L123.904 24.4771C123.731 24.0038 123.642 23.5039 123.641 23Z" fill="#FFBA00"/>
<path d="M128 18.6406C128.923 18.6409 129.821 18.9357 130.564 19.482L132.848 17.3505C132 16.6196 130.998 16.0896 129.917 15.8C128.836 15.5104 127.703 15.4687 126.603 15.6781C125.504 15.8874 124.466 16.3424 123.566 17.0091C122.667 17.6758 121.93 18.5369 121.41 19.5282L123.904 21.5229C124.208 20.68 124.764 19.9511 125.497 19.4354C126.23 18.9197 127.104 18.6422 128 18.6406Z" fill="#EA4435"/>
<path d="M135.453 22.4375V23L134.188 24.9688H128.281V21.875H134.891C135.04 21.875 135.183 21.9343 135.288 22.0398C135.394 22.1452 135.453 22.2883 135.453 22.4375Z" fill="#4285F4"/>
</g>
<path opacity="0.54" d="M150.325 28.535C148.855 28.535 147.705 28.125 146.875 27.305C146.055 26.485 145.645 25.235 145.645 23.555V23.255C145.645 22.335 145.775 21.535 146.035 20.855C146.295 20.165 146.655 19.63 147.115 19.25C147.575 18.86 148.08 18.575 148.63 18.395C149.18 18.215 149.785 18.125 150.445 18.125C151.455 18.125 152.335 18.33 153.085 18.74V19.865C152.155 19.455 151.24 19.25 150.34 19.25C149.2 19.25 148.37 19.61 147.85 20.33C147.33 21.05 147.07 21.96 147.07 23.06V23.525C147.07 24.775 147.31 25.74 147.79 26.42C148.27 27.09 149.13 27.425 150.37 27.425C151.05 27.425 151.65 27.33 152.17 27.14V24.53H150.055V23.435H153.475V27.95C152.525 28.34 151.475 28.535 150.325 28.535ZM158.335 28.505C157.265 28.505 156.43 28.18 155.83 27.53C155.24 26.87 154.945 25.96 154.945 24.8V24.545C154.945 23.385 155.255 22.465 155.875 21.785C156.495 21.105 157.32 20.765 158.35 20.765C159.42 20.765 160.255 21.095 160.855 21.755C161.455 22.415 161.755 23.33 161.755 24.5V24.74C161.755 25.9 161.44 26.82 160.81 27.5C160.19 28.17 159.365 28.505 158.335 28.505ZM158.365 27.455C159.025 27.455 159.53 27.235 159.88 26.795C160.24 26.345 160.42 25.705 160.42 24.875V24.47C160.42 22.7 159.72 21.815 158.32 21.815C157.67 21.815 157.165 22.04 156.805 22.49C156.445 22.94 156.265 23.58 156.265 24.41V24.83C156.265 26.58 156.965 27.455 158.365 27.455ZM166.245 28.505C165.175 28.505 164.34 28.18 163.74 27.53C163.15 26.87 162.855 25.96 162.855 24.8V24.545C162.855 23.385 163.165 22.465 163.785 21.785C164.405 21.105 165.23 20.765 166.26 20.765C167.33 20.765 168.165 21.095 168.765 21.755C169.365 22.415 169.665 23.33 169.665 24.5V24.74C169.665 25.9 169.35 26.82 168.72 27.5C168.1 28.17 167.275 28.505 166.245 28.505ZM166.275 27.455C166.935 27.455 167.44 27.235 167.79 26.795C168.15 26.345 168.33 25.705 168.33 24.875V24.47C168.33 22.7 167.63 21.815 166.23 21.815C165.58 21.815 165.075 22.04 164.715 22.49C164.355 22.94 164.175 23.58 164.175 24.41V24.83C164.175 26.58 164.875 27.455 166.275 27.455ZM173.855 30.575C171.605 30.575 170.48 30.035 170.48 28.955C170.48 28.585 170.605 28.275 170.855 28.025C171.115 27.765 171.455 27.575 171.875 27.455V27.38C171.375 27.19 171.125 26.89 171.125 26.48C171.125 25.99 171.41 25.54 171.98 25.13C171.36 24.74 171.05 24.14 171.05 23.33V23.18C171.05 22.43 171.31 21.84 171.83 21.41C172.36 20.98 173.045 20.765 173.885 20.765C174.275 20.765 174.64 20.81 174.98 20.9H177.515V21.86H176.24C176.55 22.18 176.705 22.6 176.705 23.12V23.27C176.705 24.03 176.44 24.61 175.91 25.01C175.39 25.41 174.71 25.61 173.87 25.61C173.43 25.61 173.02 25.55 172.64 25.43C172.43 25.59 172.325 25.78 172.325 26C172.325 26.18 172.38 26.305 172.49 26.375C172.6 26.445 172.78 26.48 173.03 26.48H175.07C176.65 26.48 177.44 27.11 177.44 28.37C177.44 29.84 176.245 30.575 173.855 30.575ZM173.825 29.57C174.665 29.57 175.255 29.495 175.595 29.345C175.935 29.195 176.105 28.935 176.105 28.565C176.105 28.255 176.01 28.03 175.82 27.89C175.63 27.75 175.3 27.68 174.83 27.68H172.73C172.13 27.89 171.83 28.255 171.83 28.775C171.83 29.095 171.975 29.305 172.265 29.405C172.565 29.515 173.085 29.57 173.825 29.57ZM173.87 24.65C174.92 24.65 175.445 24.21 175.445 23.33V23.105C175.445 22.645 175.305 22.3 175.025 22.07C174.745 21.84 174.36 21.725 173.87 21.725C173.38 21.725 173 21.845 172.73 22.085C172.46 22.325 172.325 22.655 172.325 23.075V23.3C172.325 24.2 172.84 24.65 173.87 24.65ZM178.76 28.37V17.63H180.05V28.37H178.76ZM185.218 28.505C184.058 28.505 183.173 28.175 182.563 27.515C181.963 26.845 181.663 25.925 181.663 24.755V24.53C181.663 23.3 181.973 22.365 182.593 21.725C183.223 21.085 184.008 20.765 184.948 20.765C186.958 20.765 187.963 21.94 187.963 24.29V25.01H182.983C183.023 25.87 183.248 26.485 183.658 26.855C184.068 27.225 184.658 27.41 185.428 27.41C186.258 27.41 187.028 27.22 187.738 26.84V27.785C187.108 28.265 186.268 28.505 185.218 28.505ZM184.888 21.8C184.398 21.8 183.968 21.97 183.598 22.31C183.238 22.64 183.033 23.195 182.983 23.975H186.613C186.613 23.215 186.468 22.665 186.178 22.325C185.898 21.975 185.468 21.8 184.888 21.8ZM204.866 28.385H193.031V27.305H198.251V25.235H194.456V21.02H202.076V19.1H194.426V18.02H203.396V22.1H195.776V24.155H203.756V25.235H199.586V27.305H204.866V28.385ZM217.844 28.145H206.009V27.065H217.844V28.145ZM216.269 18.425C216.269 21.775 216.064 24.34 215.654 26.12L214.364 25.955C214.524 25.355 214.654 24.395 214.754 23.075C214.864 21.745 214.919 20.55 214.919 19.49H207.239V18.425H216.269ZM229.743 26.465H228.408V16.94H229.743V26.465ZM230.043 29.645H221.118V25.565H222.453V28.58H230.043V29.645ZM220.278 18.77C220.938 18.14 221.773 17.825 222.783 17.825C223.793 17.825 224.628 18.135 225.288 18.755C225.958 19.375 226.293 20.155 226.293 21.095C226.293 22.035 225.963 22.805 225.303 23.405C224.643 23.995 223.803 24.29 222.783 24.29C221.773 24.29 220.938 23.995 220.278 23.405C219.618 22.805 219.288 22.04 219.288 21.11C219.288 20.17 219.618 19.39 220.278 18.77ZM222.783 18.965C222.173 18.965 221.668 19.165 221.268 19.565C220.878 19.965 220.683 20.47 220.683 21.08C220.683 21.68 220.878 22.18 221.268 22.58C221.668 22.98 222.173 23.18 222.783 23.18C223.423 23.18 223.933 22.985 224.313 22.595C224.693 22.205 224.883 21.705 224.883 21.095C224.883 20.465 224.693 19.955 224.313 19.565C223.933 19.165 223.423 18.965 222.783 18.965Z" fill="black"/>
<defs>
<clipPath id="clip0_1069_1891">
<rect width="18" height="18" fill="white" transform="translate(119 14)"/>
</clipPath>
</defs>
</svg>
