<svg width="351" height="46" viewBox="0 0 351 46" fill="none" xmlns="http://www.w3.org/2000/svg">
<rect width="349.896" height="44.1769" rx="9.40569" transform="matrix(0.999997 -0.00235284 0.00237036 0.999997 0.155273 1.59155)" fill="#F2F2F2"/>
<path d="M160.222 22.4642C159.896 21.4605 159.134 20.8317 157.997 20.8438C156.558 20.8317 155.458 21.9684 155.458 24.0363C155.458 26.1163 156.546 27.241 158.046 27.2531C159.424 27.241 160.331 26.3824 160.343 25.0038H158.239V23.9396H161.625V24.907C161.613 27.0717 160.126 28.4382 158.046 28.4382C155.736 28.4382 154.164 26.7452 154.152 24.0363C154.164 21.3154 155.772 19.6466 157.997 19.6587C159.835 19.6466 161.262 20.7954 161.553 22.4642H160.222ZM165.952 28.4382C164.138 28.4503 162.953 27.1201 162.953 25.1489C162.953 23.1414 164.138 21.8233 165.952 21.8112C167.754 21.8233 168.939 23.1414 168.951 25.1489C168.939 27.1201 167.754 28.4503 165.952 28.4382ZM164.211 25.1489C164.223 26.3582 164.779 27.3982 165.952 27.3982C167.113 27.3982 167.67 26.3582 167.67 25.1489C167.67 23.9154 167.113 22.8633 165.952 22.8754C164.779 22.8633 164.223 23.9154 164.211 25.1489ZM173.138 28.4382C171.324 28.4503 170.139 27.1201 170.139 25.1489C170.139 23.1414 171.324 21.8233 173.138 21.8112C174.94 21.8233 176.125 23.1414 176.137 25.1489C176.125 27.1201 174.94 28.4503 173.138 28.4382ZM171.397 25.1489C171.409 26.3582 171.965 27.3982 173.138 27.3982C174.299 27.3982 174.855 26.3582 174.855 25.1489C174.855 23.9154 174.299 22.8633 173.138 22.8754C171.965 22.8633 171.409 23.9154 171.397 25.1489ZM180.3 30.8568C178.68 30.8568 177.615 30.1433 177.494 28.9461H178.8C178.909 29.5507 179.478 29.841 180.324 29.841C181.316 29.841 181.945 29.4177 181.945 28.414V27.1563H181.872C181.642 27.5554 181.183 28.2205 180.01 28.2205C178.498 28.2205 177.325 27.0959 177.325 25.0521C177.325 22.9963 178.474 21.8233 180.034 21.8112C181.207 21.8233 181.654 22.5368 181.872 22.948H181.969V21.908H183.202V28.4624C183.202 30.107 181.957 30.8568 180.3 30.8568ZM178.607 25.0763C178.607 26.3219 179.187 27.1805 180.3 27.1805C181.364 27.1805 181.969 26.3945 181.969 25.0763C181.969 23.7703 181.376 22.8875 180.3 22.8996C179.175 22.8875 178.607 23.8428 178.607 25.0763ZM186.248 19.7554V28.3173H184.99V19.7554H186.248ZM190.8 28.4382C188.913 28.4503 187.753 27.1442 187.753 25.1489C187.753 23.1777 188.926 21.8233 190.703 21.8112C192.179 21.8233 193.569 22.7303 193.557 25.0521V25.4875H189.01C189.034 26.721 189.748 27.4103 190.824 27.3982C191.526 27.4103 191.997 27.0959 192.203 26.6968H193.485C193.194 27.7489 192.215 28.4503 190.8 28.4382ZM189.01 24.5442H192.324C192.324 23.5768 191.695 22.8512 190.727 22.8512C189.724 22.8512 189.071 23.6373 189.01 24.5442ZM204.363 27.108V28.0512H194.665V27.108H198.921V25.2456H195.85V21.8838H202.065V20.4084H195.825V19.4894H203.178V22.8028H196.962V24.3266H203.42V25.2456H200.034V27.108H204.363ZM212.446 21.4242C212.434 23.3591 213.595 25.3061 215.227 26.0438L214.574 26.9145C213.353 26.3461 212.386 25.161 211.89 23.7219C211.406 25.2698 210.427 26.5396 209.157 27.1563L208.48 26.2131C210.136 25.4754 211.309 23.4559 211.309 21.4242V19.6103H212.446V21.4242ZM216.195 29.3331V18.7396H217.332V29.3331H216.195ZM222.946 20.6261C222.946 21.9926 223.877 23.2745 225.485 23.8187L224.929 24.6894C223.732 24.2782 222.849 23.4438 222.39 22.4038C221.93 23.5526 221.011 24.4475 219.778 24.8828L219.173 24.0121C220.818 23.4559 221.809 22.0894 221.833 20.6261V20.3359H219.487V19.441H225.219V20.3359H222.946V20.6261ZM220.576 26.5517V25.6326H227.565V29.3089H226.453V26.5517H220.576ZM226.453 25.1247V18.7396H227.565V21.4484H229.089V22.3917H227.565V25.1247H226.453Z" fill="black"/>
<g clip-path="url(#clip0_777_1080)">
<path d="M137.949 23.3453C137.949 24.4135 137.571 25.4476 136.881 26.2656C136.19 27.0835 135.231 27.6327 134.174 27.8165C133.116 28.0004 132.027 27.8069 131.098 27.2703C130.17 26.7337 129.462 25.8884 129.098 24.8833L126.488 26.9602C127.3 28.4948 128.605 29.7146 130.195 30.4249C131.785 31.1352 133.569 31.2951 135.261 30.8789C136.953 30.4628 138.456 29.4946 139.53 28.1291C140.604 26.7635 141.188 25.0793 141.187 23.3453" fill="#00AC47"/>
<path d="M137.948 23.3453C137.947 24.0675 137.773 24.779 137.44 25.4207C137.107 26.0624 136.625 26.6156 136.033 27.0343L138.613 29.0877C139.422 28.3631 140.07 27.4775 140.513 26.4883C140.956 25.4991 141.185 24.4283 141.186 23.3453" fill="#4285F4"/>
<path d="M128.822 23.3453C128.823 22.8207 128.917 22.3002 129.098 21.8074L126.488 19.7305C125.894 20.8439 125.584 22.0851 125.584 23.3453C125.584 24.6056 125.894 25.8467 126.488 26.9602L129.098 24.8833C128.917 24.3905 128.823 23.87 128.822 23.3453Z" fill="#FFBA00"/>
<path d="M133.386 18.8063C134.351 18.8066 135.291 19.1135 136.069 19.6824L138.46 17.4631C137.572 16.702 136.524 16.1501 135.392 15.8486C134.26 15.5471 133.075 15.5037 131.924 15.7217C130.773 15.9397 129.686 16.4134 128.745 17.1075C127.804 17.8017 127.032 18.6983 126.488 19.7305L129.098 21.8074C129.416 20.9297 129.999 20.1708 130.766 19.6338C131.533 19.0969 132.448 18.8079 133.386 18.8063Z" fill="#EA4435"/>
<path d="M141.186 22.7596V23.3453L139.862 25.3952H133.68V22.174H140.598C140.754 22.174 140.904 22.2357 141.014 22.3455C141.124 22.4553 141.186 22.6043 141.186 22.7596Z" fill="#4285F4"/>
</g>
<defs>
<clipPath id="clip0_777_1080">
<rect width="18.8406" height="18.7417" fill="white" transform="translate(123.965 13.9745)"/>
</clipPath>
</defs>
</svg>
