<svg width="351" height="46" viewBox="0 0 351 46" fill="none" xmlns="http://www.w3.org/2000/svg">
<rect width="349.896" height="44.1769" rx="9.40569" transform="matrix(0.999997 -0.00235284 0.00237036 0.999997 0.155273 1.23901)" fill="#01C73C"/>
<path d="M159.592 19.4754V25.3526C160.68 25.3526 161.708 25.2801 162.881 25.0382L163.05 25.9815C161.66 26.2838 160.487 26.3322 159.18 26.3443H158.479V19.4754H159.592ZM161.454 22.7889V21.8698H163.776V18.6289H164.84V28.4484H163.776V22.7889H161.454ZM166.025 28.9563V18.387H167.089V28.9563H166.025ZM177.468 18.387V28.9805H176.332V18.387H177.468ZM169.052 22.8857C169.052 20.6243 170.2 19.1852 171.785 19.1852C173.369 19.1852 174.53 20.6243 174.518 22.8857C174.53 25.1712 173.369 26.6103 171.785 26.6103C170.2 26.6103 169.052 25.1712 169.052 22.8857ZM170.14 22.8857C170.14 24.5666 170.817 25.6066 171.785 25.5945C172.764 25.6066 173.441 24.5666 173.429 22.8857C173.441 21.2289 172.764 20.1889 171.785 20.1768C170.817 20.1889 170.14 21.2289 170.14 22.8857ZM188.21 18.387V28.9805H187.097V23.1759H184.751V26.3684H179.793V19.2094H180.93V21.894H183.663V19.2094H184.751V22.2568H187.097V18.387H188.21ZM180.93 25.4494H183.663V22.7889H180.93V25.4494ZM199.774 26.7554V27.6987H190.075V26.7554H194.332V24.8931H191.261V21.5312H197.476V20.0559H191.236V19.1368H198.589V22.4503H192.373V23.974H198.831V24.8931H195.445V26.7554H199.774ZM207.857 21.0717C207.845 23.0066 209.006 24.9536 210.638 25.6912L209.985 26.5619C208.764 25.9936 207.797 24.8084 207.301 23.3694C206.817 24.9173 205.837 26.187 204.568 26.8038L203.89 25.8605C205.547 25.1229 206.72 23.1033 206.72 21.0717V19.2577H207.857V21.0717ZM211.606 28.9805V18.387H212.743V28.9805H211.606ZM218.357 20.2736C218.357 21.6401 219.288 22.9219 220.896 23.4661L220.34 24.3368C219.143 23.9257 218.26 23.0912 217.801 22.0512C217.341 23.2001 216.422 24.095 215.188 24.5303L214.584 23.6596C216.228 23.1033 217.22 21.7368 217.244 20.2736V19.9833H214.898V19.0884H220.63V19.9833H218.357V20.2736ZM215.987 26.1991V25.2801H222.976V28.9563H221.864V26.1991H215.987ZM221.864 24.7722V18.387H222.976V21.0959H224.5V22.0391H222.976V24.7722H221.864Z" fill="white"/>
<path d="M129.768 14.7933C129.615 14.7933 129.479 14.8513 129.359 14.9672C129.239 15.0831 129.18 15.2204 129.18 15.379V30.6066C129.18 30.7653 129.239 30.9025 129.359 31.0185C129.479 31.1344 129.615 31.1923 129.768 31.1923H145.076C145.23 31.1923 145.366 31.1344 145.486 31.0185C145.605 30.9025 145.665 30.7653 145.665 30.6066V15.379C145.665 15.2204 145.605 15.0831 145.486 14.9672C145.366 14.8513 145.23 14.7933 145.076 14.7933H129.768ZM132.869 18.8931H136.043L138.802 22.9928V18.8931H141.976V27.0926H138.802L136.043 22.9928V27.0926H132.869V18.8931Z" fill="white"/>
</svg>
