<svg width="351" height="46" viewBox="0 0 351 46" fill="none" xmlns="http://www.w3.org/2000/svg">
<rect width="349.896" height="44.1769" rx="9.40569" transform="matrix(0.999997 -0.00235284 0.00237036 0.999997 0.155273 0.886597)" fill="#FEE601"/>
<path d="M152.72 18.7641C152.72 21.8962 151.765 24.6655 147.907 26.5762L147.302 25.7297C149.213 24.7864 150.35 23.6376 150.979 22.2953L147.52 22.6339L147.351 21.6664L151.317 21.3883C151.474 20.8562 151.571 20.2757 151.607 19.6832H147.907V18.7641H152.72ZM154.365 28.2692V17.6999H155.477V21.9325H157.122V22.8515H155.477V28.2692H154.365ZM163.413 18.7641C163.413 21.8962 162.458 24.6655 158.6 26.5762L157.996 25.7297C159.906 24.7864 161.043 23.6376 161.672 22.2953L158.213 22.6339L158.044 21.6664L162.011 21.3883C162.168 20.8562 162.264 20.2757 162.301 19.6832H158.6V18.7641H163.413ZM165.058 28.2692V17.6999H166.171V21.9325H167.815V22.8515H166.171V28.2692H165.058ZM173.429 18.3288C175.703 18.3408 177.348 19.4655 177.348 21.1585C177.348 22.7306 175.969 23.7827 173.986 23.9399V26.0199H178.315V26.9632H168.616V26.0199H172.873V23.9399C170.926 23.7827 169.536 22.7306 169.536 21.1585C169.536 19.4655 171.192 18.3408 173.429 18.3288ZM170.624 21.1585C170.624 22.3315 171.809 23.0692 173.429 23.0692C175.074 23.0692 176.259 22.3315 176.259 21.1585C176.259 19.9976 175.074 19.2478 173.429 19.2478C171.809 19.2478 170.624 19.9976 170.624 21.1585ZM188.96 23.3836V24.2785H179.286V23.3836H183.567V22.3678H180.567V17.966H187.775V18.8608H181.68V19.7074H187.509V20.5781H181.68V21.4971H187.847V22.3678H184.679V23.3836H188.96ZM180.374 26.0199V25.125H187.727V28.2692H186.59V26.0199H180.374ZM194.816 18.3288C197.041 18.3408 198.734 19.5139 198.734 21.2794C198.734 23.0813 197.041 24.2543 194.816 24.2543C192.603 24.2543 190.922 23.0813 190.922 21.2794C190.922 19.5139 192.603 18.3408 194.816 18.3288ZM190.003 26.9148V25.9957H199.702V26.9148H190.003ZM192.011 21.2794C191.998 22.525 193.208 23.3232 194.816 23.3353C196.449 23.3232 197.646 22.525 197.646 21.2794C197.646 20.0581 196.449 19.2357 194.816 19.2478C193.208 19.2357 191.998 20.0581 192.011 21.2794ZM210.395 26.0683V27.0115H200.697V26.0683H204.953V24.206H201.882V20.8441H208.097V19.3688H201.857V18.4497H209.21V21.7632H202.994V23.2869H209.452V24.206H206.066V26.0683H210.395ZM218.478 20.3846C218.466 22.3194 219.627 24.2664 221.259 25.0041L220.606 25.8748C219.385 25.3064 218.418 24.1213 217.922 22.6822C217.438 24.2301 216.459 25.4999 215.189 26.1167L214.512 25.1734C216.168 24.4357 217.341 22.4162 217.341 20.3846V18.5706H218.478V20.3846ZM222.227 28.2934V17.6999H223.364V28.2934H222.227ZM228.978 19.5864C228.978 20.9529 229.909 22.2348 231.517 22.779L230.961 23.6497C229.764 23.2385 228.881 22.4041 228.422 21.3641C227.962 22.5129 227.043 23.4078 225.81 23.8432L225.205 22.9725C226.85 22.4162 227.841 21.0497 227.865 19.5864V19.2962H225.519V18.4013H231.251V19.2962H228.978V19.5864ZM226.608 25.512V24.5929H233.597V28.2692H232.485V25.512H226.608ZM232.485 24.085V17.6999H233.597V20.4088H235.121V21.352H233.597V24.085H232.485Z" fill="black"/>
<g clip-path="url(#clip0_777_1070)">
<path d="M126.637 15.0265C128.251 15.0265 129.743 15.3388 131.114 15.9636C132.485 16.5883 133.569 17.4378 134.366 18.512C135.163 19.5862 135.561 20.758 135.561 22.0272C135.561 23.2965 135.163 24.4699 134.366 25.5475C133.569 26.625 132.487 27.4761 131.119 28.1008C129.751 28.7255 128.257 29.0379 126.637 29.0379C126.126 29.0379 125.598 29.0015 125.054 28.9288C122.69 30.5617 121.432 31.388 121.279 31.4078C121.206 31.4343 121.137 31.431 121.07 31.398C121.044 31.3781 121.024 31.3517 121.01 31.3186C120.997 31.2855 120.99 31.2558 120.99 31.2294V31.1897C121.03 30.9319 121.332 29.8577 121.897 27.967C120.615 27.3324 119.598 26.4911 118.844 25.4433C118.091 24.3955 117.714 23.2568 117.714 22.0272C117.714 20.758 118.112 19.5862 118.909 18.512C119.706 17.4378 120.79 16.5883 122.161 15.9636C123.532 15.3388 125.024 15.0265 126.637 15.0265Z" fill="black"/>
</g>
<defs>
<clipPath id="clip0_777_1070">
<rect width="18.8406" height="18.7417" fill="white" transform="translate(117.236 13.2695)"/>
</clipPath>
</defs>
</svg>
