<svg width="350" height="44" viewBox="0 0 350 44" fill="none" xmlns="http://www.w3.org/2000/svg">
<rect width="350" height="44" rx="12" transform="matrix(1 0 1.75235e-05 1 0 0)" fill="#01C73C"/>
<g clip-path="url(#clip0_1069_1890)">
<path d="M132.21 22.42L127.72 16H124V28H127.9V21.58L132.38 28H136.1V16H132.21V22.42Z" fill="white"/>
</g>
<path d="M151.825 22.265H148.99V21.17H151.825V17.225H153.1V29.405H151.825V22.265ZM155.74 30.05H154.465V16.94H155.74V30.05ZM150.925 26.285C149.865 26.545 148.415 26.69 146.575 26.72H145.33V18.35H146.65V25.58C148.45 25.58 149.81 25.45 150.73 25.19L150.925 26.285ZM168.464 30.05H167.129V16.94H168.464V30.05ZM158.114 22.55C158.114 21.18 158.399 20.07 158.969 19.22C159.539 18.36 160.379 17.93 161.489 17.93C162.599 17.93 163.434 18.36 163.994 19.22C164.564 20.07 164.849 21.185 164.849 22.565C164.849 23.945 164.564 25.065 163.994 25.925C163.434 26.775 162.599 27.2 161.489 27.2C160.379 27.2 159.539 26.77 158.969 25.91C158.399 25.05 158.114 23.93 158.114 22.55ZM163.004 25.1C163.354 24.46 163.529 23.615 163.529 22.565C163.529 21.515 163.354 20.67 163.004 20.03C162.654 19.39 162.149 19.07 161.489 19.07C160.839 19.07 160.339 19.39 159.989 20.03C159.639 20.67 159.464 21.515 159.464 22.565C159.464 23.615 159.639 24.46 159.989 25.1C160.339 25.73 160.839 26.045 161.489 26.045C162.149 26.045 162.654 25.73 163.004 25.1ZM180.137 22.865H177.782V21.74H180.137V16.94H181.457V30.05H180.137V22.865ZM177.197 26.75H171.032V18.005H172.337V21.305H175.862V17.99H177.197V26.75ZM175.862 25.67V22.355H172.337V25.67H175.862ZM199.381 28.385H187.546V27.305H192.766V25.235H188.971V21.02H196.591V19.1H188.941V18.02H197.911V22.1H190.291V24.155H198.271V25.235H194.101V27.305H199.381V28.385ZM212.36 28.145H200.525V27.065H212.36V28.145ZM210.785 18.425C210.785 21.775 210.58 24.34 210.17 26.12L208.88 25.955C209.04 25.355 209.17 24.395 209.27 23.075C209.38 21.745 209.435 20.55 209.435 19.49H201.755V18.425H210.785ZM224.258 26.465H222.923V16.94H224.258V26.465ZM224.558 29.645H215.633V25.565H216.968V28.58H224.558V29.645ZM214.793 18.77C215.453 18.14 216.288 17.825 217.298 17.825C218.308 17.825 219.143 18.135 219.803 18.755C220.473 19.375 220.808 20.155 220.808 21.095C220.808 22.035 220.478 22.805 219.818 23.405C219.158 23.995 218.318 24.29 217.298 24.29C216.288 24.29 215.453 23.995 214.793 23.405C214.133 22.805 213.803 22.04 213.803 21.11C213.803 20.17 214.133 19.39 214.793 18.77ZM217.298 18.965C216.688 18.965 216.183 19.165 215.783 19.565C215.393 19.965 215.198 20.47 215.198 21.08C215.198 21.68 215.393 22.18 215.783 22.58C216.183 22.98 216.688 23.18 217.298 23.18C217.938 23.18 218.448 22.985 218.828 22.595C219.208 22.205 219.398 21.705 219.398 21.095C219.398 20.465 219.208 19.955 218.828 19.565C218.448 19.165 217.938 18.965 217.298 18.965Z" fill="white"/>
<defs>
<clipPath id="clip0_1069_1890">
<rect width="12.1" height="12" fill="white" transform="translate(124 16)"/>
</clipPath>
</defs>
</svg>
