<svg width="350" height="44" viewBox="0 0 350 44" fill="none" xmlns="http://www.w3.org/2000/svg">
<rect width="350" height="44" rx="12" transform="matrix(1 0 1.75235e-05 1 0 0)" fill="#FEE500"/>
<g clip-path="url(#clip0_1069_1892)">
<path d="M130.402 13.757C132.015 13.757 133.507 14.0694 134.878 14.6941C136.249 15.3188 137.333 16.1683 138.13 17.2425C138.927 18.3167 139.325 19.4885 139.325 20.7578C139.325 22.027 138.927 23.2004 138.13 24.278C137.333 25.3555 136.251 26.2067 134.883 26.8314C133.515 27.4561 132.022 27.7685 130.402 27.7685C129.89 27.7685 129.362 27.7321 128.818 27.6594C126.454 29.2922 125.196 30.1186 125.043 30.1384C124.97 30.1648 124.901 30.1615 124.834 30.1285C124.808 30.1086 124.788 30.0822 124.775 30.0491C124.761 30.0161 124.755 29.9863 124.755 29.9599V29.9202C124.794 29.6624 125.097 28.5882 125.661 26.6975C124.379 26.0629 123.362 25.2217 122.608 24.1739C121.855 23.1261 121.478 21.9874 121.478 20.7578C121.478 19.4885 121.876 18.3167 122.673 17.2425C123.47 16.1683 124.554 15.3188 125.925 14.6941C127.296 14.0694 128.788 13.757 130.402 13.757Z" fill="black"/>
</g>
<path d="M155.221 18.32C155.211 22.59 153.211 25.73 149.221 27.74L148.396 26.72C150.586 25.72 152.136 24.32 153.046 22.52L148.846 22.97L148.606 21.8L153.481 21.425C153.681 20.795 153.796 20.135 153.826 19.445H149.131V18.32H155.221ZM158.536 16.94V22.22H160.621V23.315H158.536V30.05H157.216V16.94H158.536ZM168.199 18.32C168.189 22.59 166.189 25.73 162.199 27.74L161.374 26.72C163.564 25.72 165.114 24.32 166.024 22.52L161.824 22.97L161.584 21.8L166.459 21.425C166.659 20.795 166.774 20.135 166.804 19.445H162.109V18.32H168.199ZM171.514 16.94V22.22H173.599V23.315H171.514V30.05H170.194V16.94H171.514ZM185.168 21.395C185.168 22.415 184.783 23.255 184.013 23.915C183.253 24.565 182.228 24.94 180.938 25.04V27.26H186.203V28.355H174.368V27.26H179.603V25.025C178.323 24.915 177.303 24.535 176.543 23.885C175.783 23.235 175.403 22.405 175.403 21.395C175.403 20.305 175.848 19.425 176.738 18.755C177.638 18.085 178.818 17.75 180.278 17.75C181.758 17.75 182.943 18.085 183.833 18.755C184.723 19.415 185.168 20.295 185.168 21.395ZM182.828 23.225C183.478 22.755 183.803 22.145 183.803 21.395C183.803 20.645 183.478 20.035 182.828 19.565C182.188 19.095 181.338 18.86 180.278 18.86C179.228 18.86 178.378 19.095 177.728 19.565C177.088 20.035 176.768 20.645 176.768 21.395C176.768 22.145 177.088 22.755 177.728 23.225C178.378 23.695 179.228 23.93 180.278 23.93C181.328 23.93 182.178 23.695 182.828 23.225ZM203.122 28.385H191.287V27.305H196.507V25.235H192.712V21.02H200.332V19.1H192.682V18.02H201.652V22.1H194.032V24.155H202.012V25.235H197.842V27.305H203.122V28.385ZM216.1 28.145H204.265V27.065H216.1V28.145ZM214.525 18.425C214.525 21.775 214.32 24.34 213.91 26.12L212.62 25.955C212.78 25.355 212.91 24.395 213.01 23.075C213.12 21.745 213.175 20.55 213.175 19.49H205.495V18.425H214.525ZM227.999 26.465H226.664V16.94H227.999V26.465ZM228.299 29.645H219.374V25.565H220.709V28.58H228.299V29.645ZM218.534 18.77C219.194 18.14 220.029 17.825 221.039 17.825C222.049 17.825 222.884 18.135 223.544 18.755C224.214 19.375 224.549 20.155 224.549 21.095C224.549 22.035 224.219 22.805 223.559 23.405C222.899 23.995 222.059 24.29 221.039 24.29C220.029 24.29 219.194 23.995 218.534 23.405C217.874 22.805 217.544 22.04 217.544 21.11C217.544 20.17 217.874 19.39 218.534 18.77ZM221.039 18.965C220.429 18.965 219.924 19.165 219.524 19.565C219.134 19.965 218.939 20.47 218.939 21.08C218.939 21.68 219.134 22.18 219.524 22.58C219.924 22.98 220.429 23.18 221.039 23.18C221.679 23.18 222.189 22.985 222.569 22.595C222.949 22.205 223.139 21.705 223.139 21.095C223.139 20.465 222.949 19.955 222.569 19.565C222.189 19.165 221.679 18.965 221.039 18.965Z" fill="black" fill-opacity="0.85"/>
<defs>
<clipPath id="clip0_1069_1892">
<rect width="18.8406" height="18.7417" fill="white" transform="translate(121 12)"/>
</clipPath>
</defs>
</svg>
