<svg width="166" height="92" viewBox="0 0 166 92" fill="none" xmlns="http://www.w3.org/2000/svg">
<path d="M157.865 81.6566C157.865 85.2976 157.084 87.8983 155.523 89.5454C153.962 91.1058 151.62 91.9727 148.498 91.9727H98.804C95.6818 91.9727 93.3402 91.1058 91.7791 89.5454C90.218 87.8983 89.4375 85.2976 89.4375 81.6566V63.7985C89.4375 62.9316 89.6109 62.4114 89.9579 62.0647C90.3048 61.8046 90.8251 61.6312 91.6924 61.6312H155.61C156.39 61.6312 156.997 61.8046 157.344 62.0647C157.691 62.4114 157.865 62.9316 157.865 63.7985V81.6566ZM139.392 78.7958C140.346 78.7958 141.04 78.6224 141.387 78.2757C141.734 77.8422 141.907 77.062 141.907 76.0217V74.3746H105.222V76.0217C105.222 77.062 105.395 77.8422 105.742 78.2757C106.089 78.6224 106.696 78.7958 107.737 78.7958H139.392Z" fill="#1689F3"/>
<path d="M17.0851 25.3355C16.7382 32.0973 16.5648 38.8591 16.5648 45.6209C16.478 52.4694 16.478 59.6647 16.6515 67.2934C16.6515 69.374 17.1718 70.9344 18.0391 71.888C18.8196 72.9282 20.3807 73.3617 22.7223 73.275C26.9719 73.1883 31.0481 73.0149 35.0375 72.7549C38.9402 72.5815 43.1031 72.3214 47.4394 71.888C48.2199 71.8013 48.7403 71.888 49.0872 72.148C49.3474 72.4948 49.5208 73.1016 49.6943 73.9685L50.5615 84.0246C50.6483 84.8915 50.4748 85.4116 50.1279 85.6717C49.6943 85.845 49.0872 86.0184 48.3067 86.1918C42.5827 86.6253 37.0322 86.972 31.8286 87.3188C26.4516 87.4922 21.0745 87.6655 15.524 87.6655C9.97355 87.6655 5.98413 86.1918 3.64251 83.2443C1.21417 80.2102 0 75.5289 0 68.9405C0 63.9125 0 58.9712 0.0867263 54.2032C0.0867263 49.522 0.173453 44.8407 0.346906 40.3328C0.346906 35.825 0.520359 31.4038 0.693812 26.8959C0.780538 22.5614 0.953991 18.0535 1.21417 13.5457C1.21417 12.6788 1.47435 12.1586 1.82126 11.8119C2.08144 11.5518 2.60179 11.3784 3.46906 11.3784H44.7509C45.5314 11.3784 46.1385 11.5518 46.4854 11.8119C46.8323 12.1586 47.0058 12.6788 47.0058 13.5457V23.1682C47.0058 24.0351 46.8323 24.642 46.4854 24.902C46.1385 25.2488 45.5314 25.3355 44.7509 25.3355H17.0851ZM36.8588 43.0202C36.8588 42.1533 37.0322 41.6332 37.3791 41.2864C37.726 41.0264 38.2464 40.853 39.1136 40.853H56.8926V13.5457C56.8926 12.6788 57.066 12.1586 57.4129 11.8119C57.7598 11.5518 58.2802 11.3784 59.1475 11.3784H71.2892C72.0697 11.3784 72.6768 11.5518 73.0237 11.8119C73.3706 12.1586 73.5441 12.6788 73.5441 13.5457V89.8328C73.5441 90.6997 73.3706 91.2198 73.0237 91.5666C72.6768 91.8266 72.0697 92 71.2892 92H59.1475C58.2802 92 57.7598 91.8266 57.4129 91.5666C57.066 91.2198 56.8926 90.6997 56.8926 89.8328V55.2435H39.1136C38.2464 55.2435 37.726 55.1568 37.3791 54.8101C37.0322 54.55 36.8588 53.9432 36.8588 53.0763V43.0202Z" fill="#1689F3"/>
<path d="M140.931 8.85133V26.5148V35.8232V58.197C140.931 58.7577 141.107 59.0942 141.46 59.3185C141.813 59.4867 142.342 59.5989 143.224 59.5989H155.576C156.37 59.5989 156.987 59.4867 157.34 59.3185C157.693 59.0942 157.869 58.7577 157.869 58.197V8.85133C157.869 8.29058 157.693 7.95413 157.34 7.72984C156.987 7.56161 156.37 7.44946 155.576 7.44946H143.224C142.342 7.44946 141.813 7.56161 141.46 7.72984C141.107 7.95413 140.931 8.29058 140.931 8.85133Z" fill="#1689F3"/>
<path d="M165.344 25.0587L157.083 25.0587L152.729 25.0587L142.264 25.0587C142.002 25.0587 141.844 25.2351 141.739 25.5878C141.661 25.9406 141.608 26.4697 141.608 27.3515L141.608 39.6975C141.608 40.4912 141.661 41.1085 141.739 41.4612C141.844 41.814 142.002 41.9903 142.264 41.9903L165.344 41.9903C165.607 41.9903 165.764 41.814 165.869 41.4612C165.948 41.1085 166 40.4912 166 39.6975L166 27.3515C166 26.4697 165.948 25.9406 165.869 25.5878C165.764 25.2351 165.607 25.0587 165.344 25.0587Z" fill="#1689F3"/>
<ellipse cx="7.45306" cy="7.44991" rx="7.45306" ry="7.44991" transform="matrix(1 0 0 -1 100.955 14.8998)" fill="#1689F3"/>
<ellipse cx="19.3102" cy="19.302" rx="19.3102" ry="19.302" transform="matrix(1 0 0 -1 89.4375 59.5991)" fill="#1689F3"/>
<rect x="84.6934" y="17.609" width="47.4286" height="13.5453" rx="1.00775" fill="#1689F3"/>
<rect x="96.8906" y="37.1522" width="23.7143" height="6.28889" rx="3.14444" fill="white"/>
<rect x="111.894" y="28.4451" width="23.7043" height="6.29154" rx="3.14577" transform="rotate(90 111.894 28.4451)" fill="white"/>
</svg>
