<svg width="310" height="173" viewBox="0 0 310 173" fill="none" xmlns="http://www.w3.org/2000/svg">
<path d="M294.804 153.225C294.804 160.057 293.347 164.938 290.431 168.028C287.516 170.956 283.143 172.583 277.313 172.583H184.51C178.68 172.583 174.307 170.956 171.392 168.028C168.476 164.938 167.019 160.057 167.019 153.225V119.715C167.019 118.088 167.343 117.112 167.991 116.462C168.638 115.974 169.61 115.648 171.23 115.648H290.593C292.051 115.648 293.185 115.974 293.833 116.462C294.48 117.112 294.804 118.088 294.804 119.715V153.225ZM260.307 147.857C262.089 147.857 263.384 147.532 264.032 146.881C264.68 146.068 265.004 144.604 265.004 142.652V139.561H196.495V142.652C196.495 144.604 196.819 146.068 197.467 146.881C198.115 147.532 199.249 147.857 201.192 147.857H260.307Z" fill="white"/>
<path d="M31.9059 47.5413C31.258 60.2296 30.9341 72.9178 30.9341 85.6061C30.7722 98.4571 30.7722 111.959 31.0961 126.274C31.0961 130.178 32.0678 133.106 33.6874 134.895C35.1451 136.847 38.0603 137.661 42.4332 137.498C50.3692 137.335 57.9812 137.01 65.4314 136.522C72.7195 136.197 80.4935 135.709 88.5915 134.895C90.0491 134.733 91.0208 134.895 91.6687 135.383C92.1546 136.034 92.4785 137.173 92.8024 138.799L94.422 157.669C94.5839 159.296 94.26 160.272 93.6122 160.76C92.8024 161.085 91.6687 161.411 90.211 161.736C79.5218 162.549 69.1564 163.2 59.4389 163.851C49.3974 164.176 39.356 164.501 28.9906 164.501C18.6253 164.501 11.1752 161.736 6.80227 156.205C2.26742 150.512 0 141.727 0 129.364C0 119.93 0 110.657 0.161959 101.711C0.161959 92.9263 0.323918 84.1421 0.647835 75.6832C0.647835 67.2244 0.971753 58.9282 1.29567 50.4693C1.45763 42.3358 1.78155 33.8769 2.26742 25.4181C2.26742 23.7914 2.7533 22.8154 3.40113 22.1647C3.88701 21.6767 4.85876 21.3513 6.47835 21.3513H83.5707C85.0284 21.3513 86.1621 21.6767 86.8099 22.1647C87.4577 22.8154 87.7817 23.7914 87.7817 25.4181V43.4745C87.7817 45.1012 87.4577 46.2399 86.8099 46.7279C86.1621 47.3786 85.0284 47.5413 83.5707 47.5413H31.9059ZM68.8325 80.726C68.8325 79.0993 69.1564 78.1233 69.8042 77.4726C70.4521 76.9846 71.4238 76.6593 73.0434 76.6593H106.245V25.4181C106.245 23.7914 106.569 22.8154 107.217 22.1647C107.865 21.6767 108.836 21.3513 110.456 21.3513H133.13C134.588 21.3513 135.721 21.6767 136.369 22.1647C137.017 22.8154 137.341 23.7914 137.341 25.4181V168.568C137.341 170.195 137.017 171.171 136.369 171.821C135.721 172.309 134.588 172.635 133.13 172.635H110.456C108.836 172.635 107.865 172.309 107.217 171.821C106.569 171.171 106.245 170.195 106.245 168.568V103.663H73.0434C71.4238 103.663 70.4521 103.5 69.8042 102.849C69.1564 102.361 68.8325 101.223 68.8325 99.5958V80.726Z" fill="white"/>
<path d="M263.183 16.6097V49.7546V67.2214V109.205C263.183 110.257 263.513 110.889 264.172 111.309C264.831 111.625 265.819 111.836 267.467 111.836H290.532C292.015 111.836 293.168 111.625 293.827 111.309C294.486 110.889 294.816 110.257 294.816 109.205V16.6097C294.816 15.5575 294.486 14.9261 293.827 14.5052C293.168 14.1896 292.015 13.9791 290.532 13.9791H267.467C265.819 13.9791 264.831 14.1896 264.172 14.5052C263.513 14.9261 263.183 15.5575 263.183 16.6097Z" fill="white"/>
<path d="M308.776 47.0217L293.347 47.0217L285.216 47.0217L265.674 47.0217C265.184 47.0217 264.89 47.3527 264.694 48.0146C264.547 48.6765 264.449 49.6694 264.449 51.3241L264.449 74.4909C264.449 75.9802 264.547 77.1385 264.694 77.8004C264.89 78.4623 265.184 78.7933 265.674 78.7933L308.776 78.7933C309.265 78.7933 309.559 78.4623 309.755 77.8004C309.902 77.1385 310 75.9802 310 74.4909L310 51.3241C310 49.6694 309.902 48.6765 309.755 48.0146C309.559 47.3527 309.265 47.0217 308.776 47.0217Z" fill="white"/>
<ellipse cx="13.9183" cy="13.9795" rx="13.9183" ry="13.9795" transform="matrix(1 0 0 -1 188.531 27.959)" fill="white"/>
<ellipse cx="36.0611" cy="36.2196" rx="36.0611" ry="36.2196" transform="matrix(1 0 0 -1 167.019 111.836)" fill="white"/>
<rect x="158.164" y="33.0427" width="88.5712" height="25.4173" rx="1.87068" fill="white"/>
<rect x="180.941" y="69.7148" width="44.2856" height="11.8009" rx="5.90043" fill="#1689F3"/>
<rect x="208.959" y="53.3755" width="44.4802" height="11.7492" rx="5.87462" transform="rotate(90 208.959 53.3755)" fill="#1689F3"/>
</svg>
