<svg width="41" height="15" viewBox="0 0 41 15" fill="none" xmlns="http://www.w3.org/2000/svg">
<mask id="path-1-inside-1_1073_5040" fill="white">
<rect x="3.34644" y="2.95142" width="12.212" height="11.8056" rx="0.5"/>
</mask>
<rect x="3.34644" y="2.95142" width="12.212" height="11.8056" rx="0.5" stroke="#AEAEAE" stroke-width="2" mask="url(#path-1-inside-1_1073_5040)"/>
<path d="M6.39941 6.54523V10.4804" stroke="#AEAEAE" stroke-linecap="round"/>
<path d="M9.45239 6.54523V10.4804" stroke="#AEAEAE" stroke-linecap="round"/>
<path d="M12.5054 6.54523V10.4804" stroke="#AEAEAE" stroke-linecap="round"/>
<path d="M15.5586 0.983826L3.34655 0.983825" stroke="#AEAEAE" stroke-linecap="round"/>
<path d="M23.7812 4.11183C23.7692 5.43183 24.6212 6.69183 26.2772 7.23183L25.6292 8.23983C24.4292 7.86783 23.5892 7.06383 23.1332 6.06783C22.6652 7.14783 21.8132 7.99983 20.5652 8.40783L19.8932 7.37583C21.6092 6.82383 22.4612 5.45583 22.4612 3.99183V2.98382H23.7812V4.11183ZM21.2852 10.3518V9.29583H28.3412V13.0158H27.0212V10.3518H21.2852ZM27.0212 8.83983V2.43182H28.3412V5.09583H29.8292V6.19983H28.3412V8.83983H27.0212ZM39.4562 2.43182V13.0158H38.2322V2.43182H39.4562ZM30.1682 10.0158C31.6922 9.07983 32.3642 7.17183 32.3762 5.33583V4.61583H30.5282V3.55983H35.3282V4.61583H33.6242V5.33583C33.6242 7.11183 34.2602 8.91183 35.7842 9.77583L35.0162 10.7358C34.0202 10.1598 33.3722 9.13983 33.0122 7.92783C32.6402 9.23583 31.9562 10.3518 30.9602 10.9758L30.1682 10.0158ZM34.5602 7.18383V6.12783H36.0962V2.64783H37.3202V12.5118H36.0962V7.18383H34.5602Z" fill="#AEAEAE"/>
</svg>
